{
.appVersion = "1352";
DisplayStrings = (
"/nbspace",
abcdefghijklmnopqrstuvwxyz
);
copyright = "Copyright 2010 The Corinthia Professional Project Authors (https://github.com/googlefonts/corinthia)";
customParameters = (
{
name = licenseURL;
value = "https://scripts.sil.org/OFL";
},
{
name = license;
value = "This Font Software is licensed under the SIL Open Font License, Version 1.1. This license is available with a FAQ at: https://scripts.sil.org/OFL";
},
{
name = "Disable Subroutines";
value = 1;
},
{
name = glyphOrder;
value = (
.notdef,
CR,
NULL,
space,
nbspace
);
},
{
name = fsType;
value = (
);
},
{
name = "Use Typo Metrics";
value = 1;
},
{
name = Axes;
value = (
{
Name = Weight;
Tag = wght;
}
);
}
);
date = "2021-08-11 14:22:23 +0000";
designer = "Robert E. Leuschke";
designerURL = www.typesetit.com;
disablesNiceNames = 1;
familyName = CorinthiaProfessional;
featurePrefixes = (
{
automatic = 1;
code = "languagesystem DFLT dflt;\012\012languagesystem latn dflt;\012languagesystem latn AZE;\012languagesystem latn CRT;\012languagesystem latn KAZ;\012languagesystem latn TAT;\012languagesystem latn TRK;\012languagesystem latn ROM;\012languagesystem latn MOL;\012languagesystem latn CAT;\012";
name = Languagesystems;
}
);
features = (
{
automatic = 1;
code = "feature fina;\012feature locl;\012feature subs;\012feature sinf;\012feature sups;\012feature frac;\012feature ordn;\012";
name = aalt;
},
{
code = "sub a by a.end;\012sub c by c.end;\012sub d by d.end;\012sub e by e.end;\012sub g by g.end;\012sub h by h.end;\012sub k by k.end;\012sub l by l.end;\012sub m by m.end;\012sub n by n.end;\012sub o by o.end;\012sub r by r.end;\012sub t by t.end;\012sub u by u.end;\012";
name = fina;
},
{

glyphs = (
{
color = 3;
glyphname = .notdef;
lastChange = "2021-08-11 14:26:43 +0000";
layers = (
{
layerId = "57DEED6F-9A00-47D0-BD9B-6FE09716AB2D";
paths = (
{
closed = 1;
nodes = (
"481 -250 LINE",
"481 610 LINE",
"50 610 LINE",
"50 -250 LINE"
);
},
{
closed = 1;
nodes = (
"266 221 LINE",
"109 567 LINE",
"422 567 LINE"
);
},
{
closed = 1;
nodes = (
"101 502 LINE",
"247 180 LINE",
"101 -143 LINE"
);
},
{
closed = 1;
nodes = (
"430 -143 LINE",
"284 180 LINE",
"430 502 LINE"
);
},
{
closed = 1;
nodes = (
"109 -207 LINE",
"266 139 LINE",
"422 -207 LINE"
);
}
);
width = 531;
},
{
layerId = "A9A9B55F-A222-44B0-A0B6-968BE501F3F8";
paths = (
{
closed = 1;
nodes = (
"481 -250 LINE",
"481 610 LINE",
"50 610 LINE",
"50 -250 LINE"
);
},
{
closed = 1;
nodes = (
"266 221 LINE",
"109 567 LINE",
"422 567 LINE"
);
},
{
closed = 1;
nodes = (
"101 502 LINE",
"247 180 LINE",
"101 -143 LINE"
);
},
{
closed = 1;
nodes = (
"430 -143 LINE",
"284 180 LINE",
"430 502 LINE"
);
},
{
closed = 1;
nodes = (
"109 -207 LINE",
"266 139 LINE",
"422 -207 LINE"
);
}
);
width = 531;
},
{
layerId = "AFE3E0A9-A514-4B93-8E4E-B7D18C88F31C";
paths = (
{
closed = 1;
nodes = (
"481 -250 LINE",
"481 610 LINE",
"50 610 LINE",
"50 -250 LINE"
);
},
{
closed = 1;
nodes = (
"266 221 LINE",
"109 567 LINE",
"422 567 LINE"
);
},
{
closed = 1;
nodes = (
"101 502 LINE",
"247 180 LINE",
"101 -143 LINE"
);
},
{
closed = 1;
nodes = (
"430 -143 LINE",
"284 180 LINE",
"430 502 LINE"
);
},
{
closed = 1;
nodes = (
"109 -207 LINE",
"266 139 LINE",
"422 -207 LINE"
);
}
);
width = 531;
}
);
note = .notdef;
},
{
color = 9;
glyphname = A;
lastChange = "2021-08-11 14:47:19 +0000";
layers = (
{
anchors = (
{
name = bottom;
position = "{430, 5}";
},
{
name = ogonek;
position = "{630, -38}";
},
{
name = top;
position = "{809, 598}";
}
);
layerId = "57DEED6F-9A00-47D0-BD9B-6FE09716AB2D";
paths = (
{
closed = 1;
nodes = (
"802 583 OFFCURVE",
"799 586 OFFCURVE",
"793 586 CURVE SMOOTH",
"788 586 OFFCURVE",
"777 581 OFFCURVE",
"762 572 CURVE SMOOTH",
"745 562 OFFCURVE",
"737 556 OFFCURVE",
"735 551 CURVE SMOOTH",
"715 511 OFFCURVE",
"704 486 OFFCURVE",
"695 463 CURVE SMOOTH",
"666 389 OFFCURVE",
"642 310 OFFCURVE",
"623 225 CURVE",
"591 232 OFFCURVE",
"558 237 OFFCURVE",
"525 239 CURVE",
"550 271 OFFCURVE",
"614 357 OFFCURVE",
"631 379 CURVE SMOOTH",
"693 462 LINE",
"694 465 OFFCURVE",
"695 467 OFFCURVE",
"695 469 CURVE SMOOTH",
"695 477 OFFCURVE",
"691 481 OFFCURVE",
"682 481 CURVE SMOOTH",
"679 481 OFFCURVE",
"676 479 OFFCURVE",
"673 476 CURVE",
"617 401 LINE SMOOTH",
"573 343 OFFCURVE",
"561 329 OFFCURVE",
"486 240 CURVE",
"340 241 OFFCURVE",
"234 231 OFFCURVE",
"167 213 CURVE SMOOTH",
"127 202 OFFCURVE",
"92 182 OFFCURVE",
"63 153 CURVE SMOOTH",
"30 120 OFFCURVE",
"14 85 OFFCURVE",
"14 46 CURVE SMOOTH",
"14 11 OFFCURVE",
"27 -14 OFFCURVE",
"53 -32 CURVE SMOOTH",
"75 -48 OFFCURVE",
"104 -56 OFFCURVE",
"140 -56 CURVE SMOOTH",
"194 -56 OFFCURVE",
"247 -38 OFFCURVE",
"298 0 CURVE SMOOTH",
"327 22 OFFCURVE",
"354 46 OFFCURVE",
"421 118 CURVE SMOOTH",
"455 154 OFFCURVE",
"480 183 OFFCURVE",
"500 208 CURVE",
"545 207 OFFCURVE",
"584 205 OFFCURVE",
"618 200 CURVE",
"601 118 OFFCURVE",
"593 56 OFFCURVE",
"593 13 CURVE SMOOTH",
"593 -29 OFFCURVE",
"606 -50 OFFCURVE",
"631 -50 CURVE SMOOTH",
"640 -50 OFFCURVE",
"651 -46 OFFCURVE",
"664 -38 CURVE SMOOTH",
"678 -30 OFFCURVE",
"683 -23 OFFCURVE",
"683 -16 CURVE SMOOTH",
"683 -9 OFFCURVE",
"680 -5 OFFCURVE",
"674 -5 CURVE SMOOTH",
"672 -5 OFFCURVE",
"666 -9 OFFCURVE",
"655 -18 CURVE SMOOTH",
"645 -26 OFFCURVE",
"637 -30 OFFCURVE",
"631 -30 CURVE SMOOTH",
"624 -30 OFFCURVE",
"621 -19 OFFCURVE",
"621 4 CURVE SMOOTH",
"621 51 OFFCURVE",
"631 114 OFFCURVE",
"650 194 CURVE",
"653 193 OFFCURVE",
"661 191 OFFCURVE",
"672 186 CURVE SMOOTH",
"678 184 OFFCURVE",
"688 180 OFFCURVE",
"690 180 CURVE SMOOTH",
"697 180 OFFCURVE",
"701 183 OFFCURVE",
"701 190 CURVE SMOOTH",
"701 198 OFFCURVE",
"686 207 OFFCURVE",
"656 216 CURVE",
"693 355 OFFCURVE",
"740 471 OFFCURVE",
"797 566 CURVE SMOOTH",
"800 571 OFFCURVE",
"802 575 OFFCURVE",
"802 577 CURVE SMOOTH"
);
},
{
closed = 1;
nodes = (
"458 208 LINE",
"433 178 OFFCURVE",
"413 159 OFFCURVE",
"396 141 CURVE SMOOTH",
"349 92 OFFCURVE",
"308 54 OFFCURVE",
"277 33 CURVE SMOOTH",
"228 0 OFFCURVE",
"179 -17 OFFCURVE",
"128 -17 CURVE SMOOTH",
"104 -17 OFFCURVE",
"85 -12 OFFCURVE",
"69 -2 CURVE SMOOTH",
"51 10 OFFCURVE",
"41 26 OFFCURVE",
"41 48 CURVE SMOOTH",
"41 80 OFFCURVE",
"55 109 OFFCURVE",
"83 136 CURVE SMOOTH",
"105 157 OFFCURVE",
"137 176 OFFCURVE",
"170 185 CURVE SMOOTH",
"229 201 OFFCURVE",
"315 208 OFFCURVE",
"430 208 CURVE SMOOTH"
);
}
);
width = 750;
},
{
anchors = (
{
name = bottom;
position = "{485, 10}";
},
{
name = ogonek;
position = "{713, -33}";
},
{
name = top;
position = "{921, 603}";
}
);
layerId = "A9A9B55F-A222-44B0-A0B6-968BE501F3F8";
paths = (
{
closed = 1;
nodes = (
"751 202 OFFCURVE",
"768 192 OFFCURVE",
"779 192 CURVE SMOOTH",
"788 192 OFFCURVE",
"795 189 OFFCURVE",
"795 201 CURVE SMOOTH",
"795 217 OFFCURVE",
"757 222 OFFCURVE",
"745 225 CURVE",
"786 348 OFFCURVE",
"840 462 OFFCURVE",
"912 568 CURVE",
"914 572 OFFCURVE",
"918 577 OFFCURVE",
"918 582 CURVE SMOOTH",
"918 592 OFFCURVE",
"912 597 OFFCURVE",
"903 597 CURVE SMOOTH",
"888 597 OFFCURVE",
"841 572 OFFCURVE",
"832 558 CURVE SMOOTH",
"817 537 OFFCURVE",
"799 501 OFFCURVE",
"792 487 CURVE",
"787 491 OFFCURVE",
"781 492 OFFCURVE",
"776 492 CURVE SMOOTH",
"770 492 OFFCURVE",
"765 489 OFFCURVE",
"761 485 CURVE SMOOTH",
"684 402 OFFCURVE",
"605 300 OFFCURVE",
"552 248 CURVE",
"418 249 OFFCURVE",
"180 258 OFFCURVE",
"71 163 CURVE SMOOTH",
"40 136 OFFCURVE",
"12 97 OFFCURVE",
"10 51 CURVE SMOOTH",
"7 -33 OFFCURVE",
"91 -57 OFFCURVE",
"153 -57 CURVE SMOOTH",
"309 -57 OFFCURVE",
"460 93 OFFCURVE",
"570 212 CURVE",
"595 214 OFFCURVE",
"652 218 OFFCURVE",
"692 213 CURVE",
"675 153 OFFCURVE",
"656 80 OFFCURVE",
"654 18 CURVE SMOOTH",
"653 -18 OFFCURVE",
"662 -51 OFFCURVE",
"700 -51 CURVE SMOOTH",
"715 -51 OFFCURVE",
"751 -37 OFFCURVE",
"773 -14 CURVE SMOOTH",
"783 -3 OFFCURVE",
"772 5 OFFCURVE",
"767 1 CURVE SMOOTH",
"755 -10 OFFCURVE",
"737 -22 OFFCURVE",
"723 -24 CURVE SMOOTH",
"705 -26 OFFCURVE",
"695 -23 OFFCURVE",
"696 9 CURVE SMOOTH",
"698 56 OFFCURVE",
"711 114 OFFCURVE",
"739 204 CURVE"
);
},
{
closed = 1;
nodes = (
"410 112 OFFCURVE",
"258 -17 OFFCURVE",
"118 -19 CURVE SMOOTH",
"85 -20 OFFCURVE",
"29 -12 OFFCURVE",
"35 42 CURVE SMOOTH",
"50 182 OFFCURVE",
"339 212 OFFCURVE",
"519 214 CURVE"
);
},
{
closed = 1;
nodes = (
"738 370 OFFCURVE",
"716 300 OFFCURVE",
"696 233 CURVE",
"666 239 OFFCURVE",
"630 242 OFFCURVE",
"599 244 CURVE",
"653 305 OFFCURVE",
"713 372 OFFCURVE",
"766 434 CURVE"
);
}
);
width = 791;
},
{
anchors = (
{
name = bottom;
position = "{600, 10}";
},
{
name = ogonek;
position = "{800, -33}";
},
{
name = top;
position = "{979, 603}";
}
);
layerId = "AFE3E0A9-A514-4B93-8E4E-B7D18C88F31C";
paths = (
{
closed = 1;
nodes = (
"347 -57 OFFCURVE",
"509 93 OFFCURVE",
"626 212 CURVE",
"653 214 OFFCURVE",
"717 218 OFFCURVE",
"761 213 CURVE",
"746 153 OFFCURVE",
"727 80 OFFCURVE",
"727 18 CURVE SMOOTH",
"727 -18 OFFCURVE",
"739 -51 OFFCURVE",
"781 -51 CURVE SMOOTH",
"798 -51 OFFCURVE",
"837 -37 OFFCURVE",
"860 -14 CURVE SMOOTH",
"868 -6 OFFCURVE",
"861 8 OFFCURVE",
"853 1 CURVE SMOOTH",
"840 -10 OFFCURVE",
"821 -22 OFFCURVE",
"806 -24 CURVE SMOOTH",
"780 -27 OFFCURVE",
"775 -18 OFFCURVE",
"775 9 CURVE SMOOTH",
"775 71 OFFCURVE",
"797 145 OFFCURVE",
"814 204 CURVE",
"828 202 OFFCURVE",
"847 192 OFFCURVE",
"859 192 CURVE SMOOTH",
"869 192 OFFCURVE",
"877 189 OFFCURVE",
"877 201 CURVE SMOOTH",
"877 217 OFFCURVE",
"833 222 OFFCURVE",
"820 225 CURVE",
"861 348 OFFCURVE",
"917 462 OFFCURVE",
"992 568 CURVE SMOOTH",
"994 571 OFFCURVE",
"999 576 OFFCURVE",
"999 582 CURVE SMOOTH",
"999 592 OFFCURVE",
"991 597 OFFCURVE",
"981 597 CURVE SMOOTH",
"965 597 OFFCURVE",
"913 572 OFFCURVE",
"904 559 CURVE SMOOTH",
"888 537 OFFCURVE",
"874 511 OFFCURVE",
"862 487 CURVE",
"857 491 OFFCURVE",
"850 492 OFFCURVE",
"844 492 CURVE SMOOTH",
"838 492 OFFCURVE",
"832 489 OFFCURVE",
"828 485 CURVE SMOOTH",
"748 404 OFFCURVE",
"661 300 OFFCURVE",
"605 248 CURVE",
"456 249 OFFCURVE",
"191 258 OFFCURVE",
"73 163 CURVE SMOOTH",
"39 135 OFFCURVE",
"10 97 OFFCURVE",
"10 51 CURVE SMOOTH",
"10 -33 OFFCURVE",
"105 -57 OFFCURVE",
"173 -57 CURVE SMOOTH"
);
},
{
closed = 1;
nodes = (
"97 -20 OFFCURVE",
"34 -9 OFFCURVE",
"38 38 CURVE SMOOTH",
"52 201 OFFCURVE",
"444 212 OFFCURVE",
"569 214 CURVE",
"452 112 OFFCURVE",
"288 -17 OFFCURVE",
"133 -19 CURVE SMOOTH"
);
},
{
closed = 1;
nodes = (
"732 239 OFFCURVE",
"691 242 OFFCURVE",
"657 244 CURVE",
"715 305 OFFCURVE",
"779 372 OFFCURVE",
"836 434 CURVE",
"807 370 OFFCURVE",
"785 300 OFFCURVE",
"766 233 CURVE"
);
}
);
width = 879;
}
);
note = A;
unicode = 0041;
},
{
color = 11;
glyphname = Aacute;
lastChange = "2021-08-11 14:48:46 +0000";
layers = (
{
components = (
{
name = A;
},
{
name = acutecomb;
transform = "{1, 0, 0, 1, 750, 8}";
}
);
layerId = "57DEED6F-9A00-47D0-BD9B-6FE09716AB2D";
width = 750;
},
{
layerId = "A9A9B55F-A222-44B0-A0B6-968BE501F3F8";
paths = (
{
closed = 1;
nodes = (
"738 360 OFFCURVE",
"716 290 OFFCURVE",
"696 223 CURVE",
"666 229 OFFCURVE",
"630 232 OFFCURVE",
"599 234 CURVE",
"653 295 OFFCURVE",
"713 362 OFFCURVE",
"766 424 CURVE"
);
},
{
closed = 1;
nodes = (
"751 192 OFFCURVE",
"768 182 OFFCURVE",
"779 182 CURVE SMOOTH",
"788 182 OFFCURVE",
"795 179 OFFCURVE",
"795 191 CURVE SMOOTH",
"796 207 OFFCURVE",
"757 212 OFFCURVE",
"745 215 CURVE",
"786 338 OFFCURVE",
"840 452 OFFCURVE",
"912 558 CURVE",
"914 562 OFFCURVE",
"918 567 OFFCURVE",
"918 572 CURVE SMOOTH",
"919 582 OFFCURVE",
"912 587 OFFCURVE",
"903 587 CURVE SMOOTH",
"888 587 OFFCURVE",
"841 562 OFFCURVE",
"833 549 CURVE SMOOTH",
"817 527 OFFCURVE",
"804 501 OFFCURVE",
"792 477 CURVE",
"787 481 OFFCURVE",
"781 482 OFFCURVE",
"776 482 CURVE SMOOTH",
"770 482 OFFCURVE",
"765 479 OFFCURVE",
"761 475 CURVE SMOOTH",
"687 395 OFFCURVE",
"605 290 OFFCURVE",
"552 238 CURVE",
"418 239 OFFCURVE",
"180 248 OFFCURVE",
"71 153 CURVE SMOOTH",
"39 125 OFFCURVE",
"12 87 OFFCURVE",
"10 41 CURVE SMOOTH",
"7 -43 OFFCURVE",
"91 -67 OFFCURVE",
"153 -67 CURVE SMOOTH",
"309 -67 OFFCURVE",
"460 83 OFFCURVE",
"570 202 CURVE",
"595 204 OFFCURVE",
"652 208 OFFCURVE",
"692 203 CURVE",
"675 143 OFFCURVE",
"656 70 OFFCURVE",
"654 8 CURVE SMOOTH",
"653 -28 OFFCURVE",
"662 -61 OFFCURVE",
"700 -61 CURVE SMOOTH",
"715 -61 OFFCURVE",
"751 -47 OFFCURVE",
"773 -24 CURVE SMOOTH",
"780 -16 OFFCURVE",
"774 -2 OFFCURVE",
"767 -9 CURVE SMOOTH",
"754 -21 OFFCURVE",
"737 -32 OFFCURVE",
"723 -34 CURVE SMOOTH",
"700 -37 OFFCURVE",
"696 -28 OFFCURVE",
"696 -1 CURVE SMOOTH",
"699 61 OFFCURVE",
"721 135 OFFCURVE",
"739 194 CURVE"
);
},
{
closed = 1;
nodes = (
"410 102 OFFCURVE",
"258 -27 OFFCURVE",
"118 -29 CURVE SMOOTH",
"85 -30 OFFCURVE",
"30 -19 OFFCURVE",
"34 28 CURVE SMOOTH",
"53 191 OFFCURVE",
"407 202 OFFCURVE",
"519 204 CURVE"
);
},
{
closed = 1;
nodes = (
"920 620 OFFCURVE",
"1012 670 OFFCURVE",
"1027 679 CURVE SMOOTH",
"1034 683 OFFCURVE",
"1038 692 OFFCURVE",
"1038 701 CURVE SMOOTH",
"1039 710 OFFCURVE",
"1034 717 OFFCURVE",
"1025 717 CURVE SMOOTH",
"1009 717 OFFCURVE",
"910 645 OFFCURVE",
"905 641 CURVE SMOOTH",
"902 639 OFFCURVE",
"899 635 OFFCURVE",
"899 631 CURVE SMOOTH",
"899 624 OFFCURVE",
"905 620 OFFCURVE",
"910 620 CURVE SMOOTH"
);
}
);
width = 791;
},
{
layerId = "AFE3E0A9-A514-4B93-8E4E-B7D18C88F31C";
paths = (
{
closed = 1;
nodes = (
"807 360 OFFCURVE",
"785 290 OFFCURVE",
"766 223 CURVE",
"732 229 OFFCURVE",
"691 232 OFFCURVE",
"657 234 CURVE",
"715 295 OFFCURVE",
"779 362 OFFCURVE",
"836 424 CURVE"
);
},
{
closed = 1;
nodes = (
"828 192 OFFCURVE",
"847 182 OFFCURVE",
"859 182 CURVE SMOOTH",
"869 182 OFFCURVE",
"877 179 OFFCURVE",
"877 191 CURVE SMOOTH",
"877 207 OFFCURVE",
"833 212 OFFCURVE",
"820 215 CURVE",
"861 338 OFFCURVE",
"917 452 OFFCURVE",
"992 558 CURVE SMOOTH",
"995 562 OFFCURVE",
"999 567 OFFCURVE",
"999 572 CURVE SMOOTH",
"999 582 OFFCURVE",
"991 587 OFFCURVE",
"981 587 CURVE SMOOTH",
"965 587 OFFCURVE",
"913 562 OFFCURVE",
"904 549 CURVE SMOOTH",
"888 527 OFFCURVE",
"874 501 OFFCURVE",
"862 477 CURVE",
"857 481 OFFCURVE",
"850 482 OFFCURVE",
"844 482 CURVE SMOOTH",
"838 482 OFFCURVE",
"832 479 OFFCURVE",
"828 475 CURVE SMOOTH",
"749 395 OFFCURVE",
"661 290 OFFCURVE",
"605 238 CURVE",
"456 239 OFFCURVE",
"191 248 OFFCURVE",
"73 153 CURVE SMOOTH",
"39 125 OFFCURVE",
"10 87 OFFCURVE",
"10 41 CURVE SMOOTH",
"10 -43 OFFCURVE",
"105 -67 OFFCURVE",
"173 -67 CURVE SMOOTH",
"347 -67 OFFCURVE",
"509 83 OFFCURVE",
"626 202 CURVE",
"653 204 OFFCURVE",
"717 208 OFFCURVE",
"761 203 CURVE",
"746 143 OFFCURVE",
"727 70 OFFCURVE",
"727 8 CURVE SMOOTH",
"727 -28 OFFCURVE",
"739 -61 OFFCURVE",
"781 -61 CURVE SMOOTH",
"798 -61 OFFCURVE",
"837 -47 OFFCURVE",
"860 -24 CURVE SMOOTH",
"868 -16 OFFCURVE",
"861 -2 OFFCURVE",
"853 -9 CURVE SMOOTH",
"839 -21 OFFCURVE",
"821 -32 OFFCURVE",
"806 -34 CURVE SMOOTH",
"780 -37 OFFCURVE",
"775 -28 OFFCURVE",
"775 -1 CURVE SMOOTH",
"775 61 OFFCURVE",
"797 135 OFFCURVE",
"814 194 CURVE"
);
},
{
closed = 1;
nodes = (
"452 102 OFFCURVE",
"288 -27 OFFCURVE",
"133 -29 CURVE SMOOTH",
"97 -30 OFFCURVE",
"34 -19 OFFCURVE",
"38 28 CURVE SMOOTH",
"52 191 OFFCURVE",
"444 202 OFFCURVE",
"569 204 CURVE"
);
},
{
closed = 1;
nodes = (
"999 620 OFFCURVE",
"1100 670 OFFCURVE",
"1115 679 CURVE SMOOTH",
"1123 683 OFFCURVE",
"1128 692 OFFCURVE",
"1128 701 CURVE SMOOTH",
"1128 710 OFFCURVE",
"1122 717 OFFCURVE",
"1112 717 CURVE SMOOTH",
"1094 717 OFFCURVE",
"988 645 OFFCURVE",
"982 641 CURVE SMOOTH",
"979 639 OFFCURVE",
"975 635 OFFCURVE",
"975 631 CURVE SMOOTH",
"975 624 OFFCURVE",
"982 620 OFFCURVE",
"988 620 CURVE SMOOTH"
);
}
);
width = 879;
}
);
unicode = 00C1;
},
{
color = 11;
glyphname = Abreve;
lastChange = "2021-08-11 14:48:46 +0000";
layers = (
{
components = (
{
name = A;
},
{
name = brevecomb;
transform = "{1, 0, 0, 1, 744, 8}";
}
);
layerId = "57DEED6F-9A00-47D0-BD9B-6FE09716AB2D";
width = 750;
},
{
layerId = "A9A9B55F-A222-44B0-A0B6-968BE501F3F8";
paths = (
{
closed = 1;
nodes = (
"738 360 OFFCURVE",
"716 290 OFFCURVE",
"696 223 CURVE",
"666 229 OFFCURVE",
"630 232 OFFCURVE",
"599 234 CURVE",
"653 295 OFFCURVE",
"713 362 OFFCURVE",
"766 424 CURVE"
);
},
{
closed = 1;
nodes = (
"751 192 OFFCURVE",
"768 182 OFFCURVE",
"779 182 CURVE SMOOTH",
"788 182 OFFCURVE",
"795 179 OFFCURVE",
"795 191 CURVE SMOOTH",
"796 207 OFFCURVE",
"757 212 OFFCURVE",
"745 215 CURVE",
"786 338 OFFCURVE",
"840 452 OFFCURVE",
"912 558 CURVE",
"914 562 OFFCURVE",
"918 567 OFFCURVE",
"918 572 CURVE SMOOTH",
"919 582 OFFCURVE",
"912 587 OFFCURVE",
"903 587 CURVE SMOOTH",
"888 587 OFFCURVE",
"841 562 OFFCURVE",
"833 549 CURVE SMOOTH",
"817 527 OFFCURVE",
"804 501 OFFCURVE",
"792 477 CURVE",
"787 481 OFFCURVE",
"781 482 OFFCURVE",
"776 482 CURVE SMOOTH",
"770 482 OFFCURVE",
"765 479 OFFCURVE",
"761 475 CURVE SMOOTH",
"687 395 OFFCURVE",
"605 290 OFFCURVE",
"552 238 CURVE",
"418 239 OFFCURVE",
"180 248 OFFCURVE",
"71 153 CURVE SMOOTH",
"39 125 OFFCURVE",
"12 87 OFFCURVE",
"10 41 CURVE SMOOTH",
"7 -43 OFFCURVE",
"91 -67 OFFCURVE",
"153 -67 CURVE SMOOTH",
"309 -67 OFFCURVE",
"460 83 OFFCURVE",
"570 202 CURVE",
"595 204 OFFCURVE",
"652 208 OFFCURVE",
"692 203 CURVE",
"675 143 OFFCURVE",
"656 70 OFFCURVE",
"654 8 CURVE SMOOTH",
"653 -28 OFFCURVE",
"662 -61 OFFCURVE",
"700 -61 CURVE SMOOTH",
"715 -61 OFFCURVE",
"751 -47 OFFCURVE",
"773 -24 CURVE SMOOTH",
"780 -16 OFFCURVE",
"774 -2 OFFCURVE",
"767 -9 CURVE SMOOTH",
"754 -21 OFFCURVE",
"737 -32 OFFCURVE",
"723 -34 CURVE SMOOTH",
"700 -37 OFFCURVE",
"696 -28 OFFCURVE",
"696 -1 CURVE SMOOTH",
"699 61 OFFCURVE",
"721 135 OFFCURVE",
"739 194 CURVE"
);
},
{
closed = 1;
nodes = (
"410 102 OFFCURVE",
"258 -27 OFFCURVE",
"118 -29 CURVE SMOOTH",
"85 -30 OFFCURVE",
"30 -19 OFFCURVE",
"34 28 CURVE SMOOTH",
"53 191 OFFCURVE",
"407 202 OFFCURVE",
"519 204 CURVE"
);
},
{
closed = 1;
nodes = (
"961 630 OFFCURVE",
"1023 675 OFFCURVE",
"1031 707 CURVE",
"1032 720 OFFCURVE",
"1022 718 OFFCURVE",
"1016 711 CURVE SMOOTH",
"992 685 OFFCURVE",
"945 657 OFFCURVE",
"914 657 CURVE SMOOTH",
"899 657 OFFCURVE",
"881 658 OFFCURVE",
"870 669 CURVE SMOOTH",
"863 675 OFFCURVE",
"855 684 OFFCURVE",
"854 701 CURVE SMOOTH",
"853 709 OFFCURVE",
"844 715 OFFCURVE",
"841 715 CURVE SMOOTH",
"828 715 OFFCURVE",
"822 705 OFFCURVE",
"822 694 CURVE SMOOTH",
"820 647 OFFCURVE",
"870 630 OFFCURVE",
"906 630 CURVE SMOOTH"
);
}
);
width = 835;
},
{
layerId = "AFE3E0A9-A514-4B93-8E4E-B7D18C88F31C";
paths = (
{
closed = 1;
nodes = (
"807 360 OFFCURVE",
"785 290 OFFCURVE",
"766 223 CURVE",
"732 229 OFFCURVE",
"691 232 OFFCURVE",
"657 234 CURVE",
"715 295 OFFCURVE",
"779 362 OFFCURVE",
"836 424 CURVE"
);
},
{
closed = 1;
nodes = (
"828 192 OFFCURVE",
"847 182 OFFCURVE",
"859 182 CURVE SMOOTH",
"869 182 OFFCURVE",
"877 179 OFFCURVE",
"877 191 CURVE SMOOTH",
"877 207 OFFCURVE",
"833 212 OFFCURVE",
"820 215 CURVE",
"861 338 OFFCURVE",
"917 452 OFFCURVE",
"992 558 CURVE SMOOTH",
"995 562 OFFCURVE",
"999 567 OFFCURVE",
"999 572 CURVE SMOOTH",
"999 582 OFFCURVE",
"991 587 OFFCURVE",
"981 587 CURVE SMOOTH",
"965 587 OFFCURVE",
"913 562 OFFCURVE",
"904 549 CURVE SMOOTH",
"888 527 OFFCURVE",
"874 501 OFFCURVE",
"862 477 CURVE",
"857 481 OFFCURVE",
"850 482 OFFCURVE",
"844 482 CURVE SMOOTH",
"838 482 OFFCURVE",
"832 479 OFFCURVE",
"828 475 CURVE SMOOTH",
"749 395 OFFCURVE",
"661 290 OFFCURVE",
"605 238 CURVE",
"456 239 OFFCURVE",
"191 248 OFFCURVE",
"73 153 CURVE SMOOTH",
"39 125 OFFCURVE",
"10 87 OFFCURVE",
"10 41 CURVE SMOOTH",
"10 -43 OFFCURVE",
"105 -67 OFFCURVE",
"173 -67 CURVE SMOOTH",
"347 -67 OFFCURVE",
"509 83 OFFCURVE",
"626 202 CURVE",
"653 204 OFFCURVE",
"717 208 OFFCURVE",
"761 203 CURVE",
"746 143 OFFCURVE",
"727 70 OFFCURVE",
"727 8 CURVE SMOOTH",
"727 -28 OFFCURVE",
"739 -61 OFFCURVE",
"781 -61 CURVE SMOOTH",
"798 -61 OFFCURVE",
"837 -47 OFFCURVE",
"860 -24 CURVE SMOOTH",
"868 -16 OFFCURVE",
"861 -2 OFFCURVE",
"853 -9 CURVE SMOOTH",
"839 -21 OFFCURVE",
"821 -32 OFFCURVE",
"806 -34 CURVE SMOOTH",
"780 -37 OFFCURVE",
"775 -28 OFFCURVE",
"775 -1 CURVE SMOOTH",
"775 61 OFFCURVE",
"797 135 OFFCURVE",
"814 194 CURVE"
);
},
{
closed = 1;
nodes = (
"452 102 OFFCURVE",
"288 -27 OFFCURVE",
"133 -29 CURVE SMOOTH",
"97 -30 OFFCURVE",
"34 -19 OFFCURVE",
"38 28 CURVE SMOOTH",
"52 191 OFFCURVE",
"444 202 OFFCURVE",
"569 204 CURVE"
);
},
{
closed = 1;
nodes = (
"1045 630 OFFCURVE",
"1111 675 OFFCURVE",
"1119 707 CURVE",
"1119 720 OFFCURVE",
"1109 718 OFFCURVE",
"1102 711 CURVE SMOOTH",
"1077 685 OFFCURVE",
"1026 657 OFFCURVE",
"991 657 CURVE SMOOTH",
"974 657 OFFCURVE",
"954 658 OFFCURVE",
"941 669 CURVE SMOOTH",
"933 675 OFFCURVE",
"925 684 OFFCURVE",
"922 701 CURVE SMOOTH",
"921 709 OFFCURVE",
"911 715 OFFCURVE",
"908 715 CURVE SMOOTH",
"893 715 OFFCURVE",
"887 705 OFFCURVE",
"887 694 CURVE SMOOTH",
"887 647 OFFCURVE",
"943 630 OFFCURVE",
"983 630 CURVE SMOOTH"
);
}
);
width = 928;
}
);
unicode = 0102;
},
{
color = 11;
glyphname = Acircumflex;
lastChange = "2021-08-11 14:48:46 +0000";
layers = (
{
components = (
{
name = A;
},
{
name = circumflexcomb;
transform = "{1, 0, 0, 1, 716, 8}";
}
);
layerId = "57DEED6F-9A00-47D0-BD9B-6FE09716AB2D";
width = 750;
},
{
layerId = "A9A9B55F-A222-44B0-A0B6-968BE501F3F8";
paths = (
{
closed = 1;
nodes = (
"738 360 OFFCURVE",
"716 290 OFFCURVE",
"696 223 CURVE",
"666 229 OFFCURVE",
"630 232 OFFCURVE",
"599 234 CURVE",
"653 295 OFFCURVE",
"713 362 OFFCURVE",
"766 424 CURVE"
);
},
{
closed = 1;
nodes = (
"751 192 OFFCURVE",
"768 182 OFFCURVE",
"779 182 CURVE SMOOTH",
"788 182 OFFCURVE",
"795 179 OFFCURVE",
"795 191 CURVE SMOOTH",
"796 207 OFFCURVE",
"757 212 OFFCURVE",
"745 215 CURVE",
"786 338 OFFCURVE",
"840 452 OFFCURVE",
"912 558 CURVE",
"914 562 OFFCURVE",
"918 567 OFFCURVE",
"918 572 CURVE SMOOTH",
"919 582 OFFCURVE",
"912 587 OFFCURVE",
"903 587 CURVE SMOOTH",
"888 587 OFFCURVE",
"841 562 OFFCURVE",
"833 549 CURVE SMOOTH",
"817 527 OFFCURVE",
"804 501 OFFCURVE",
"792 477 CURVE",
"787 481 OFFCURVE",
"781 482 OFFCURVE",
"776 482 CURVE SMOOTH",
"770 482 OFFCURVE",
"765 479 OFFCURVE",
"761 475 CURVE SMOOTH",
"687 395 OFFCURVE",
"605 290 OFFCURVE",
"552 238 CURVE",
"418 239 OFFCURVE",
"180 248 OFFCURVE",
"71 153 CURVE SMOOTH",
"39 125 OFFCURVE",
"12 87 OFFCURVE",
"10 41 CURVE SMOOTH",
"7 -43 OFFCURVE",
"91 -67 OFFCURVE",
"153 -67 CURVE SMOOTH",
"309 -67 OFFCURVE",
"460 83 OFFCURVE",
"570 202 CURVE",
"595 204 OFFCURVE",
"652 208 OFFCURVE",
"692 203 CURVE",
"675 143 OFFCURVE",
"656 70 OFFCURVE",
"654 8 CURVE SMOOTH",
"653 -28 OFFCURVE",
"662 -61 OFFCURVE",
"700 -61 CURVE SMOOTH",
"715 -61 OFFCURVE",
"751 -47 OFFCURVE",
"773 -24 CURVE SMOOTH",
"780 -16 OFFCURVE",
"774 -2 OFFCURVE",
"767 -9 CURVE SMOOTH",
"754 -21 OFFCURVE",
"737 -32 OFFCURVE",
"723 -34 CURVE SMOOTH",
"700 -37 OFFCURVE",
"696 -28 OFFCURVE",
"696 -1 CURVE SMOOTH",
"699 61 OFFCURVE",
"721 135 OFFCURVE",
"739 194 CURVE"
);
},
{
closed = 1;
nodes = (
"410 102 OFFCURVE",
"258 -27 OFFCURVE",
"118 -29 CURVE SMOOTH",
"85 -30 OFFCURVE",
"30 -19 OFFCURVE",
"34 28 CURVE SMOOTH",
"53 191 OFFCURVE",
"407 202 OFFCURVE",
"519 204 CURVE"
);
},
{
closed = 1;
nodes = (
"972 650 OFFCURVE",
"944 679 OFFCURVE",
"936 694 CURVE SMOOTH",
"925 713 OFFCURVE",
"903 694 OFFCURVE",
"849 662 CURVE SMOOTH",
"806 635 OFFCURVE",
"777 613 OFFCURVE",
"776 608 CURVE SMOOTH",
"774 603 OFFCURVE",
"776 601 OFFCURVE",
"781 601 CURVE SMOOTH",
"787 601 OFFCURVE",
"824 620 OFFCURVE",
"896 664 CURVE",
"902 654 OFFCURVE",
"916 640 OFFCURVE",
"939 623 CURVE SMOOTH",
"941 622 OFFCURVE",
"962 604 OFFCURVE",
"978 598 CURVE",
"992 589 OFFCURVE",
"1015 604 OFFCURVE",
"1005 617 CURVE"
);
}
);
width = 791;
},
{
layerId = "AFE3E0A9-A514-4B93-8E4E-B7D18C88F31C";
paths = (
{
closed = 1;
nodes = (
"807 360 OFFCURVE",
"785 290 OFFCURVE",
"766 223 CURVE",
"732 229 OFFCURVE",
"691 232 OFFCURVE",
"657 234 CURVE",
"715 295 OFFCURVE",
"779 362 OFFCURVE",
"836 424 CURVE"
);
},
{
closed = 1;
nodes = (
"828 192 OFFCURVE",
"847 182 OFFCURVE",
"859 182 CURVE SMOOTH",
"869 182 OFFCURVE",
"877 179 OFFCURVE",
"877 191 CURVE SMOOTH",
"877 207 OFFCURVE",
"833 212 OFFCURVE",
"820 215 CURVE",
"861 338 OFFCURVE",
"917 452 OFFCURVE",
"992 558 CURVE SMOOTH",
"995 562 OFFCURVE",
"999 567 OFFCURVE",
"999 572 CURVE SMOOTH",
"999 582 OFFCURVE",
"991 587 OFFCURVE",
"981 587 CURVE SMOOTH",
"965 587 OFFCURVE",
"913 562 OFFCURVE",
"904 549 CURVE SMOOTH",
"888 527 OFFCURVE",
"874 501 OFFCURVE",
"862 477 CURVE",
"857 481 OFFCURVE",
"850 482 OFFCURVE",
"844 482 CURVE SMOOTH",
"838 482 OFFCURVE",
"832 479 OFFCURVE",
"828 475 CURVE SMOOTH",
"749 395 OFFCURVE",
"661 290 OFFCURVE",
"605 238 CURVE",
"456 239 OFFCURVE",
"191 248 OFFCURVE",
"73 153 CURVE SMOOTH",
"39 125 OFFCURVE",
"10 87 OFFCURVE",
"10 41 CURVE SMOOTH",
"10 -43 OFFCURVE",
"105 -67 OFFCURVE",
"173 -67 CURVE SMOOTH",
"347 -67 OFFCURVE",
"509 83 OFFCURVE",
"626 202 CURVE",
"653 204 OFFCURVE",
"717 208 OFFCURVE",
"761 203 CURVE",
"746 143 OFFCURVE",
"727 70 OFFCURVE",
"727 8 CURVE SMOOTH",
"727 -28 OFFCURVE",
"739 -61 OFFCURVE",
"781 -61 CURVE SMOOTH",
"798 -61 OFFCURVE",
"837 -47 OFFCURVE",
"860 -24 CURVE SMOOTH",
"868 -16 OFFCURVE",
"861 -2 OFFCURVE",
"853 -9 CURVE SMOOTH",
"839 -21 OFFCURVE",
"821 -32 OFFCURVE",
"806 -34 CURVE SMOOTH",
"780 -37 OFFCURVE",
"775 -28 OFFCURVE",
"775 -1 CURVE SMOOTH",
"775 61 OFFCURVE",
"797 135 OFFCURVE",
"814 194 CURVE"
);
},
{
closed = 1;
nodes = (
"452 102 OFFCURVE",
"288 -27 OFFCURVE",
"133 -29 CURVE SMOOTH",
"97 -30 OFFCURVE",
"34 -19 OFFCURVE",
"38 28 CURVE SMOOTH",
"52 191 OFFCURVE",
"444 202 OFFCURVE",
"569 204 CURVE"
);
},
{
closed = 1;
nodes = (
"1055 650 OFFCURVE",
"1023 679 OFFCURVE",
"1014 694 CURVE SMOOTH",
"1001 713 OFFCURVE",
"977 694 OFFCURVE",
"919 662 CURVE SMOOTH",
"872 635 OFFCURVE",
"841 613 OFFCURVE",
"840 608 CURVE",
"837 603 OFFCURVE",
"840 601 OFFCURVE",
"845 601 CURVE SMOOTH",
"852 601 OFFCURVE",
"893 620 OFFCURVE",
"971 664 CURVE",
"978 654 OFFCURVE",
"994 640 OFFCURVE",
"1020 623 CURVE SMOOTH",
"1022 622 OFFCURVE",
"1046 604 OFFCURVE",
"1064 598 CURVE",
"1081 589 OFFCURVE",
"1105 604 OFFCURVE",
"1094 617 CURVE"
);
}
);
width = 879;
}
);
unicode = 00C2;
},
{
color = 11;
glyphname = Adieresis;
lastChange = "2021-08-11 14:48:46 +0000";
layers = (
{
components = (
{
name = A;
},
{
name = dieresiscomb;
transform = "{1, 0, 0, 1, 731, 8}";
}
);
layerId = "57DEED6F-9A00-47D0-BD9B-6FE09716AB2D";
width = 750;
},
{
components = (
{
name = A;
}
);
layerId = "A9A9B55F-A222-44B0-A0B6-968BE501F3F8";
paths = (
{
closed = 1;
nodes = (
"797 627 OFFCURVE",
"808 613 OFFCURVE",
"825 613 CURVE SMOOTH",
"842 613 OFFCURVE",
"858 627 OFFCURVE",
"861 645 CURVE SMOOTH",
"864 663 OFFCURVE",
"853 677 OFFCURVE",
"836 677 CURVE SMOOTH",
"818 677 OFFCURVE",
"802 663 OFFCURVE",
"800 645 CURVE SMOOTH"
);
},
{
closed = 1;
nodes = (
"934 627 OFFCURVE",
"945 613 OFFCURVE",
"962 613 CURVE SMOOTH",
"979 613 OFFCURVE",
"995 627 OFFCURVE",
"998 645 CURVE SMOOTH",
"1001 663 OFFCURVE",
"990 677 OFFCURVE",
"973 677 CURVE SMOOTH",
"955 677 OFFCURVE",
"939 663 OFFCURVE",
"937 645 CURVE SMOOTH"
);
}
);
width = 791;
},
{
layerId = "AFE3E0A9-A514-4B93-8E4E-B7D18C88F31C";
paths = (
{
closed = 1;
nodes = (
"807 360 OFFCURVE",
"785 290 OFFCURVE",
"766 223 CURVE",
"732 229 OFFCURVE",
"691 232 OFFCURVE",
"657 234 CURVE",
"715 295 OFFCURVE",
"779 362 OFFCURVE",
"836 424 CURVE"
);
},
{
closed = 1;
nodes = (
"828 192 OFFCURVE",
"847 182 OFFCURVE",
"859 182 CURVE SMOOTH",
"869 182 OFFCURVE",
"877 179 OFFCURVE",
"877 191 CURVE SMOOTH",
"877 207 OFFCURVE",
"833 212 OFFCURVE",
"820 215 CURVE",
"861 338 OFFCURVE",
"917 452 OFFCURVE",
"992 558 CURVE SMOOTH",
"995 562 OFFCURVE",
"999 567 OFFCURVE",
"999 572 CURVE SMOOTH",
"999 582 OFFCURVE",
"991 587 OFFCURVE",
"981 587 CURVE SMOOTH",
"965 587 OFFCURVE",
"913 562 OFFCURVE",
"904 549 CURVE SMOOTH",
"888 527 OFFCURVE",
"874 501 OFFCURVE",
"862 477 CURVE",
"857 481 OFFCURVE",
"850 482 OFFCURVE",
"844 482 CURVE SMOOTH",
"838 482 OFFCURVE",
"832 479 OFFCURVE",
"828 475 CURVE SMOOTH",
"749 395 OFFCURVE",
"661 290 OFFCURVE",
"605 238 CURVE",
"456 239 OFFCURVE",
"191 248 OFFCURVE",
"73 153 CURVE SMOOTH",
"39 125 OFFCURVE",
"10 87 OFFCURVE",
"10 41 CURVE SMOOTH",
"10 -43 OFFCURVE",
"105 -67 OFFCURVE",
"173 -67 CURVE SMOOTH",
"347 -67 OFFCURVE",
"509 83 OFFCURVE",
"626 202 CURVE",
"653 204 OFFCURVE",
"717 208 OFFCURVE",
"761 203 CURVE",
"746 143 OFFCURVE",
"727 70 OFFCURVE",
"727 8 CURVE SMOOTH",
"727 -28 OFFCURVE",
"739 -61 OFFCURVE",
"781 -61 CURVE SMOOTH",
"798 -61 OFFCURVE",
"837 -47 OFFCURVE",
"860 -24 CURVE SMOOTH",
"868 -16 OFFCURVE",
"861 -2 OFFCURVE",
"853 -9 CURVE SMOOTH",
"839 -21 OFFCURVE",
"821 -32 OFFCURVE",
"806 -34 CURVE SMOOTH",
"780 -37 OFFCURVE",
"775 -28 OFFCURVE",
"775 -1 CURVE SMOOTH",
"775 61 OFFCURVE",
"797 135 OFFCURVE",
"814 194 CURVE"
);
},
{
closed = 1;
nodes = (
"452 102 OFFCURVE",
"288 -27 OFFCURVE",
"133 -29 CURVE SMOOTH",
"97 -30 OFFCURVE",
"34 -19 OFFCURVE",
"38 28 CURVE SMOOTH",
"52 191 OFFCURVE",
"444 202 OFFCURVE",
"569 204 CURVE"
);
},
{
closed = 1;
nodes = (
"863 627 OFFCURVE",
"876 613 OFFCURVE",
"895 613 CURVE SMOOTH",
"914 613 OFFCURVE",
"931 627 OFFCURVE",
"933 645 CURVE SMOOTH",
"936 663 OFFCURVE",
"923 677 OFFCURVE",
"904 677 CURVE SMOOTH",
"884 677 OFFCURVE",
"867 663 OFFCURVE",
"865 645 CURVE SMOOTH"
);
},
{
closed = 1;
nodes = (
"1015 627 OFFCURVE",
"1028 613 OFFCURVE",
"1047 613 CURVE SMOOTH",
"1066 613 OFFCURVE",
"1083 627 OFFCURVE",
"1085 645 CURVE SMOOTH",
"1088 663 OFFCURVE",
"1075 677 OFFCURVE",
"1056 677 CURVE SMOOTH",
"1036 677 OFFCURVE",
"1019 663 OFFCURVE",
"1017 645 CURVE SMOOTH"
);
}
);
width = 879;
}
);
unicode = 00C4;
},
{
color = 11;
glyphname = Agrave;
lastChange = "2021-08-11 14:48:46 +0000";
layers = (
{
components = (
{
name = A;
},
{
name = gravecomb;
transform = "{1, 0, 0, 1, 750, 8}";
}
);
layerId = "57DEED6F-9A00-47D0-BD9B-6FE09716AB2D";
width = 750;
},
{
layerId = "A9A9B55F-A222-44B0-A0B6-968BE501F3F8";
paths = (
{
closed = 1;
nodes = (
"738 360 OFFCURVE",
"716 290 OFFCURVE",
"696 223 CURVE",
"666 229 OFFCURVE",
"630 232 OFFCURVE",
"599 234 CURVE",
"653 295 OFFCURVE",
"713 362 OFFCURVE",
"766 424 CURVE"
);
},
{
closed = 1;
nodes = (
"751 192 OFFCURVE",
"768 182 OFFCURVE",
"779 182 CURVE SMOOTH",
"788 182 OFFCURVE",
"795 179 OFFCURVE",
"795 191 CURVE SMOOTH",
"796 207 OFFCURVE",
"757 212 OFFCURVE",
"745 215 CURVE",
"786 338 OFFCURVE",
"840 452 OFFCURVE",
"912 558 CURVE",
"914 562 OFFCURVE",
"918 567 OFFCURVE",
"918 572 CURVE SMOOTH",
"919 582 OFFCURVE",
"912 587 OFFCURVE",
"903 587 CURVE SMOOTH",
"888 587 OFFCURVE",
"841 562 OFFCURVE",
"833 549 CURVE SMOOTH",
"817 527 OFFCURVE",
"804 501 OFFCURVE",
"792 477 CURVE",
"787 481 OFFCURVE",
"781 482 OFFCURVE",
"776 482 CURVE SMOOTH",
"770 482 OFFCURVE",
"765 479 OFFCURVE",
"761 475 CURVE SMOOTH",
"687 395 OFFCURVE",
"605 290 OFFCURVE",
"552 238 CURVE",
"418 239 OFFCURVE",
"180 248 OFFCURVE",
"71 153 CURVE SMOOTH",
"39 125 OFFCURVE",
"12 87 OFFCURVE",
"10 41 CURVE SMOOTH",
"7 -43 OFFCURVE",
"91 -67 OFFCURVE",
"153 -67 CURVE SMOOTH",
"309 -67 OFFCURVE",
"460 83 OFFCURVE",
"570 202 CURVE",
"595 204 OFFCURVE",
"652 208 OFFCURVE",
"692 203 CURVE",
"675 143 OFFCURVE",
"656 70 OFFCURVE",
"654 8 CURVE SMOOTH",
"653 -28 OFFCURVE",
"662 -61 OFFCURVE",
"700 -61 CURVE SMOOTH",
"715 -61 OFFCURVE",
"751 -47 OFFCURVE",
"773 -24 CURVE SMOOTH",
"780 -16 OFFCURVE",
"774 -2 OFFCURVE",
"767 -9 CURVE SMOOTH",
"754 -21 OFFCURVE",
"737 -32 OFFCURVE",
"723 -34 CURVE SMOOTH",
"700 -37 OFFCURVE",
"696 -28 OFFCURVE",
"696 -1 CURVE SMOOTH",
"699 61 OFFCURVE",
"721 135 OFFCURVE",
"739 194 CURVE"
);
},
{
closed = 1;
nodes = (
"410 102 OFFCURVE",
"258 -27 OFFCURVE",
"118 -29 CURVE SMOOTH",
"85 -30 OFFCURVE",
"30 -19 OFFCURVE",
"34 28 CURVE SMOOTH",
"53 191 OFFCURVE",
"407 202 OFFCURVE",
"519 204 CURVE"
);
},
{
closed = 1;
nodes = (
"918 617 OFFCURVE",
"926 620 OFFCURVE",
"926 628 CURVE SMOOTH",
"927 640 OFFCURVE",
"800 731 OFFCURVE",
"783 731 CURVE SMOOTH",
"772 731 OFFCURVE",
"766 724 OFFCURVE",
"765 712 CURVE SMOOTH",
"764 683 OFFCURVE",
"901 617 OFFCURVE",
"911 617 CURVE SMOOTH"
);
}
);
width = 791;
},
{
layerId = "AFE3E0A9-A514-4B93-8E4E-B7D18C88F31C";
paths = (
{
closed = 1;
nodes = (
"807 360 OFFCURVE",
"785 290 OFFCURVE",
"766 223 CURVE",
"732 229 OFFCURVE",
"691 232 OFFCURVE",
"657 234 CURVE",
"715 295 OFFCURVE",
"779 362 OFFCURVE",
"836 424 CURVE"
);
},
{
closed = 1;
nodes = (
"828 192 OFFCURVE",
"847 182 OFFCURVE",
"859 182 CURVE SMOOTH",
"869 182 OFFCURVE",
"877 179 OFFCURVE",
"877 191 CURVE SMOOTH",
"877 207 OFFCURVE",
"833 212 OFFCURVE",
"820 215 CURVE",
"861 338 OFFCURVE",
"917 452 OFFCURVE",
"992 558 CURVE SMOOTH",
"995 562 OFFCURVE",
"999 567 OFFCURVE",
"999 572 CURVE SMOOTH",
"999 582 OFFCURVE",
"991 587 OFFCURVE",
"981 587 CURVE SMOOTH",
"965 587 OFFCURVE",
"913 562 OFFCURVE",
"904 549 CURVE SMOOTH",
"888 527 OFFCURVE",
"874 501 OFFCURVE",
"862 477 CURVE",
"857 481 OFFCURVE",
"850 482 OFFCURVE",
"844 482 CURVE SMOOTH",
"838 482 OFFCURVE",
"832 479 OFFCURVE",
"828 475 CURVE SMOOTH",
"749 395 OFFCURVE",
"661 290 OFFCURVE",
"605 238 CURVE",
"456 239 OFFCURVE",
"191 248 OFFCURVE",
"73 153 CURVE SMOOTH",
"39 125 OFFCURVE",
"10 87 OFFCURVE",
"10 41 CURVE SMOOTH",
"10 -43 OFFCURVE",
"105 -67 OFFCURVE",
"173 -67 CURVE SMOOTH",
"347 -67 OFFCURVE",
"509 83 OFFCURVE",
"626 202 CURVE",
"653 204 OFFCURVE",
"717 208 OFFCURVE",
"761 203 CURVE",
"746 143 OFFCURVE",
"727 70 OFFCURVE",
"727 8 CURVE SMOOTH",
"727 -28 OFFCURVE",
"739 -61 OFFCURVE",
"781 -61 CURVE SMOOTH",
"798 -61 OFFCURVE",
"837 -47 OFFCURVE",
"860 -24 CURVE SMOOTH",
"868 -16 OFFCURVE",
"861 -2 OFFCURVE",
"853 -9 CURVE SMOOTH",
"839 -21 OFFCURVE",
"821 -32 OFFCURVE",
"806 -34 CURVE SMOOTH",
"780 -37 OFFCURVE",
"775 -28 OFFCURVE",
"775 -1 CURVE SMOOTH",
"775 61 OFFCURVE",
"797 135 OFFCURVE",
"814 194 CURVE"
);
},
{
closed = 1;
nodes = (
"452 102 OFFCURVE",
"288 -27 OFFCURVE",
"133 -29 CURVE SMOOTH",
"97 -30 OFFCURVE",
"34 -19 OFFCURVE",
"38 28 CURVE SMOOTH",
"52 191 OFFCURVE",
"444 202 OFFCURVE",
"569 204 CURVE"
);
},
{
closed = 1;
nodes = (
"997 617 OFFCURVE",
"1006 620 OFFCURVE",
"1006 628 CURVE SMOOTH",
"1006 640 OFFCURVE",
"862 731 OFFCURVE",
"843 731 CURVE SMOOTH",
"831 731 OFFCURVE",
"824 724 OFFCURVE",
"824 712 CURVE SMOOTH",
"824 683 OFFCURVE",
"978 617 OFFCURVE",
"990 617 CURVE SMOOTH"
);
}
);
width = 879;
}
);
unicode = 00C0;
},
{
color = 11;
glyphname = Amacron;
lastChange = "2021-08-11 14:48:46 +0000";
layers = (
{
components = (
{
name = A;
},
{
name = macroncomb;
transform = "{1, 0, 0, 1, 707, 8}";
}
);
layerId = "57DEED6F-9A00-47D0-BD9B-6FE09716AB2D";
width = 750;
},
{
layerId = "A9A9B55F-A222-44B0-A0B6-968BE501F3F8";
paths = (
{
closed = 1;
nodes = (
"738 360 OFFCURVE",
"716 290 OFFCURVE",
"696 223 CURVE",
"666 229 OFFCURVE",
"630 232 OFFCURVE",
"599 234 CURVE",
"653 295 OFFCURVE",
"713 362 OFFCURVE",
"766 424 CURVE"
);
},
{
closed = 1;
nodes = (
"751 192 OFFCURVE",
"768 182 OFFCURVE",
"779 182 CURVE SMOOTH",
"788 182 OFFCURVE",
"795 179 OFFCURVE",
"795 191 CURVE SMOOTH",
"796 207 OFFCURVE",
"757 212 OFFCURVE",
"745 215 CURVE",
"786 338 OFFCURVE",
"840 452 OFFCURVE",
"912 558 CURVE",
"914 562 OFFCURVE",
"918 567 OFFCURVE",
"918 572 CURVE SMOOTH",
"919 582 OFFCURVE",
"912 587 OFFCURVE",
"903 587 CURVE SMOOTH",
"888 587 OFFCURVE",
"841 562 OFFCURVE",
"833 549 CURVE SMOOTH",
"817 527 OFFCURVE",
"804 501 OFFCURVE",
"792 477 CURVE",
"787 481 OFFCURVE",
"781 482 OFFCURVE",
"776 482 CURVE SMOOTH",
"770 482 OFFCURVE",
"765 479 OFFCURVE",
"761 475 CURVE SMOOTH",
"687 395 OFFCURVE",
"605 290 OFFCURVE",
"552 238 CURVE",
"418 239 OFFCURVE",
"180 248 OFFCURVE",
"71 153 CURVE SMOOTH",
"39 125 OFFCURVE",
"12 87 OFFCURVE",
"10 41 CURVE SMOOTH",
"7 -43 OFFCURVE",
"91 -67 OFFCURVE",
"153 -67 CURVE SMOOTH",
"309 -67 OFFCURVE",
"460 83 OFFCURVE",
"570 202 CURVE",
"595 204 OFFCURVE",
"652 208 OFFCURVE",
"692 203 CURVE",
"675 143 OFFCURVE",
"656 70 OFFCURVE",
"654 8 CURVE SMOOTH",
"653 -28 OFFCURVE",
"662 -61 OFFCURVE",
"700 -61 CURVE SMOOTH",
"715 -61 OFFCURVE",
"751 -47 OFFCURVE",
"773 -24 CURVE SMOOTH",
"780 -16 OFFCURVE",
"774 -2 OFFCURVE",
"767 -9 CURVE SMOOTH",
"754 -21 OFFCURVE",
"737 -32 OFFCURVE",
"723 -34 CURVE SMOOTH",
"700 -37 OFFCURVE",
"696 -28 OFFCURVE",
"696 -1 CURVE SMOOTH",
"699 61 OFFCURVE",
"721 135 OFFCURVE",
"739 194 CURVE"
);
},
{
closed = 1;
nodes = (
"410 102 OFFCURVE",
"258 -27 OFFCURVE",
"118 -29 CURVE SMOOTH",
"85 -30 OFFCURVE",
"30 -19 OFFCURVE",
"34 28 CURVE SMOOTH",
"53 191 OFFCURVE",
"407 202 OFFCURVE",
"519 204 CURVE"
);
},
{
closed = 1;
nodes = (
"881 627 OFFCURVE",
"931 638 OFFCURVE",
"983 638 CURVE SMOOTH",
"991 638 OFFCURVE",
"1030 638 OFFCURVE",
"1031 653 CURVE SMOOTH",
"1031 674 OFFCURVE",
"911 677 OFFCURVE",
"893 677 CURVE SMOOTH",
"874 677 OFFCURVE",
"797 670 OFFCURVE",
"796 640 CURVE SMOOTH",
"796 626 OFFCURVE",
"821 627 OFFCURVE",
"830 627 CURVE SMOOTH"
);
}
);
width = 791;
},
{
layerId = "AFE3E0A9-A514-4B93-8E4E-B7D18C88F31C";
paths = (
{
closed = 1;
nodes = (
"807 360 OFFCURVE",
"785 290 OFFCURVE",
"766 223 CURVE",
"732 229 OFFCURVE",
"691 232 OFFCURVE",
"657 234 CURVE",
"715 295 OFFCURVE",
"779 362 OFFCURVE",
"836 424 CURVE"
);
},
{
closed = 1;
nodes = (
"828 192 OFFCURVE",
"847 182 OFFCURVE",
"859 182 CURVE SMOOTH",
"869 182 OFFCURVE",
"877 179 OFFCURVE",
"877 191 CURVE SMOOTH",
"877 207 OFFCURVE",
"833 212 OFFCURVE",
"820 215 CURVE",
"861 338 OFFCURVE",
"917 452 OFFCURVE",
"992 558 CURVE SMOOTH",
"995 562 OFFCURVE",
"999 567 OFFCURVE",
"999 572 CURVE SMOOTH",
"999 582 OFFCURVE",
"991 587 OFFCURVE",
"981 587 CURVE SMOOTH",
"965 587 OFFCURVE",
"913 562 OFFCURVE",
"904 549 CURVE SMOOTH",
"888 527 OFFCURVE",
"874 501 OFFCURVE",
"862 477 CURVE",
"857 481 OFFCURVE",
"850 482 OFFCURVE",
"844 482 CURVE SMOOTH",
"838 482 OFFCURVE",
"832 479 OFFCURVE",
"828 475 CURVE SMOOTH",
"749 395 OFFCURVE",
"661 290 OFFCURVE",
"605 238 CURVE",
"456 239 OFFCURVE",
"191 248 OFFCURVE",
"73 153 CURVE SMOOTH",
"39 125 OFFCURVE",
"10 87 OFFCURVE",
"10 41 CURVE SMOOTH",
"10 -43 OFFCURVE",
"105 -67 OFFCURVE",
"173 -67 CURVE SMOOTH",
"347 -67 OFFCURVE",
"509 83 OFFCURVE",
"626 202 CURVE",
"653 204 OFFCURVE",
"717 208 OFFCURVE",
"761 203 CURVE",
"746 143 OFFCURVE",
"727 70 OFFCURVE",
"727 8 CURVE SMOOTH",
"727 -28 OFFCURVE",
"739 -61 OFFCURVE",
"781 -61 CURVE SMOOTH",
"798 -61 OFFCURVE",
"837 -47 OFFCURVE",
"860 -24 CURVE SMOOTH",
"868 -16 OFFCURVE",
"861 -2 OFFCURVE",
"853 -9 CURVE SMOOTH",
"839 -21 OFFCURVE",
"821 -32 OFFCURVE",
"806 -34 CURVE SMOOTH",
"780 -37 OFFCURVE",
"775 -28 OFFCURVE",
"775 -1 CURVE SMOOTH",
"775 61 OFFCURVE",
"797 135 OFFCURVE",
"814 194 CURVE"
);
},
{
closed = 1;
nodes = (
"452 102 OFFCURVE",
"288 -27 OFFCURVE",
"133 -29 CURVE SMOOTH",
"97 -30 OFFCURVE",
"34 -19 OFFCURVE",
"38 28 CURVE SMOOTH",
"52 191 OFFCURVE",
"444 202 OFFCURVE",
"569 204 CURVE"
);
},
{
closed = 1;
nodes = (
"955 627 OFFCURVE",
"1011 638 OFFCURVE",
"1068 638 CURVE SMOOTH",
"1077 638 OFFCURVE",
"1121 638 OFFCURVE",
"1121 653 CURVE SMOOTH",
"1121 674 OFFCURVE",
"987 677 OFFCURVE",
"967 677 CURVE SMOOTH",
"946 677 OFFCURVE",
"861 670 OFFCURVE",
"861 640 CURVE SMOOTH",
"861 626 OFFCURVE",
"889 627 OFFCURVE",
"898 627 CURVE SMOOTH"
);
}
);
width = 879;
}
);
unicode = 0100;
},
{
color = 11;
glyphname = Aogonek;
lastChange = "2021-08-11 14:48:46 +0000";
layers = (
{
components = (
{
name = A;
},
{
name = ogonekcomb;
transform = "{1, 0, 0, 1, 536, -41}";
}
);
layerId = "57DEED6F-9A00-47D0-BD9B-6FE09716AB2D";
width = 750;
},
{
layerId = "A9A9B55F-A222-44B0-A0B6-968BE501F3F8";
paths = (
{
closed = 1;
nodes = (
"738 360 OFFCURVE",
"716 290 OFFCURVE",
"696 223 CURVE",
"666 229 OFFCURVE",
"630 232 OFFCURVE",
"599 234 CURVE",
"653 295 OFFCURVE",
"713 362 OFFCURVE",
"766 424 CURVE"
);
},
{
closed = 1;
nodes = (
"751 192 OFFCURVE",
"768 182 OFFCURVE",
"779 182 CURVE SMOOTH",
"788 182 OFFCURVE",
"795 179 OFFCURVE",
"795 191 CURVE SMOOTH",
"796 207 OFFCURVE",
"757 212 OFFCURVE",
"745 215 CURVE",
"786 338 OFFCURVE",
"840 452 OFFCURVE",
"912 558 CURVE",
"914 562 OFFCURVE",
"918 567 OFFCURVE",
"918 572 CURVE SMOOTH",
"919 582 OFFCURVE",
"912 587 OFFCURVE",
"903 587 CURVE SMOOTH",
"888 587 OFFCURVE",
"841 562 OFFCURVE",
"833 549 CURVE SMOOTH",
"817 527 OFFCURVE",
"804 501 OFFCURVE",
"792 477 CURVE",
"787 481 OFFCURVE",
"781 482 OFFCURVE",
"776 482 CURVE SMOOTH",
"770 482 OFFCURVE",
"765 479 OFFCURVE",
"761 475 CURVE SMOOTH",
"687 395 OFFCURVE",
"605 290 OFFCURVE",
"552 238 CURVE",
"418 239 OFFCURVE",
"180 248 OFFCURVE",
"71 153 CURVE SMOOTH",
"39 125 OFFCURVE",
"12 87 OFFCURVE",
"10 41 CURVE SMOOTH",
"7 -43 OFFCURVE",
"91 -67 OFFCURVE",
"153 -67 CURVE SMOOTH",
"309 -67 OFFCURVE",
"460 83 OFFCURVE",
"570 202 CURVE",
"595 204 OFFCURVE",
"652 208 OFFCURVE",
"692 203 CURVE",
"675 143 OFFCURVE",
"656 70 OFFCURVE",
"654 8 CURVE SMOOTH",
"653 -28 OFFCURVE",
"662 -61 OFFCURVE",
"700 -61 CURVE SMOOTH",
"715 -61 OFFCURVE",
"751 -47 OFFCURVE",
"773 -24 CURVE SMOOTH",
"780 -16 OFFCURVE",
"774 -2 OFFCURVE",
"767 -9 CURVE SMOOTH",
"754 -21 OFFCURVE",
"737 -32 OFFCURVE",
"723 -34 CURVE SMOOTH",
"700 -37 OFFCURVE",
"696 -28 OFFCURVE",
"696 -1 CURVE SMOOTH",
"699 61 OFFCURVE",
"721 135 OFFCURVE",
"739 194 CURVE"
);
},
{
closed = 1;
nodes = (
"410 102 OFFCURVE",
"258 -27 OFFCURVE",
"118 -29 CURVE SMOOTH",
"85 -30 OFFCURVE",
"30 -19 OFFCURVE",
"34 28 CURVE SMOOTH",
"53 191 OFFCURVE",
"407 202 OFFCURVE",
"519 204 CURVE"
);
},
{
closed = 1;
nodes = (
"766 -18 OFFCURVE",
"762 -21 OFFCURVE",
"758 -21 CURVE",
"709 -42 OFFCURVE",
"597 -150 OFFCURVE",
"595 -212 CURVE SMOOTH",
"594 -242 OFFCURVE",
"615 -257 OFFCURVE",
"640 -257 CURVE SMOOTH",
"691 -257 OFFCURVE",
"731 -221 OFFCURVE",
"735 -201 CURVE SMOOTH",
"737 -192 OFFCURVE",
"728 -195 OFFCURVE",
"725 -197 CURVE",
"712 -210 OFFCURVE",
"692 -227 OFFCURVE",
"674 -227 CURVE SMOOTH",
"651 -227 OFFCURVE",
"645 -212 OFFCURVE",
"645 -194 CURVE SMOOTH",
"647 -148 OFFCURVE",
"711 -73 OFFCURVE",
"764 -31 CURVE"
);
}
);
width = 791;
},
{
layerId = "AFE3E0A9-A514-4B93-8E4E-B7D18C88F31C";
paths = (
{
closed = 1;
nodes = (
"807 360 OFFCURVE",
"785 290 OFFCURVE",
"766 223 CURVE",
"732 229 OFFCURVE",
"691 232 OFFCURVE",
"657 234 CURVE",
"715 295 OFFCURVE",
"779 362 OFFCURVE",
"836 424 CURVE"
);
},
{
closed = 1;
nodes = (
"828 192 OFFCURVE",
"847 182 OFFCURVE",
"859 182 CURVE SMOOTH",
"869 182 OFFCURVE",
"877 179 OFFCURVE",
"877 191 CURVE SMOOTH",
"877 207 OFFCURVE",
"833 212 OFFCURVE",
"820 215 CURVE",
"861 338 OFFCURVE",
"917 452 OFFCURVE",
"992 558 CURVE SMOOTH",
"995 562 OFFCURVE",
"999 567 OFFCURVE",
"999 572 CURVE SMOOTH",
"999 582 OFFCURVE",
"991 587 OFFCURVE",
"981 587 CURVE SMOOTH",
"965 587 OFFCURVE",
"913 562 OFFCURVE",
"904 549 CURVE SMOOTH",
"888 527 OFFCURVE",
"874 501 OFFCURVE",
"862 477 CURVE",
"857 481 OFFCURVE",
"850 482 OFFCURVE",
"844 482 CURVE SMOOTH",
"838 482 OFFCURVE",
"832 479 OFFCURVE",
"828 475 CURVE SMOOTH",
"749 395 OFFCURVE",
"661 290 OFFCURVE",
"605 238 CURVE",
"456 239 OFFCURVE",
"191 248 OFFCURVE",
"73 153 CURVE SMOOTH",
"39 125 OFFCURVE",
"10 87 OFFCURVE",
"10 41 CURVE SMOOTH",
"10 -43 OFFCURVE",
"105 -67 OFFCURVE",
"173 -67 CURVE SMOOTH",
"347 -67 OFFCURVE",
"509 83 OFFCURVE",
"626 202 CURVE",
"653 204 OFFCURVE",
"717 208 OFFCURVE",
"761 203 CURVE",
"746 143 OFFCURVE",
"727 70 OFFCURVE",
"727 8 CURVE SMOOTH",
"727 -28 OFFCURVE",
"739 -61 OFFCURVE",
"781 -61 CURVE SMOOTH",
"798 -61 OFFCURVE",
"837 -47 OFFCURVE",
"860 -24 CURVE SMOOTH",
"868 -16 OFFCURVE",
"861 -2 OFFCURVE",
"853 -9 CURVE SMOOTH",
"839 -21 OFFCURVE",
"821 -32 OFFCURVE",
"806 -34 CURVE SMOOTH",
"780 -37 OFFCURVE",
"775 -28 OFFCURVE",
"775 -1 CURVE SMOOTH",
"775 61 OFFCURVE",
"797 135 OFFCURVE",
"814 194 CURVE"
);
},
{
closed = 1;
nodes = (
"452 102 OFFCURVE",
"288 -27 OFFCURVE",
"133 -29 CURVE SMOOTH",
"97 -30 OFFCURVE",
"34 -19 OFFCURVE",
"38 28 CURVE SMOOTH",
"52 191 OFFCURVE",
"444 202 OFFCURVE",
"569 204 CURVE"
);
},
{
closed = 1;
nodes = (
"853 -18 OFFCURVE",
"849 -21 OFFCURVE",
"844 -21 CURVE",
"790 -42 OFFCURVE",
"670 -150 OFFCURVE",
"670 -212 CURVE SMOOTH",
"670 -242 OFFCURVE",
"694 -257 OFFCURVE",
"722 -257 CURVE SMOOTH",
"779 -257 OFFCURVE",
"822 -221 OFFCURVE",
"826 -201 CURVE SMOOTH",
"828 -192 OFFCURVE",
"818 -195 OFFCURVE",
"814 -197 CURVE",
"800 -210 OFFCURVE",
"779 -227 OFFCURVE",
"759 -227 CURVE SMOOTH",
"733 -227 OFFCURVE",
"725 -212 OFFCURVE",
"725 -194 CURVE SMOOTH",
"725 -148 OFFCURVE",
"793 -73 OFFCURVE",
"851 -31 CURVE"
);
}
);
width = 879;
}
);
unicode = 0104;
},
{
color = 11;
glyphname = Aring;
lastChange = "2021-08-11 14:48:46 +0000";
layers = (
{
components = (
{
name = A;
},
{
name = ringcomb;
transform = "{1, 0, 0, 1, 765, 8}";
}
);
layerId = "57DEED6F-9A00-47D0-BD9B-6FE09716AB2D";
width = 750;
},
{
layerId = "A9A9B55F-A222-44B0-A0B6-968BE501F3F8";
paths = (
{
closed = 1;
nodes = (
"751 192 OFFCURVE",
"768 182 OFFCURVE",
"779 182 CURVE SMOOTH",
"788 182 OFFCURVE",
"795 179 OFFCURVE",
"795 191 CURVE SMOOTH",
"796 207 OFFCURVE",
"757 212 OFFCURVE",
"745 215 CURVE",
"775 305 OFFCURVE",
"821 407 OFFCURVE",
"868 489 CURVE",
"907 502 OFFCURVE",
"945 538 OFFCURVE",
"947 583 CURVE SMOOTH",
"948 617 OFFCURVE",
"925 641 OFFCURVE",
"895 641 CURVE SMOOTH",
"871 641 OFFCURVE",
"848 631 OFFCURVE",
"833 608 CURVE",
"804 599 OFFCURVE",
"785 558 OFFCURVE",
"784 527 CURVE SMOOTH",
"783 511 OFFCURVE",
"788 500 OFFCURVE",
"797 493 CURVE",
"795 489 OFFCURVE",
"794 482 OFFCURVE",
"792 477 CURVE",
"787 481 OFFCURVE",
"781 482 OFFCURVE",
"776 482 CURVE SMOOTH",
"770 482 OFFCURVE",
"765 479 OFFCURVE",
"761 475 CURVE SMOOTH",
"687 395 OFFCURVE",
"605 290 OFFCURVE",
"552 238 CURVE",
"418 239 OFFCURVE",
"180 248 OFFCURVE",
"71 153 CURVE SMOOTH",
"39 125 OFFCURVE",
"12 87 OFFCURVE",
"10 41 CURVE SMOOTH",
"7 -43 OFFCURVE",
"91 -67 OFFCURVE",
"153 -67 CURVE SMOOTH",
"309 -67 OFFCURVE",
"460 83 OFFCURVE",
"570 202 CURVE",
"595 204 OFFCURVE",
"652 208 OFFCURVE",
"692 203 CURVE",
"675 143 OFFCURVE",
"656 70 OFFCURVE",
"654 8 CURVE SMOOTH",
"653 -28 OFFCURVE",
"662 -61 OFFCURVE",
"700 -61 CURVE SMOOTH",
"715 -61 OFFCURVE",
"751 -47 OFFCURVE",
"773 -24 CURVE SMOOTH",
"780 -16 OFFCURVE",
"774 -2 OFFCURVE",
"767 -9 CURVE SMOOTH",
"754 -21 OFFCURVE",
"737 -32 OFFCURVE",
"723 -34 CURVE SMOOTH",
"700 -37 OFFCURVE",
"696 -28 OFFCURVE",
"696 -1 CURVE SMOOTH",
"699 61 OFFCURVE",
"721 135 OFFCURVE",
"739 194 CURVE"
);
},
{
closed = 1;
nodes = (
"410 102 OFFCURVE",
"258 -27 OFFCURVE",
"118 -29 CURVE SMOOTH",
"85 -30 OFFCURVE",
"30 -19 OFFCURVE",
"34 28 CURVE SMOOTH",
"53 191 OFFCURVE",
"407 202 OFFCURVE",
"519 204 CURVE"
);
},
{
closed = 1;
nodes = (
"738 360 OFFCURVE",
"716 290 OFFCURVE",
"696 223 CURVE",
"666 229 OFFCURVE",
"630 232 OFFCURVE",
"599 234 CURVE",
"653 295 OFFCURVE",
"713 362 OFFCURVE",
"766 424 CURVE"
);
},
{
closed = 1;
nodes = (
"906 611 OFFCURVE",
"907 595 OFFCURVE",
"907 581 CURVE SMOOTH",
"906 549 OFFCURVE",
"877 514 OFFCURVE",
"848 514 CURVE SMOOTH",
"839 514 OFFCURVE",
"838 520 OFFCURVE",
"838 528 CURVE SMOOTH",
"839 554 OFFCURVE",
"866 579 OFFCURVE",
"878 601 CURVE",
"871 605 LINE",
"877 608 OFFCURVE",
"883 611 OFFCURVE",
"890 611 CURVE SMOOTH"
);
}
);
width = 791;
},
{
layerId = "AFE3E0A9-A514-4B93-8E4E-B7D18C88F31C";
paths = (
{
closed = 1;
nodes = (
"828 192 OFFCURVE",
"847 182 OFFCURVE",
"859 182 CURVE SMOOTH",
"869 182 OFFCURVE",
"877 179 OFFCURVE",
"877 191 CURVE SMOOTH",
"877 207 OFFCURVE",
"833 212 OFFCURVE",
"820 215 CURVE",
"850 305 OFFCURVE",
"897 407 OFFCURVE",
"946 489 CURVE",
"989 502 OFFCURVE",
"1030 538 OFFCURVE",
"1030 583 CURVE SMOOTH",
"1030 617 OFFCURVE",
"1003 641 OFFCURVE",
"970 641 CURVE SMOOTH",
"943 641 OFFCURVE",
"918 631 OFFCURVE",
"902 608 CURVE",
"871 599 OFFCURVE",
"851 558 OFFCURVE",
"851 527 CURVE SMOOTH",
"851 511 OFFCURVE",
"857 500 OFFCURVE",
"867 493 CURVE",
"864 489 OFFCURVE",
"864 482 OFFCURVE",
"862 477 CURVE",
"857 481 OFFCURVE",
"850 482 OFFCURVE",
"844 482 CURVE SMOOTH",
"838 482 OFFCURVE",
"832 479 OFFCURVE",
"828 475 CURVE SMOOTH",
"749 395 OFFCURVE",
"661 290 OFFCURVE",
"605 238 CURVE",
"456 239 OFFCURVE",
"191 248 OFFCURVE",
"73 153 CURVE SMOOTH",
"39 125 OFFCURVE",
"10 87 OFFCURVE",
"10 41 CURVE SMOOTH",
"10 -43 OFFCURVE",
"105 -67 OFFCURVE",
"173 -67 CURVE SMOOTH",
"347 -67 OFFCURVE",
"509 83 OFFCURVE",
"626 202 CURVE",
"653 204 OFFCURVE",
"717 208 OFFCURVE",
"761 203 CURVE",
"746 143 OFFCURVE",
"727 70 OFFCURVE",
"727 8 CURVE SMOOTH",
"727 -28 OFFCURVE",
"739 -61 OFFCURVE",
"781 -61 CURVE SMOOTH",
"798 -61 OFFCURVE",
"837 -47 OFFCURVE",
"860 -24 CURVE SMOOTH",
"868 -16 OFFCURVE",
"861 -2 OFFCURVE",
"853 -9 CURVE SMOOTH",
"839 -21 OFFCURVE",
"821 -32 OFFCURVE",
"806 -34 CURVE SMOOTH",
"780 -37 OFFCURVE",
"775 -28 OFFCURVE",
"775 -1 CURVE SMOOTH",
"775 61 OFFCURVE",
"797 135 OFFCURVE",
"814 194 CURVE"
);
},
{
closed = 1;
nodes = (
"452 102 OFFCURVE",
"288 -27 OFFCURVE",
"133 -29 CURVE SMOOTH",
"97 -30 OFFCURVE",
"34 -19 OFFCURVE",
"38 28 CURVE SMOOTH",
"52 191 OFFCURVE",
"444 202 OFFCURVE",
"569 204 CURVE"
);
},
{
closed = 1;
nodes = (
"807 360 OFFCURVE",
"785 290 OFFCURVE",
"766 223 CURVE",
"732 229 OFFCURVE",
"691 232 OFFCURVE",
"657 234 CURVE",
"715 295 OFFCURVE",
"779 362 OFFCURVE",
"836 424 CURVE"
);
},
{
closed = 1;
nodes = (
"983 611 OFFCURVE",
"986 595 OFFCURVE",
"986 581 CURVE SMOOTH",
"986 549 OFFCURVE",
"956 514 OFFCURVE",
"923 514 CURVE SMOOTH",
"913 514 OFFCURVE",
"911 520 OFFCURVE",
"911 528 CURVE SMOOTH",
"911 554 OFFCURVE",
"940 579 OFFCURVE",
"953 601 CURVE",
"944 605 LINE",
"951 608 OFFCURVE",
"958 611 OFFCURVE",
"966 611 CURVE SMOOTH"
);
}
);
width = 879;
}
);
unicode = 00C5;
},
{
color = 11;
glyphname = Atilde;
lastChange = "2021-08-11 14:48:46 +0000";
layers = (
{
components = (
{
name = A;
},
{
name = tildecomb;
transform = "{1, 0, 0, 1, 741, 8}";
}
);
layerId = "57DEED6F-9A00-47D0-BD9B-6FE09716AB2D";
width = 750;
},
{
layerId = "A9A9B55F-A222-44B0-A0B6-968BE501F3F8";
paths = (
{
closed = 1;
nodes = (
"1029 686 OFFCURVE",
"1027 688 OFFCURVE",
"1019 688 CURVE",
"1006 673 OFFCURVE",
"991 666 OFFCURVE",
"974 666 CURVE SMOOTH",
"963 666 OFFCURVE",
"947 670 OFFCURVE",
"924 677 CURVE SMOOTH",
"901 683 OFFCURVE",
"884 687 OFFCURVE",
"871 687 CURVE SMOOTH",
"856 687 OFFCURVE",
"841 684 OFFCURVE",
"828 677 CURVE SMOOTH",
"796 659 OFFCURVE",
"779 645 OFFCURVE",
"779 634 CURVE SMOOTH",
"779 632 OFFCURVE",
"779 631 OFFCURVE",
"782 628 CURVE",
"785 628 OFFCURVE",
"795 632 OFFCURVE",
"808 642 CURVE SMOOTH",
"820 650 OFFCURVE",
"832 654 OFFCURVE",
"843 654 CURVE SMOOTH",
"855 654 OFFCURVE",
"872 649 OFFCURVE",
"896 640 CURVE SMOOTH",
"920 631 OFFCURVE",
"938 627 OFFCURVE",
"950 627 CURVE SMOOTH",
"963 627 OFFCURVE",
"974 630 OFFCURVE",
"983 636 CURVE SMOOTH",
"1015 654 OFFCURVE",
"1028 669 OFFCURVE",
"1029 681 CURVE SMOOTH"
);
},
{
closed = 1;
nodes = (
"751 192 OFFCURVE",
"768 182 OFFCURVE",
"779 182 CURVE SMOOTH",
"788 182 OFFCURVE",
"795 179 OFFCURVE",
"795 191 CURVE SMOOTH",
"796 207 OFFCURVE",
"757 212 OFFCURVE",
"745 215 CURVE",
"786 338 OFFCURVE",
"840 452 OFFCURVE",
"912 558 CURVE",
"914 562 OFFCURVE",
"918 567 OFFCURVE",
"918 572 CURVE SMOOTH",
"919 582 OFFCURVE",
"912 587 OFFCURVE",
"903 587 CURVE SMOOTH",
"888 587 OFFCURVE",
"841 562 OFFCURVE",
"833 549 CURVE SMOOTH",
"817 527 OFFCURVE",
"804 501 OFFCURVE",
"792 477 CURVE",
"787 481 OFFCURVE",
"781 482 OFFCURVE",
"776 482 CURVE SMOOTH",
"770 482 OFFCURVE",
"765 479 OFFCURVE",
"761 475 CURVE SMOOTH",
"687 395 OFFCURVE",
"605 290 OFFCURVE",
"552 238 CURVE",
"418 239 OFFCURVE",
"180 248 OFFCURVE",
"71 153 CURVE SMOOTH",
"39 125 OFFCURVE",
"12 87 OFFCURVE",
"10 41 CURVE SMOOTH",
"7 -43 OFFCURVE",
"91 -67 OFFCURVE",
"153 -67 CURVE SMOOTH",
"309 -67 OFFCURVE",
"460 83 OFFCURVE",
"570 202 CURVE",
"595 204 OFFCURVE",
"652 208 OFFCURVE",
"692 203 CURVE",
"675 143 OFFCURVE",
"656 70 OFFCURVE",
"654 8 CURVE SMOOTH",
"653 -28 OFFCURVE",
"662 -61 OFFCURVE",
"700 -61 CURVE SMOOTH",
"715 -61 OFFCURVE",
"751 -47 OFFCURVE",
"773 -24 CURVE SMOOTH",
"780 -16 OFFCURVE",
"774 -2 OFFCURVE",
"767 -9 CURVE SMOOTH",
"754 -21 OFFCURVE",
"737 -32 OFFCURVE",
"723 -34 CURVE SMOOTH",
"700 -37 OFFCURVE",
"696 -28 OFFCURVE",
"696 -1 CURVE SMOOTH",
"699 61 OFFCURVE",
"721 135 OFFCURVE",
"739 194 CURVE"
);
},
{
closed = 1;
nodes = (
"412 102 OFFCURVE",
"258 -27 OFFCURVE",
"118 -29 CURVE SMOOTH",
"85 -30 OFFCURVE",
"30 -19 OFFCURVE",
"34 28 CURVE SMOOTH",
"53 191 OFFCURVE",
"407 202 OFFCURVE",
"519 204 CURVE"
);
},
{
closed = 1;
nodes = (
"738 360 OFFCURVE",
"716 290 OFFCURVE",
"696 223 CURVE",
"666 229 OFFCURVE",
"630 232 OFFCURVE",
"599 234 CURVE",
"653 295 OFFCURVE",
"713 362 OFFCURVE",
"766 424 CURVE"
);
}
);
width = 791;
},
{
layerId = "AFE3E0A9-A514-4B93-8E4E-B7D18C88F31C";
paths = (
{
closed = 1;
nodes = (
"807 360 OFFCURVE",
"785 290 OFFCURVE",
"766 223 CURVE",
"732 229 OFFCURVE",
"691 232 OFFCURVE",
"657 234 CURVE",
"715 295 OFFCURVE",
"779 362 OFFCURVE",
"836 424 CURVE"
);
},
{
closed = 1;
nodes = (
"828 192 OFFCURVE",
"847 182 OFFCURVE",
"859 182 CURVE SMOOTH",
"869 182 OFFCURVE",
"877 179 OFFCURVE",
"877 191 CURVE SMOOTH",
"877 207 OFFCURVE",
"833 212 OFFCURVE",
"820 215 CURVE",
"861 338 OFFCURVE",
"917 452 OFFCURVE",
"992 558 CURVE SMOOTH",
"995 562 OFFCURVE",
"999 567 OFFCURVE",
"999 572 CURVE SMOOTH",
"999 582 OFFCURVE",
"991 587 OFFCURVE",
"981 587 CURVE SMOOTH",
"965 587 OFFCURVE",
"913 562 OFFCURVE",
"904 549 CURVE SMOOTH",
"888 527 OFFCURVE",
"874 501 OFFCURVE",
"862 477 CURVE",
"857 481 OFFCURVE",
"850 482 OFFCURVE",
"844 482 CURVE SMOOTH",
"838 482 OFFCURVE",
"832 479 OFFCURVE",
"828 475 CURVE SMOOTH",
"749 395 OFFCURVE",
"661 290 OFFCURVE",
"605 238 CURVE",
"456 239 OFFCURVE",
"191 248 OFFCURVE",
"73 153 CURVE SMOOTH",
"39 125 OFFCURVE",
"10 87 OFFCURVE",
"10 41 CURVE SMOOTH",
"10 -43 OFFCURVE",
"105 -67 OFFCURVE",
"173 -67 CURVE SMOOTH",
"347 -67 OFFCURVE",
"509 83 OFFCURVE",
"626 202 CURVE",
"653 204 OFFCURVE",
"717 208 OFFCURVE",
"761 203 CURVE",
"746 143 OFFCURVE",
"727 70 OFFCURVE",
"727 8 CURVE SMOOTH",
"727 -28 OFFCURVE",
"739 -61 OFFCURVE",
"781 -61 CURVE SMOOTH",
"798 -61 OFFCURVE",
"837 -47 OFFCURVE",
"860 -24 CURVE SMOOTH",
"868 -16 OFFCURVE",
"861 -2 OFFCURVE",
"853 -9 CURVE SMOOTH",
"839 -21 OFFCURVE",
"821 -32 OFFCURVE",
"806 -34 CURVE SMOOTH",
"780 -37 OFFCURVE",
"775 -28 OFFCURVE",
"775 -1 CURVE SMOOTH",
"775 61 OFFCURVE",
"797 135 OFFCURVE",
"814 194 CURVE"
);
},
{
closed = 1;
nodes = (
"452 102 OFFCURVE",
"288 -27 OFFCURVE",
"133 -29 CURVE SMOOTH",
"97 -30 OFFCURVE",
"34 -19 OFFCURVE",
"38 28 CURVE SMOOTH",
"52 191 OFFCURVE",
"444 202 OFFCURVE",
"569 204 CURVE"
);
},
{
closed = 1;
nodes = (
"1118 686 OFFCURVE",
"1116 688 OFFCURVE",
"1107 688 CURVE",
"1094 673 OFFCURVE",
"1077 666 OFFCURVE",
"1058 666 CURVE SMOOTH",
"1046 666 OFFCURVE",
"1028 670 OFFCURVE",
"1003 677 CURVE SMOOTH",
"976 683 OFFCURVE",
"957 687 OFFCURVE",
"943 687 CURVE SMOOTH",
"926 687 OFFCURVE",
"909 684 OFFCURVE",
"896 677 CURVE SMOOTH",
"861 659 OFFCURVE",
"843 645 OFFCURVE",
"843 634 CURVE SMOOTH",
"843 632 OFFCURVE",
"843 631 OFFCURVE",
"846 628 CURVE",
"850 628 OFFCURVE",
"861 632 OFFCURVE",
"875 642 CURVE SMOOTH",
"888 650 OFFCURVE",
"901 654 OFFCURVE",
"913 654 CURVE SMOOTH",
"926 654 OFFCURVE",
"946 649 OFFCURVE",
"973 640 CURVE SMOOTH",
"999 631 OFFCURVE",
"1020 627 OFFCURVE",
"1033 627 CURVE SMOOTH",
"1047 627 OFFCURVE",
"1059 630 OFFCURVE",
"1070 636 CURVE SMOOTH",
"1104 654 OFFCURVE",
"1118 669 OFFCURVE",
"1118 681 CURVE SMOOTH"
);
}
);
width = 879;
}
);
unicode = 00C3;
},
{
color = 9;
glyphname = AE;
lastChange = "2021-08-11 14:48:13 +0000";
layers = (
{
anchors = (
{
name = bottom;
position = "{462, -78}";
},
{
name = top;
position = "{1045, 538}";
}
);
layerId = "57DEED6F-9A00-47D0-BD9B-6FE09716AB2D";
paths = (
{
closed = 1;
nodes = (
"1148 501 OFFCURVE",
"1142 505 OFFCURVE",
"1131 508 CURVE SMOOTH",
"1107 514 OFFCURVE",
"1068 517 OFFCURVE",
"1014 517 CURVE SMOOTH",
"901 517 OFFCURVE",
"816 506 OFFCURVE",
"747 472 CURVE SMOOTH",
"680 440 OFFCURVE",
"603 374 OFFCURVE",
"528 287 CURVE",
"413 277 OFFCURVE",
"304 261 OFFCURVE",
"215 232 CURVE SMOOTH",
"75 186 OFFCURVE",
"12 122 OFFCURVE",
"12 44 CURVE SMOOTH",
"12 8 OFFCURVE",
"26 -16 OFFCURVE",
"52 -34 CURVE SMOOTH",
"75 -50 OFFCURVE",
"103 -56 OFFCURVE",
"137 -56 CURVE SMOOTH",
"191 -56 OFFCURVE",
"244 -37 OFFCURVE",
"295 0 CURVE SMOOTH",
"325 21 OFFCURVE",
"366 62 OFFCURVE",
"419 119 CURVE SMOOTH",
"448 150 OFFCURVE",
"477 189 OFFCURVE",
"529 253 CURVE",
"565 259 OFFCURVE",
"630 262 OFFCURVE",
"649 263 CURVE",
"582 177 OFFCURVE",
"552 113 OFFCURVE",
"552 56 CURVE SMOOTH",
"552 3 OFFCURVE",
"591 -24 OFFCURVE",
"658 -24 CURVE SMOOTH",
"702 -24 OFFCURVE",
"769 -12 OFFCURVE",
"844 15 CURVE SMOOTH",
"925 45 OFFCURVE",
"975 74 OFFCURVE",
"996 103 CURVE",
"996 109 OFFCURVE",
"993 115 OFFCURVE",
"988 112 CURVE SMOOTH",
"960 96 OFFCURVE",
"923 80 OFFCURVE",
"910 74 CURVE SMOOTH",
"815 31 OFFCURVE",
"737 11 OFFCURVE",
"677 11 CURVE SMOOTH",
"565 11 OFFCURVE",
"593 89 OFFCURVE",
"631 169 CURVE SMOOTH",
"658 225 OFFCURVE",
"689 257 OFFCURVE",
"702 263 CURVE",
"728 271 OFFCURVE",
"763 277 OFFCURVE",
"816 280 CURVE SMOOTH",
"873 284 OFFCURVE",
"929 288 OFFCURVE",
"944 291 CURVE SMOOTH",
"963 295 OFFCURVE",
"973 299 OFFCURVE",
"973 303 CURVE SMOOTH",
"973 308 OFFCURVE",
"950 310 OFFCURVE",
"905 310 CURVE SMOOTH",
"886 310 OFFCURVE",
"859 309 OFFCURVE",
"823 306 CURVE SMOOTH",
"787 303 OFFCURVE",
"760 302 OFFCURVE",
"742 302 CURVE SMOOTH",
"739 302 OFFCURVE",
"736 303 OFFCURVE",
"734 306 CURVE",
"822 404 OFFCURVE",
"873 458 OFFCURVE",
"888 467 CURVE SMOOTH",
"915 483 OFFCURVE",
"971 491 OFFCURVE",
"1056 491 CURVE SMOOTH",
"1089 491 OFFCURVE",
"1112 488 OFFCURVE",
"1124 482 CURVE",
"1140 482 OFFCURVE",
"1148 486 OFFCURVE",
"1148 494 CURVE SMOOTH"
);
},
{
closed = 1;
nodes = (
"462 213 OFFCURVE",
"435 178 OFFCURVE",
"404 144 CURVE SMOOTH",
"360 96 OFFCURVE",
"319 61 OFFCURVE",
"282 37 CURVE SMOOTH",
"234 5 OFFCURVE",
"186 -10 OFFCURVE",
"139 -10 CURVE SMOOTH",
"98 -10 OFFCURVE",
"42 11 OFFCURVE",
"42 56 CURVE SMOOTH",
"42 117 OFFCURVE",
"112 166 OFFCURVE",
"238 207 CURVE SMOOTH",
"313 231 OFFCURVE",
"392 240 OFFCURVE",
"496 253 CURVE"
);
},
{
closed = 1;
nodes = (
"754 384 OFFCURVE",
"719 354 OFFCURVE",
"672 294 CURVE",
"617 291 OFFCURVE",
"583 289 OFFCURVE",
"558 286 CURVE",
"587 324 OFFCURVE",
"626 361 OFFCURVE",
"674 397 CURVE SMOOTH",
"725 435 OFFCURVE",
"765 456 OFFCURVE",
"809 469 CURVE SMOOTH",
"824 473 OFFCURVE",
"832 474 OFFCURVE",
"824 463 CURVE"
);
}
);
width = 978;
},
{
layerId = "A9A9B55F-A222-44B0-A0B6-968BE501F3F8";
paths = (
{
closed = 1;
nodes = (
"989 459 OFFCURVE",
"970 499 OFFCURVE",
"1175 499 CURVE SMOOTH",
"1198 499 OFFCURVE",
"1245 490 OFFCURVE",
"1266 481 CURVE",
"1276 481 OFFCURVE",
"1301 484 OFFCURVE",
"1302 499 CURVE SMOOTH",
"1303 532 OFFCURVE",
"1180 528 OFFCURVE",
"1159 528 CURVE SMOOTH",
"906 528 OFFCURVE",
"789 493 OFFCURVE",
"595 298 CURVE",
"465 287 OFFCURVE",
"15 249 OFFCURVE",
"8 49 CURVE SMOOTH",
"5 -35 OFFCURVE",
"89 -57 OFFCURVE",
"150 -57 CURVE SMOOTH",
"331 -57 OFFCURVE",
"476 121 OFFCURVE",
"600 252 CURVE",
"639 257 OFFCURVE",
"678 259 OFFCURVE",
"717 261 CURVE",
"670 210 OFFCURVE",
"604 131 OFFCURVE",
"601 56 CURVE SMOOTH",
"599 -17 OFFCURVE",
"679 -25 OFFCURVE",
"731 -25 CURVE SMOOTH",
"824 -25 OFFCURVE",
"1055 31 OFFCURVE",
"1118 106 CURVE",
"1119 113 OFFCURVE",
"1114 124 OFFCURVE",
"1106 124 CURVE SMOOTH",
"1105 124 OFFCURVE",
"1014 71 OFFCURVE",
"1004 67 CURVE SMOOTH",
"924 35 OFFCURVE",
"850 18 OFFCURVE",
"765 18 CURVE SMOOTH",
"735 18 OFFCURVE",
"671 25 OFFCURVE",
"673 71 CURVE SMOOTH",
"674 99 OFFCURVE",
"695 140 OFFCURVE",
"713 171 CURVE SMOOTH",
"731 201 OFFCURVE",
"765 249 OFFCURVE",
"792 262 CURVE SMOOTH",
"832 281 OFFCURVE",
"1006 281 OFFCURVE",
"1061 290 CURVE SMOOTH",
"1074 292 OFFCURVE",
"1097 296 OFFCURVE",
"1100 308 CURVE",
"1092 317 LINE",
"1073 323 OFFCURVE",
"1049 321 OFFCURVE",
"1029 321 CURVE SMOOTH",
"965 321 OFFCURVE",
"902 313 OFFCURVE",
"839 313 CURVE"
);
},
{
closed = 1;
nodes = (
"891 433 OFFCURVE",
"810 363 OFFCURVE",
"755 305 CURVE",
"719 304 OFFCURVE",
"683 302 OFFCURVE",
"646 299 CURVE",
"712 368 OFFCURVE",
"857 476 OFFCURVE",
"946 491 CURVE"
);
},
{
closed = 1;
nodes = (
"31 192 OFFCURVE",
"447 237 OFFCURVE",
"543 249 CURVE",
"427 124 OFFCURVE",
"298 -27 OFFCURVE",
"131 -27 CURVE SMOOTH",
"99 -27 OFFCURVE",
"24 -11 OFFCURVE",
"26 40 CURVE SMOOTH"
);
}
);
width = 1089;
},
{
layerId = "AFE3E0A9-A514-4B93-8E4E-B7D18C88F31C";
paths = (
{
closed = 1;
nodes = (
"1082 459 OFFCURVE",
"1059 499 OFFCURVE",
"1287 499 CURVE SMOOTH",
"1312 499 OFFCURVE",
"1366 490 OFFCURVE",
"1389 481 CURVE",
"1400 481 OFFCURVE",
"1428 484 OFFCURVE",
"1428 499 CURVE SMOOTH",
"1428 532 OFFCURVE",
"1291 528 OFFCURVE",
"1268 528 CURVE SMOOTH",
"987 528 OFFCURVE",
"859 493 OFFCURVE",
"650 298 CURVE",
"507 287 OFFCURVE",
"8 249 OFFCURVE",
"8 49 CURVE SMOOTH",
"8 -35 OFFCURVE",
"102 -57 OFFCURVE",
"170 -57 CURVE SMOOTH",
"371 -57 OFFCURVE",
"526 121 OFFCURVE",
"658 252 CURVE",
"701 257 OFFCURVE",
"744 259 OFFCURVE",
"788 261 CURVE",
"738 210 OFFCURVE",
"667 131 OFFCURVE",
"667 56 CURVE SMOOTH",
"667 -17 OFFCURVE",
"757 -25 OFFCURVE",
"814 -25 CURVE SMOOTH",
"918 -25 OFFCURVE",
"1172 31 OFFCURVE",
"1239 106 CURVE",
"1240 113 OFFCURVE",
"1235 124 OFFCURVE",
"1226 124 CURVE SMOOTH",
"1225 124 OFFCURVE",
"1126 71 OFFCURVE",
"1115 67 CURVE SMOOTH",
"1027 35 OFFCURVE",
"944 18 OFFCURVE",
"850 18 CURVE SMOOTH",
"817 18 OFFCURVE",
"746 25 OFFCURVE",
"746 71 CURVE SMOOTH",
"746 101 OFFCURVE",
"771 145 OFFCURVE",
"787 171 CURVE SMOOTH",
"804 200 OFFCURVE",
"841 249 OFFCURVE",
"871 262 CURVE SMOOTH",
"915 281 OFFCURVE",
"1108 281 OFFCURVE",
"1169 290 CURVE SMOOTH",
"1183 292 OFFCURVE",
"1209 296 OFFCURVE",
"1211 308 CURVE",
"1202 317 LINE",
"1181 323 OFFCURVE",
"1154 321 OFFCURVE",
"1132 321 CURVE SMOOTH",
"1061 321 OFFCURVE",
"991 313 OFFCURVE",
"921 313 CURVE"
);
},
{
closed = 1;
nodes = (
"975 433 OFFCURVE",
"887 363 OFFCURVE",
"828 305 CURVE",
"788 304 OFFCURVE",
"748 302 OFFCURVE",
"707 299 CURVE",
"778 368 OFFCURVE",
"935 476 OFFCURVE",
"1033 491 CURVE"
);
},
{
closed = 1;
nodes = (
"28 192 OFFCURVE",
"489 237 OFFCURVE",
"595 249 CURVE",
"471 124 OFFCURVE",
"333 -27 OFFCURVE",
"148 -27 CURVE SMOOTH",
"112 -27 OFFCURVE",
"28 -11 OFFCURVE",
"28 40 CURVE SMOOTH"
);
}
);
width = 1210;
}
);
note = AE;
unicode = 00C6;
},
{
color = 11;
glyphname = AEacute;
lastChange = "2021-08-11 14:48:46 +0000";
layers = (
{
components = (
{
name = AE;
},
{
name = acutecomb;
transform = "{1, 0, 0, 1, 986, -52}";
}
);
layerId = "57DEED6F-9A00-47D0-BD9B-6FE09716AB2D";
width = 978;
},
{
layerId = "A9A9B55F-A222-44B0-A0B6-968BE501F3F8";
paths = (
{
closed = 1;
nodes = (
"989 449 OFFCURVE",
"970 489 OFFCURVE",
"1175 489 CURVE SMOOTH",
"1198 489 OFFCURVE",
"1245 480 OFFCURVE",
"1266 471 CURVE",
"1276 471 OFFCURVE",
"1301 474 OFFCURVE",
"1302 489 CURVE SMOOTH",
"1303 522 OFFCURVE",
"1180 518 OFFCURVE",
"1159 518 CURVE SMOOTH",
"906 518 OFFCURVE",
"789 483 OFFCURVE",
"595 288 CURVE",
"465 277 OFFCURVE",
"15 239 OFFCURVE",
"8 39 CURVE SMOOTH",
"5 -45 OFFCURVE",
"89 -67 OFFCURVE",
"150 -67 CURVE SMOOTH",
"331 -67 OFFCURVE",
"476 111 OFFCURVE",
"600 242 CURVE",
"639 247 OFFCURVE",
"678 249 OFFCURVE",
"717 251 CURVE",
"670 200 OFFCURVE",
"604 121 OFFCURVE",
"601 46 CURVE SMOOTH",
"599 -27 OFFCURVE",
"679 -35 OFFCURVE",
"731 -35 CURVE SMOOTH",
"824 -35 OFFCURVE",
"1055 21 OFFCURVE",
"1118 96 CURVE",
"1119 103 OFFCURVE",
"1114 114 OFFCURVE",
"1106 114 CURVE SMOOTH",
"1105 114 OFFCURVE",
"1015 61 OFFCURVE",
"1004 57 CURVE SMOOTH",
"924 25 OFFCURVE",
"850 8 OFFCURVE",
"765 8 CURVE SMOOTH",
"735 8 OFFCURVE",
"671 15 OFFCURVE",
"673 61 CURVE SMOOTH",
"674 91 OFFCURVE",
"698 135 OFFCURVE",
"713 161 CURVE SMOOTH",
"730 190 OFFCURVE",
"765 239 OFFCURVE",
"792 252 CURVE SMOOTH",
"832 271 OFFCURVE",
"1004 270 OFFCURVE",
"1061 280 CURVE SMOOTH",
"1071 281 OFFCURVE",
"1097 286 OFFCURVE",
"1100 298 CURVE",
"1092 307 LINE",
"1073 313 OFFCURVE",
"1049 311 OFFCURVE",
"1029 311 CURVE SMOOTH",
"965 311 OFFCURVE",
"902 303 OFFCURVE",
"839 303 CURVE"
);
},
{
closed = 1;
nodes = (
"891 423 OFFCURVE",
"810 353 OFFCURVE",
"755 295 CURVE",
"719 294 OFFCURVE",
"683 292 OFFCURVE",
"646 289 CURVE",
"712 358 OFFCURVE",
"857 466 OFFCURVE",
"946 481 CURVE"
);
},
{
closed = 1;
nodes = (
"31 182 OFFCURVE",
"447 227 OFFCURVE",
"543 239 CURVE",
"427 114 OFFCURVE",
"298 -37 OFFCURVE",
"131 -37 CURVE SMOOTH",
"99 -37 OFFCURVE",
"24 -21 OFFCURVE",
"26 30 CURVE SMOOTH"
);
},
{
closed = 1;
nodes = (
"1034 554 OFFCURVE",
"1126 604 OFFCURVE",
"1141 613 CURVE SMOOTH",
"1148 617 OFFCURVE",
"1152 626 OFFCURVE",
"1152 635 CURVE SMOOTH",
"1153 644 OFFCURVE",
"1148 651 OFFCURVE",
"1139 651 CURVE SMOOTH",
"1123 651 OFFCURVE",
"1024 579 OFFCURVE",
"1019 575 CURVE SMOOTH",
"1016 573 OFFCURVE",
"1013 569 OFFCURVE",
"1013 565 CURVE SMOOTH",
"1013 558 OFFCURVE",
"1019 554 OFFCURVE",
"1024 554 CURVE SMOOTH"
);
}
);
width = 1089;
},
{
layerId = "AFE3E0A9-A514-4B93-8E4E-B7D18C88F31C";
paths = (
{
closed = 1;
nodes = (
"1082 449 OFFCURVE",
"1059 489 OFFCURVE",
"1287 489 CURVE SMOOTH",
"1312 489 OFFCURVE",
"1366 480 OFFCURVE",
"1389 471 CURVE",
"1400 471 OFFCURVE",
"1428 474 OFFCURVE",
"1428 489 CURVE SMOOTH",
"1428 522 OFFCURVE",
"1291 518 OFFCURVE",
"1268 518 CURVE SMOOTH",
"987 518 OFFCURVE",
"859 483 OFFCURVE",
"650 288 CURVE",
"507 277 OFFCURVE",
"8 239 OFFCURVE",
"8 39 CURVE SMOOTH",
"8 -45 OFFCURVE",
"102 -67 OFFCURVE",
"170 -67 CURVE SMOOTH",
"371 -67 OFFCURVE",
"526 111 OFFCURVE",
"658 242 CURVE",
"701 247 OFFCURVE",
"744 249 OFFCURVE",
"788 251 CURVE",
"738 200 OFFCURVE",
"667 121 OFFCURVE",
"667 46 CURVE SMOOTH",
"667 -27 OFFCURVE",
"757 -35 OFFCURVE",
"814 -35 CURVE SMOOTH",
"918 -35 OFFCURVE",
"1172 21 OFFCURVE",
"1239 96 CURVE",
"1240 103 OFFCURVE",
"1235 114 OFFCURVE",
"1226 114 CURVE SMOOTH",
"1225 114 OFFCURVE",
"1126 61 OFFCURVE",
"1115 57 CURVE SMOOTH",
"1027 25 OFFCURVE",
"944 8 OFFCURVE",
"850 8 CURVE SMOOTH",
"817 8 OFFCURVE",
"746 15 OFFCURVE",
"746 61 CURVE SMOOTH",
"746 91 OFFCURVE",
"771 135 OFFCURVE",
"787 161 CURVE SMOOTH",
"804 190 OFFCURVE",
"841 239 OFFCURVE",
"871 252 CURVE SMOOTH",
"915 271 OFFCURVE",
"1106 270 OFFCURVE",
"1169 280 CURVE SMOOTH",
"1180 281 OFFCURVE",
"1209 286 OFFCURVE",
"1211 298 CURVE",
"1202 307 LINE",
"1181 313 OFFCURVE",
"1154 311 OFFCURVE",
"1132 311 CURVE SMOOTH",
"1061 311 OFFCURVE",
"991 303 OFFCURVE",
"921 303 CURVE"
);
},
{
closed = 1;
nodes = (
"975 423 OFFCURVE",
"887 353 OFFCURVE",
"828 295 CURVE",
"788 294 OFFCURVE",
"748 292 OFFCURVE",
"707 289 CURVE",
"778 358 OFFCURVE",
"935 466 OFFCURVE",
"1033 481 CURVE"
);
},
{
closed = 1;
nodes = (
"28 182 OFFCURVE",
"489 227 OFFCURVE",
"595 239 CURVE",
"471 114 OFFCURVE",
"333 -37 OFFCURVE",
"148 -37 CURVE SMOOTH",
"112 -37 OFFCURVE",
"28 -21 OFFCURVE",
"28 30 CURVE SMOOTH"
);
},
{
closed = 1;
nodes = (
"1128 554 OFFCURVE",
"1229 604 OFFCURVE",
"1244 613 CURVE SMOOTH",
"1252 617 OFFCURVE",
"1257 626 OFFCURVE",
"1257 635 CURVE SMOOTH",
"1257 644 OFFCURVE",
"1251 651 OFFCURVE",
"1241 651 CURVE SMOOTH",
"1223 651 OFFCURVE",
"1117 579 OFFCURVE",
"1111 575 CURVE SMOOTH",
"1108 573 OFFCURVE",
"1104 569 OFFCURVE",
"1104 565 CURVE SMOOTH",
"1104 558 OFFCURVE",
"1111 554 OFFCURVE",
"1117 554 CURVE SMOOTH"
);
}
);
width = 1210;
}
);
unicode = 01FC;
},
{
color = 9;
glyphname = B;
lastChange = "2021-08-11 14:47:19 +0000";
layers = (
{
layerId = "57DEED6F-9A00-47D0-BD9B-6FE09716AB2D";
paths = (
{
closed = 1;
nodes = (
"642 498 OFFCURVE",
"599 527 OFFCURVE",
"514 545 CURVE SMOOTH",
"459 557 OFFCURVE",
"400 563 OFFCURVE",
"336 563 CURVE SMOOTH",
"229 563 OFFCURVE",
"140 549 OFFCURVE",
"71 521 CURVE SMOOTH",
"63 518 OFFCURVE",
"54 511 OFFCURVE",
"45 501 CURVE SMOOTH",
"36 492 OFFCURVE",
"32 483 OFFCURVE",
"32 475 CURVE SMOOTH",
"32 470 OFFCURVE",
"35 467 OFFCURVE",
"40 467 CURVE SMOOTH",
"42 467 OFFCURVE",
"45 468 OFFCURVE",
"48 469 CURVE SMOOTH",
"152 512 OFFCURVE",
"264 534 OFFCURVE",
"384 534 CURVE SMOOTH",
"429 534 OFFCURVE",
"472 530 OFFCURVE",
"514 522 CURVE SMOOTH",
"576 510 OFFCURVE",
"607 492 OFFCURVE",
"607 468 CURVE SMOOTH",
"607 458 OFFCURVE",
"598 443 OFFCURVE",
"584 430 CURVE SMOOTH",
"547 395 OFFCURVE",
"488 369 OFFCURVE",
"407 353 CURVE SMOOTH",
"391 350 OFFCURVE",
"365 347 OFFCURVE",
"359 346 CURVE SMOOTH",
"340 343 OFFCURVE",
"330 335 OFFCURVE",
"330 323 CURVE SMOOTH",
"330 317 OFFCURVE",
"334 314 OFFCURVE",
"343 314 CURVE SMOOTH",
"366 314 LINE SMOOTH",
"415 314 OFFCURVE",
"462 305 OFFCURVE",
"506 287 CURVE SMOOTH",
"563 263 OFFCURVE",
"591 230 OFFCURVE",
"591 188 CURVE SMOOTH",
"591 163 OFFCURVE",
"580 137 OFFCURVE",
"559 109 CURVE",
"486 173 OFFCURVE",
"374 207 OFFCURVE",
"224 210 CURVE",
"277 317 OFFCURVE",
"335 413 OFFCURVE",
"398 498 CURVE",
"399 500 OFFCURVE",
"400 502 OFFCURVE",
"400 504 CURVE SMOOTH",
"400 509 OFFCURVE",
"395 512 OFFCURVE",
"386 512 CURVE SMOOTH",
"363 512 OFFCURVE",
"345 505 OFFCURVE",
"335 490 CURVE SMOOTH",
"311 454 OFFCURVE",
"293 421 OFFCURVE",
"283 402 CURVE SMOOTH",
"250 341 OFFCURVE",
"213 263 OFFCURVE",
"190 210 CURVE",
"145 207 OFFCURVE",
"103 195 OFFCURVE",
"65 170 CURVE SMOOTH",
"22 141 OFFCURVE",
"1 105 OFFCURVE",
"1 60 CURVE SMOOTH",
"1 21 OFFCURVE",
"27 -9 OFFCURVE",
"79 -31 CURVE SMOOTH",
"119 -48 OFFCURVE",
"161 -57 OFFCURVE",
"206 -57 CURVE SMOOTH",
"273 -57 OFFCURVE",
"337 -48 OFFCURVE",
"398 -30 CURVE SMOOTH",
"470 -8 OFFCURVE",
"525 22 OFFCURVE",
"568 62 CURVE",
"577 53 OFFCURVE",
"586 39 OFFCURVE",
"596 21 CURVE SMOOTH",
"598 18 OFFCURVE",
"601 16 OFFCURVE",
"604 16 CURVE SMOOTH",
"611 16 OFFCURVE",
"615 21 OFFCURVE",
"615 30 CURVE SMOOTH",
"615 41 OFFCURVE",
"605 58 OFFCURVE",
"586 81 CURVE",
"619 118 OFFCURVE",
"635 153 OFFCURVE",
"635 184 CURVE SMOOTH",
"635 223 OFFCURVE",
"612 257 OFFCURVE",
"565 285 CURVE SMOOTH",
"530 306 OFFCURVE",
"491 321 OFFCURVE",
"443 332 CURVE",
"485 339 OFFCURVE",
"525 352 OFFCURVE",
"564 372 CURVE SMOOTH",
"616 398 OFFCURVE",
"642 427 OFFCURVE",
"642 459 CURVE SMOOTH"
);
},
{
closed = 1;
nodes = (
"466 6 OFFCURVE",
"354 -35 OFFCURVE",
"206 -35 CURVE SMOOTH",
"171 -35 OFFCURVE",
"138 -28 OFFCURVE",
"106 -14 CURVE SMOOTH",
"65 4 OFFCURVE",
"45 27 OFFCURVE",
"45 58 CURVE SMOOTH",
"45 125 OFFCURVE",
"89 166 OFFCURVE",
"178 181 CURVE",
"144 98 OFFCURVE",
"127 42 OFFCURVE",
"127 12 CURVE SMOOTH",
"127 -6 OFFCURVE",
"132 -15 OFFCURVE",
"143 -15 CURVE SMOOTH",
"150 -15 OFFCURVE",
"154 -11 OFFCURVE",
"154 -2 CURVE SMOOTH",
"154 0 OFFCURVE",
"154 3 OFFCURVE",
"153 6 CURVE SMOOTH",
"152 9 OFFCURVE",
"152 12 OFFCURVE",
"152 14 CURVE SMOOTH",
"152 43 OFFCURVE",
"172 100 OFFCURVE",
"212 185 CURVE",
"221 186 OFFCURVE",
"231 186 OFFCURVE",
"241 186 CURVE SMOOTH",
"293 186 OFFCURVE",
"346 178 OFFCURVE",
"400 161 CURVE SMOOTH",
"457 143 OFFCURVE",
"504 118 OFFCURVE",
"541 87 CURVE"
);
}
);
width = 630;
},
{
layerId = "A9A9B55F-A222-44B0-A0B6-968BE501F3F8";
paths = (
{
closed = 1;
nodes = (
"562 341 OFFCURVE",
"734 388 OFFCURVE",
"736 464 CURVE SMOOTH",
"739 561 OFFCURVE",
"453 574 OFFCURVE",
"393 574 CURVE SMOOTH",
"338 574 OFFCURVE",
"49 565 OFFCURVE",
"46 480 CURVE SMOOTH",
"46 470 OFFCURVE",
"52 466 OFFCURVE",
"60 466 CURVE SMOOTH",
"71 466 OFFCURVE",
"122 486 OFFCURVE",
"140 491 CURVE SMOOTH",
"240 519 OFFCURVE",
"324 536 OFFCURVE",
"426 536 CURVE SMOOTH",
"464 536 OFFCURVE",
"688 530 OFFCURVE",
"686 473 CURVE SMOOTH",
"685 460 OFFCURVE",
"670 447 OFFCURVE",
"661 440 CURVE SMOOTH",
"587 377 OFFCURVE",
"503 376 OFFCURVE",
"411 357 CURVE SMOOTH",
"396 354 OFFCURVE",
"373 349 OFFCURVE",
"373 328 CURVE SMOOTH",
"373 308 OFFCURVE",
"406 313 OFFCURVE",
"418 313 CURVE SMOOTH",
"481 313 OFFCURVE",
"661 290 OFFCURVE",
"658 193 CURVE SMOOTH",
"657 166 OFFCURVE",
"641 142 OFFCURVE",
"625 123 CURVE",
"527 199 OFFCURVE",
"387 218 OFFCURVE",
"267 221 CURVE",
"320 310 OFFCURVE",
"378 396 OFFCURVE",
"443 474 CURVE",
"452 483 OFFCURVE",
"466 497 OFFCURVE",
"469 509 CURVE",
"467 521 OFFCURVE",
"455 523 OFFCURVE",
"447 523 CURVE SMOOTH",
"423 523 OFFCURVE",
"402 519 OFFCURVE",
"385 499 CURVE SMOOTH",
"324 430 OFFCURVE",
"259 306 OFFCURVE",
"215 221 CURVE",
"136 215 OFFCURVE",
"0 175 OFFCURVE",
"-3 65 CURVE SMOOTH",
"-6 -32 OFFCURVE",
"162 -58 OFFCURVE",
"226 -58 CURVE SMOOTH",
"358 -58 OFFCURVE",
"529 -23 OFFCURVE",
"641 66 CURVE",
"653 53 OFFCURVE",
"667 30 OFFCURVE",
"674 17 CURVE SMOOTH",
"681 5 OFFCURVE",
"689 15 OFFCURVE",
"689 28 CURVE SMOOTH",
"689 44 OFFCURVE",
"673 75 OFFCURVE",
"663 86 CURVE",
"690 112 OFFCURVE",
"718 148 OFFCURVE",
"720 189 CURVE SMOOTH",
"723 278 OFFCURVE",
"585 328 OFFCURVE",
"503 335 CURVE"
);
},
{
closed = 1;
nodes = (
"169 -26 OFFCURVE",
"176 -8 OFFCURVE",
"176 3 CURVE SMOOTH",
"178 51 OFFCURVE",
"216 129 OFFCURVE",
"246 184 CURVE",
"258 185 LINE SMOOTH",
"389 192 OFFCURVE",
"521 165 OFFCURVE",
"610 98 CURVE",
"506 2 OFFCURVE",
"353 -34 OFFCURVE",
"227 -34 CURVE SMOOTH",
"205 -34 OFFCURVE",
"182 -31 OFFCURVE",
"160 -26 CURVE"
);
},
{
closed = 1;
nodes = (
"113 -12 OFFCURVE",
"57 11 OFFCURVE",
"58 57 CURVE SMOOTH",
"61 139 OFFCURVE",
"135 168 OFFCURVE",
"193 178 CURVE",
"174 138 OFFCURVE",
"136 60 OFFCURVE",
"135 17 CURVE SMOOTH",
"134 3 OFFCURVE",
"137 -14 OFFCURVE",
"144 -21 CURVE"
);
}
);
width = 702;
},
{
layerId = "AFE3E0A9-A514-4B93-8E4E-B7D18C88F31C";
paths = (
{
closed = 1;
nodes = (
"612 341 OFFCURVE",
"801 388 OFFCURVE",
"801 464 CURVE SMOOTH",
"801 560 OFFCURVE",
"486 574 OFFCURVE",
"416 574 CURVE SMOOTH",
"354 574 OFFCURVE",
"33 565 OFFCURVE",
"33 480 CURVE SMOOTH",
"33 470 OFFCURVE",
"41 466 OFFCURVE",
"50 466 CURVE SMOOTH",
"62 466 OFFCURVE",
"119 486 OFFCURVE",
"138 491 CURVE SMOOTH",
"248 519 OFFCURVE",
"340 536 OFFCURVE",
"453 536 CURVE SMOOTH",
"496 536 OFFCURVE",
"744 530 OFFCURVE",
"744 473 CURVE SMOOTH",
"744 459 OFFCURVE",
"727 447 OFFCURVE",
"717 439 CURVE SMOOTH",
"639 377 OFFCURVE",
"536 374 OFFCURVE",
"443 357 CURVE SMOOTH",
"427 354 OFFCURVE",
"402 349 OFFCURVE",
"402 328 CURVE SMOOTH",
"402 308 OFFCURVE",
"440 313 OFFCURVE",
"453 313 CURVE SMOOTH",
"523 313 OFFCURVE",
"724 290 OFFCURVE",
"724 193 CURVE SMOOTH",
"724 166 OFFCURVE",
"708 142 OFFCURVE",
"691 123 CURVE",
"579 199 OFFCURVE",
"422 218 OFFCURVE",
"289 221 CURVE",
"345 312 OFFCURVE",
"414 406 OFFCURVE",
"475 474 CURVE SMOOTH",
"483 482 OFFCURVE",
"499 497 OFFCURVE",
"502 509 CURVE",
"500 521 OFFCURVE",
"487 523 OFFCURVE",
"478 523 CURVE SMOOTH",
"451 523 OFFCURVE",
"428 519 OFFCURVE",
"409 499 CURVE SMOOTH",
"344 430 OFFCURVE",
"277 306 OFFCURVE",
"231 221 CURVE",
"143 215 OFFCURVE",
"-6 175 OFFCURVE",
"-6 65 CURVE SMOOTH",
"-6 -32 OFFCURVE",
"183 -58 OFFCURVE",
"255 -58 CURVE SMOOTH",
"401 -58 OFFCURVE",
"590 -23 OFFCURVE",
"711 66 CURVE",
"722 55 OFFCURVE",
"738 34 OFFCURVE",
"750 16 CURVE SMOOTH",
"757 5 OFFCURVE",
"766 15 OFFCURVE",
"766 28 CURVE SMOOTH",
"766 44 OFFCURVE",
"746 75 OFFCURVE",
"735 86 CURVE",
"763 112 OFFCURVE",
"793 148 OFFCURVE",
"793 189 CURVE SMOOTH",
"793 278 OFFCURVE",
"638 328 OFFCURVE",
"547 335 CURVE"
);
},
{
closed = 1;
nodes = (
"190 -26 OFFCURVE",
"197 -8 OFFCURVE",
"197 3 CURVE SMOOTH",
"197 50 OFFCURVE",
"233 125 OFFCURVE",
"267 184 CURVE",
"280 185 LINE SMOOTH",
"426 192 OFFCURVE",
"574 165 OFFCURVE",
"674 98 CURVE",
"563 2 OFFCURVE",
"394 -34 OFFCURVE",
"255 -34 CURVE SMOOTH",
"230 -34 OFFCURVE",
"204 -31 OFFCURVE",
"180 -26 CURVE"
);
},
{
closed = 1;
nodes = (
"127 -12 OFFCURVE",
"63 11 OFFCURVE",
"63 57 CURVE SMOOTH",
"63 139 OFFCURVE",
"144 168 OFFCURVE",
"209 178 CURVE",
"189 138 OFFCURVE",
"150 60 OFFCURVE",
"150 17 CURVE SMOOTH",
"150 6 OFFCURVE",
"153 -14 OFFCURVE",
"162 -21 CURVE"
);
}
);
width = 780;
}
);
note = B;
unicode = 0042;
},
{
color = 9;
glyphname = C;
lastChange = "2021-08-11 14:47:19 +0000";
layers = (
{
anchors = (
{
name = bottom;
position = "{220, -42}";
},
{
name = top;
position = "{625, 563}";
}
);
layerId = "57DEED6F-9A00-47D0-BD9B-6FE09716AB2D";
paths = (
{
closed = 1;
nodes = (
"700 519 OFFCURVE",
"662 545 OFFCURVE",
"587 545 CURVE SMOOTH",
"500 545 OFFCURVE",
"411 517 OFFCURVE",
"321 462 CURVE SMOOTH",
"200 388 OFFCURVE",
"49 239 OFFCURVE",
"49 92 CURVE SMOOTH",
"49 46 OFFCURVE",
"67 11 OFFCURVE",
"102 -12 CURVE SMOOTH",
"132 -32 OFFCURVE",
"171 -42 OFFCURVE",
"220 -42 CURVE SMOOTH",
"279 -42 OFFCURVE",
"346 -25 OFFCURVE",
"419 10 CURVE SMOOTH",
"483 40 OFFCURVE",
"540 76 OFFCURVE",
"592 124 CURVE SMOOTH",
"595 127 OFFCURVE",
"596 130 OFFCURVE",
"596 133 CURVE SMOOTH",
"596 142 OFFCURVE",
"597 140 OFFCURVE",
"589 140 CURVE SMOOTH",
"586 140 OFFCURVE",
"584 139 OFFCURVE",
"581 136 CURVE SMOOTH",
"467 40 OFFCURVE",
"350 -8 OFFCURVE",
"229 -8 CURVE SMOOTH",
"192 -8 OFFCURVE",
"162 0 OFFCURVE",
"140 18 CURVE SMOOTH",
"115 38 OFFCURVE",
"102 74 OFFCURVE",
"102 111 CURVE SMOOTH",
"102 253 OFFCURVE",
"243 376 OFFCURVE",
"360 444 CURVE SMOOTH",
"431 485 OFFCURVE",
"499 510 OFFCURVE",
"556 516 CURVE SMOOTH",
"567 517 OFFCURVE",
"578 518 OFFCURVE",
"589 518 CURVE SMOOTH",
"644 518 OFFCURVE",
"672 502 OFFCURVE",
"672 469 CURVE SMOOTH",
"672 436 OFFCURVE",
"650 402 OFFCURVE",
"605 368 CURVE SMOOTH",
"560 334 OFFCURVE",
"520 317 OFFCURVE",
"485 317 CURVE SMOOTH",
"451 317 OFFCURVE",
"434 330 OFFCURVE",
"434 356 CURVE SMOOTH",
"434 358 OFFCURVE",
"434 361 OFFCURVE",
"435 365 CURVE SMOOTH",
"436 369 OFFCURVE",
"436 372 OFFCURVE",
"436 374 CURVE SMOOTH",
"436 380 OFFCURVE",
"434 383 OFFCURVE",
"429 383 CURVE SMOOTH",
"417 383 OFFCURVE",
"411 370 OFFCURVE",
"411 343 CURVE SMOOTH",
"411 306 OFFCURVE",
"435 287 OFFCURVE",
"484 287 CURVE SMOOTH",
"531 287 OFFCURVE",
"578 306 OFFCURVE",
"625 342 CURVE SMOOTH",
"675 380 OFFCURVE",
"700 422 OFFCURVE",
"700 467 CURVE SMOOTH"
);
}
);
width = 568;
},
{
anchors = (
{
name = bottom;
position = "{243, -27}";
},
{
name = top;
position = "{734, 603}";
}
);
layerId = "A9A9B55F-A222-44B0-A0B6-968BE501F3F8";
paths = (
{
closed = 1;
nodes = (
"634 286 OFFCURVE",
"798 352 OFFCURVE",
"802 472 CURVE SMOOTH",
"804 536 OFFCURVE",
"746 556 OFFCURVE",
"672 556 CURVE SMOOTH",
"574 556 OFFCURVE",
"471 527 OFFCURVE",
"370 472 CURVE SMOOTH",
"249 406 OFFCURVE",
"57 258 OFFCURVE",
"52 97 CURVE SMOOTH",
"48 -16 OFFCURVE",
"162 -43 OFFCURVE",
"243 -43 CURVE SMOOTH",
"365 -43 OFFCURVE",
"597 28 OFFCURVE",
"680 142 CURVE SMOOTH",
"685 149 OFFCURVE",
"681 158 OFFCURVE",
"664 151 CURVE",
"648 132 OFFCURVE",
"601 95 OFFCURVE",
"580 82 CURVE SMOOTH",
"478 19 OFFCURVE",
"372 -10 OFFCURVE",
"256 -10 CURVE SMOOTH",
"190 -10 OFFCURVE",
"120 28 OFFCURVE",
"123 116 CURVE SMOOTH",
"129 275 OFFCURVE",
"424 517 OFFCURVE",
"673 517 CURVE SMOOTH",
"747 517 OFFCURVE",
"794 476 OFFCURVE",
"741 402 CURVE SMOOTH",
"701 346 OFFCURVE",
"617 310 OFFCURVE",
"557 310 CURVE SMOOTH",
"507 310 OFFCURVE",
"493 328 OFFCURVE",
"493 358 CURVE SMOOTH",
"493 370 OFFCURVE",
"503 391 OFFCURVE",
"482 391 CURVE SMOOTH",
"473 391 OFFCURVE",
"464 366 OFFCURVE",
"463 348 CURVE SMOOTH",
"461 295 OFFCURVE",
"510 286 OFFCURVE",
"548 286 CURVE SMOOTH"
);
}
);
width = 707;
},
{
layerId = "AFE3E0A9-A514-4B93-8E4E-B7D18C88F31C";
paths = (
{
closed = 1;
nodes = (
"692 286 OFFCURVE",
"873 350 OFFCURVE",
"873 472 CURVE SMOOTH",
"873 547 OFFCURVE",
"783 556 OFFCURVE",
"726 556 CURVE SMOOTH",
"617 556 OFFCURVE",
"506 528 OFFCURVE",
"394 472 CURVE SMOOTH",
"267 409 OFFCURVE",
"54 260 OFFCURVE",
"54 97 CURVE SMOOTH",
"54 -16 OFFCURVE",
"182 -43 OFFCURVE",
"272 -43 CURVE SMOOTH",
"408 -43 OFFCURVE",
"663 28 OFFCURVE",
"751 142 CURVE SMOOTH",
"757 150 OFFCURVE",
"751 158 OFFCURVE",
"733 151 CURVE",
"709 126 OFFCURVE",
"660 92 OFFCURVE",
"642 82 CURVE SMOOTH",
"531 19 OFFCURVE",
"414 -10 OFFCURVE",
"286 -10 CURVE SMOOTH",
"212 -10 OFFCURVE",
"133 28 OFFCURVE",
"133 116 CURVE SMOOTH",
"133 275 OFFCURVE",
"452 517 OFFCURVE",
"729 517 CURVE SMOOTH",
"811 517 OFFCURVE",
"865 476 OFFCURVE",
"809 402 CURVE SMOOTH",
"767 346 OFFCURVE",
"674 310 OFFCURVE",
"608 310 CURVE SMOOTH",
"552 310 OFFCURVE",
"534 328 OFFCURVE",
"534 358 CURVE SMOOTH",
"534 370 OFFCURVE",
"544 391 OFFCURVE",
"521 391 CURVE SMOOTH",
"511 391 OFFCURVE",
"502 366 OFFCURVE",
"502 348 CURVE SMOOTH",
"502 295 OFFCURVE",
"557 286 OFFCURVE",
"599 286 CURVE SMOOTH"
);
}
);
width = 786;
}
);
note = C;
unicode = 0043;
},
{
color = 11;
glyphname = Cacute;
lastChange = "2021-08-11 14:48:46 +0000";
layers = (
{
components = (
{
name = C;
},
{
name = acutecomb;
transform = "{1, 0, 0, 1, 566, -27}";
}
);
layerId = "57DEED6F-9A00-47D0-BD9B-6FE09716AB2D";
width = 568;
},
{
layerId = "A9A9B55F-A222-44B0-A0B6-968BE501F3F8";
paths = (
{
closed = 1;
nodes = (
"632 276 OFFCURVE",
"797 340 OFFCURVE",
"802 462 CURVE SMOOTH",
"804 537 OFFCURVE",
"724 546 OFFCURVE",
"672 546 CURVE SMOOTH",
"569 546 OFFCURVE",
"464 514 OFFCURVE",
"371 462 CURVE SMOOTH",
"251 398 OFFCURVE",
"57 248 OFFCURVE",
"52 87 CURVE SMOOTH",
"48 -26 OFFCURVE",
"162 -53 OFFCURVE",
"243 -53 CURVE SMOOTH",
"365 -53 OFFCURVE",
"597 18 OFFCURVE",
"680 132 CURVE SMOOTH",
"685 139 OFFCURVE",
"681 148 OFFCURVE",
"664 141 CURVE",
"642 116 OFFCURVE",
"596 82 OFFCURVE",
"580 72 CURVE SMOOTH",
"478 9 OFFCURVE",
"372 -20 OFFCURVE",
"256 -20 CURVE SMOOTH",
"190 -20 OFFCURVE",
"120 18 OFFCURVE",
"123 106 CURVE SMOOTH",
"129 265 OFFCURVE",
"424 507 OFFCURVE",
"673 507 CURVE SMOOTH",
"747 507 OFFCURVE",
"794 466 OFFCURVE",
"741 392 CURVE SMOOTH",
"701 336 OFFCURVE",
"617 300 OFFCURVE",
"557 300 CURVE SMOOTH",
"507 300 OFFCURVE",
"492 318 OFFCURVE",
"493 348 CURVE SMOOTH",
"493 360 OFFCURVE",
"503 381 OFFCURVE",
"482 381 CURVE SMOOTH",
"473 381 OFFCURVE",
"464 356 OFFCURVE",
"463 338 CURVE SMOOTH",
"461 285 OFFCURVE",
"510 276 OFFCURVE",
"548 276 CURVE SMOOTH"
);
},
{
closed = 1;
nodes = (
"689 595 OFFCURVE",
"781 645 OFFCURVE",
"796 654 CURVE SMOOTH",
"803 658 OFFCURVE",
"807 667 OFFCURVE",
"807 676 CURVE SMOOTH",
"808 685 OFFCURVE",
"803 692 OFFCURVE",
"794 692 CURVE SMOOTH",
"778 692 OFFCURVE",
"679 620 OFFCURVE",
"674 616 CURVE SMOOTH",
"671 614 OFFCURVE",
"668 610 OFFCURVE",
"668 606 CURVE SMOOTH",
"668 599 OFFCURVE",
"674 595 OFFCURVE",
"679 595 CURVE SMOOTH"
);
}
);
width = 707;
},
{
layerId = "AFE3E0A9-A514-4B93-8E4E-B7D18C88F31C";
paths = (
{
closed = 1;
nodes = (
"692 276 OFFCURVE",
"873 340 OFFCURVE",
"873 462 CURVE SMOOTH",
"873 537 OFFCURVE",
"783 546 OFFCURVE",
"726 546 CURVE SMOOTH",
"611 546 OFFCURVE",
"497 514 OFFCURVE",
"394 462 CURVE SMOOTH",
"264 398 OFFCURVE",
"54 248 OFFCURVE",
"54 87 CURVE SMOOTH",
"54 -26 OFFCURVE",
"182 -53 OFFCURVE",
"272 -53 CURVE SMOOTH",
"408 -53 OFFCURVE",
"663 18 OFFCURVE",
"751 132 CURVE SMOOTH",
"757 139 OFFCURVE",
"751 148 OFFCURVE",
"733 141 CURVE",
"709 116 OFFCURVE",
"660 82 OFFCURVE",
"642 72 CURVE SMOOTH",
"531 9 OFFCURVE",
"414 -20 OFFCURVE",
"286 -20 CURVE SMOOTH",
"212 -20 OFFCURVE",
"133 18 OFFCURVE",
"133 106 CURVE SMOOTH",
"133 265 OFFCURVE",
"452 507 OFFCURVE",
"729 507 CURVE SMOOTH",
"811 507 OFFCURVE",
"865 466 OFFCURVE",
"809 392 CURVE SMOOTH",
"767 336 OFFCURVE",
"674 300 OFFCURVE",
"608 300 CURVE SMOOTH",
"552 300 OFFCURVE",
"534 318 OFFCURVE",
"534 348 CURVE SMOOTH",
"534 360 OFFCURVE",
"544 381 OFFCURVE",
"521 381 CURVE SMOOTH",
"511 381 OFFCURVE",
"502 356 OFFCURVE",
"502 338 CURVE SMOOTH",
"502 285 OFFCURVE",
"557 276 OFFCURVE",
"599 276 CURVE SMOOTH"
);
},
{
closed = 1;
nodes = (
"744 595 OFFCURVE",
"845 645 OFFCURVE",
"860 654 CURVE SMOOTH",
"868 658 OFFCURVE",
"873 667 OFFCURVE",
"873 676 CURVE SMOOTH",
"873 685 OFFCURVE",
"867 692 OFFCURVE",
"857 692 CURVE SMOOTH",
"839 692 OFFCURVE",
"733 620 OFFCURVE",
"727 616 CURVE SMOOTH",
"724 614 OFFCURVE",
"720 610 OFFCURVE",
"720 606 CURVE SMOOTH",
"720 599 OFFCURVE",
"727 595 OFFCURVE",
"733 595 CURVE SMOOTH"
);
}
);
width = 786;
}
);
unicode = 0106;
},
{
color = 11;
glyphname = Ccaron;
lastChange = "2021-08-11 14:48:46 +0000";
layers = (
{
components = (
{
name = C;
},
{
name = caroncomb;
transform = "{1, 0, 0, 1, 555, -19}";
}
);
layerId = "57DEED6F-9A00-47D0-BD9B-6FE09716AB2D";
width = 568;
},
{
layerId = "A9A9B55F-A222-44B0-A0B6-968BE501F3F8";
paths = (
{
closed = 1;
nodes = (
"632 276 OFFCURVE",
"797 340 OFFCURVE",
"802 462 CURVE SMOOTH",
"804 537 OFFCURVE",
"724 546 OFFCURVE",
"672 546 CURVE SMOOTH",
"569 546 OFFCURVE",
"464 514 OFFCURVE",
"371 462 CURVE SMOOTH",
"251 398 OFFCURVE",
"57 248 OFFCURVE",
"52 87 CURVE SMOOTH",
"48 -26 OFFCURVE",
"162 -53 OFFCURVE",
"243 -53 CURVE SMOOTH",
"365 -53 OFFCURVE",
"597 18 OFFCURVE",
"680 132 CURVE SMOOTH",
"685 139 OFFCURVE",
"681 148 OFFCURVE",
"664 141 CURVE",
"642 116 OFFCURVE",
"596 82 OFFCURVE",
"580 72 CURVE SMOOTH",
"478 9 OFFCURVE",
"372 -20 OFFCURVE",
"256 -20 CURVE SMOOTH",
"190 -20 OFFCURVE",
"120 18 OFFCURVE",
"123 106 CURVE SMOOTH",
"129 265 OFFCURVE",
"424 507 OFFCURVE",
"673 507 CURVE SMOOTH",
"747 507 OFFCURVE",
"794 466 OFFCURVE",
"741 392 CURVE SMOOTH",
"701 336 OFFCURVE",
"617 300 OFFCURVE",
"557 300 CURVE SMOOTH",
"507 300 OFFCURVE",
"492 318 OFFCURVE",
"493 348 CURVE SMOOTH",
"493 360 OFFCURVE",
"503 381 OFFCURVE",
"482 381 CURVE SMOOTH",
"473 381 OFFCURVE",
"464 356 OFFCURVE",
"463 338 CURVE SMOOTH",
"461 285 OFFCURVE",
"510 276 OFFCURVE",
"548 276 CURVE SMOOTH"
);
},
{
closed = 1;
nodes = (
"838 644 LINE",
"840 652 LINE",
"840 656 OFFCURVE",
"833 660 OFFCURVE",
"830 660 CURVE SMOOTH",
"816 660 OFFCURVE",
"757 623 OFFCURVE",
"740 614 CURVE",
"728 628 OFFCURVE",
"689 662 OFFCURVE",
"670 662 CURVE SMOOTH",
"665 662 OFFCURVE",
"655 659 OFFCURVE",
"655 652 CURVE SMOOTH",
"655 645 OFFCURVE",
"718 579 OFFCURVE",
"724 579 CURVE SMOOTH",
"740 579 OFFCURVE",
"826 632 OFFCURVE",
"838 645 CURVE"
);
}
);
width = 707;
},
{
layerId = "AFE3E0A9-A514-4B93-8E4E-B7D18C88F31C";
paths = (
{
closed = 1;
nodes = (
"692 276 OFFCURVE",
"873 340 OFFCURVE",
"873 462 CURVE SMOOTH",
"873 537 OFFCURVE",
"783 546 OFFCURVE",
"726 546 CURVE SMOOTH",
"611 546 OFFCURVE",
"497 514 OFFCURVE",
"394 462 CURVE SMOOTH",
"264 398 OFFCURVE",
"54 248 OFFCURVE",
"54 87 CURVE SMOOTH",
"54 -26 OFFCURVE",
"182 -53 OFFCURVE",
"272 -53 CURVE SMOOTH",
"408 -53 OFFCURVE",
"663 18 OFFCURVE",
"751 132 CURVE SMOOTH",
"757 139 OFFCURVE",
"751 148 OFFCURVE",
"733 141 CURVE",
"709 116 OFFCURVE",
"660 82 OFFCURVE",
"642 72 CURVE SMOOTH",
"531 9 OFFCURVE",
"414 -20 OFFCURVE",
"286 -20 CURVE SMOOTH",
"212 -20 OFFCURVE",
"133 18 OFFCURVE",
"133 106 CURVE SMOOTH",
"133 265 OFFCURVE",
"452 507 OFFCURVE",
"729 507 CURVE SMOOTH",
"811 507 OFFCURVE",
"865 466 OFFCURVE",
"809 392 CURVE SMOOTH",
"767 336 OFFCURVE",
"674 300 OFFCURVE",
"608 300 CURVE SMOOTH",
"552 300 OFFCURVE",
"534 318 OFFCURVE",
"534 348 CURVE SMOOTH",
"534 360 OFFCURVE",
"544 381 OFFCURVE",
"521 381 CURVE SMOOTH",
"511 381 OFFCURVE",
"502 356 OFFCURVE",
"502 338 CURVE SMOOTH",
"502 285 OFFCURVE",
"557 276 OFFCURVE",
"599 276 CURVE SMOOTH"
);
},
{
closed = 1;
nodes = (
"906 644 LINE",
"909 652 LINE",
"909 656 OFFCURVE",
"901 660 OFFCURVE",
"897 660 CURVE SMOOTH",
"882 660 OFFCURVE",
"817 623 OFFCURVE",
"799 614 CURVE",
"785 628 OFFCURVE",
"741 662 OFFCURVE",
"720 662 CURVE SMOOTH",
"714 662 OFFCURVE",
"703 659 OFFCURVE",
"703 652 CURVE SMOOTH",
"703 645 OFFCURVE",
"776 579 OFFCURVE",
"783 579 CURVE SMOOTH",
"801 579 OFFCURVE",
"894 632 OFFCURVE",
"906 645 CURVE"
);
}
);
width = 786;
}
);
unicode = 010C;
},
{
color = 11;
glyphname = Ccedilla;
lastChange = "2021-08-11 14:48:46 +0000";
layers = (
{
components = (
{
name = C;
},
{
name = cedillacomb;
transform = "{1, 0, 0, 1, 105, -42}";
}
);
layerId = "57DEED6F-9A00-47D0-BD9B-6FE09716AB2D";
width = 568;
},
{
layerId = "A9A9B55F-A222-44B0-A0B6-968BE501F3F8";
paths = (
{
closed = 1;
nodes = (
"632 276 OFFCURVE",
"797 340 OFFCURVE",
"802 462 CURVE SMOOTH",
"804 537 OFFCURVE",
"724 546 OFFCURVE",
"672 546 CURVE SMOOTH",
"569 546 OFFCURVE",
"464 514 OFFCURVE",
"371 462 CURVE SMOOTH",
"251 398 OFFCURVE",
"57 248 OFFCURVE",
"52 87 CURVE SMOOTH",
"48 -26 OFFCURVE",
"162 -53 OFFCURVE",
"243 -53 CURVE SMOOTH",
"365 -53 OFFCURVE",
"597 18 OFFCURVE",
"680 132 CURVE SMOOTH",
"685 139 OFFCURVE",
"681 148 OFFCURVE",
"664 141 CURVE",
"642 116 OFFCURVE",
"596 82 OFFCURVE",
"580 72 CURVE SMOOTH",
"478 9 OFFCURVE",
"372 -20 OFFCURVE",
"256 -20 CURVE SMOOTH",
"190 -20 OFFCURVE",
"120 18 OFFCURVE",
"123 106 CURVE SMOOTH",
"129 265 OFFCURVE",
"424 507 OFFCURVE",
"673 507 CURVE SMOOTH",
"747 507 OFFCURVE",
"794 466 OFFCURVE",
"741 392 CURVE SMOOTH",
"701 336 OFFCURVE",
"617 300 OFFCURVE",
"557 300 CURVE SMOOTH",
"507 300 OFFCURVE",
"492 318 OFFCURVE",
"493 348 CURVE SMOOTH",
"493 360 OFFCURVE",
"503 381 OFFCURVE",
"482 381 CURVE SMOOTH",
"473 381 OFFCURVE",
"464 356 OFFCURVE",
"463 338 CURVE SMOOTH",
"461 285 OFFCURVE",
"510 276 OFFCURVE",
"548 276 CURVE SMOOTH"
);
},
{
closed = 1;
nodes = (
"181 -161 OFFCURVE",
"173 -145 OFFCURVE",
"155 -126 CURVE SMOOTH",
"137 -108 OFFCURVE",
"133 -91 OFFCURVE",
"133 -85 CURVE SMOOTH",
"133 -74 OFFCURVE",
"133 -67 OFFCURVE",
"141 -58 CURVE SMOOTH",
"149 -49 OFFCURVE",
"159 -44 OFFCURVE",
"175 -41 CURVE",
"173 -37 OFFCURVE",
"170 -36 OFFCURVE",
"164 -36 CURVE SMOOTH",
"144 -36 OFFCURVE",
"126 -43 OFFCURVE",
"113 -57 CURVE SMOOTH",
"100 -70 OFFCURVE",
"94 -85 OFFCURVE",
"93 -102 CURVE SMOOTH",
"93 -112 OFFCURVE",
"95 -127 OFFCURVE",
"111 -146 CURVE SMOOTH",
"127 -164 OFFCURVE",
"133 -176 OFFCURVE",
"134 -183 CURVE SMOOTH",
"136 -196 OFFCURVE",
"128 -223 OFFCURVE",
"106 -228 CURVE",
"35 -237 LINE SMOOTH",
"30 -238 OFFCURVE",
"26 -241 OFFCURVE",
"26 -243 CURVE SMOOTH",
"26 -248 OFFCURVE",
"30 -251 OFFCURVE",
"35 -251 CURVE SMOOTH",
"69 -251 OFFCURVE",
"99 -245 OFFCURVE",
"129 -234 CURVE SMOOTH",
"162 -219 OFFCURVE",
"180 -200 OFFCURVE",
"181 -176 CURVE SMOOTH"
);
}
);
width = 707;
},
{
layerId = "AFE3E0A9-A514-4B93-8E4E-B7D18C88F31C";
paths = (
{
closed = 1;
nodes = (
"692 276 OFFCURVE",
"873 340 OFFCURVE",
"873 462 CURVE SMOOTH",
"873 537 OFFCURVE",
"783 546 OFFCURVE",
"726 546 CURVE SMOOTH",
"611 546 OFFCURVE",
"497 514 OFFCURVE",
"394 462 CURVE SMOOTH",
"264 398 OFFCURVE",
"54 248 OFFCURVE",
"54 87 CURVE SMOOTH",
"54 -26 OFFCURVE",
"182 -53 OFFCURVE",
"272 -53 CURVE SMOOTH",
"408 -53 OFFCURVE",
"663 18 OFFCURVE",
"751 132 CURVE SMOOTH",
"757 139 OFFCURVE",
"751 148 OFFCURVE",
"733 141 CURVE",
"709 116 OFFCURVE",
"660 82 OFFCURVE",
"642 72 CURVE SMOOTH",
"531 9 OFFCURVE",
"414 -20 OFFCURVE",
"286 -20 CURVE SMOOTH",
"212 -20 OFFCURVE",
"133 18 OFFCURVE",
"133 106 CURVE SMOOTH",
"133 265 OFFCURVE",
"452 507 OFFCURVE",
"729 507 CURVE SMOOTH",
"811 507 OFFCURVE",
"865 466 OFFCURVE",
"809 392 CURVE SMOOTH",
"767 336 OFFCURVE",
"674 300 OFFCURVE",
"608 300 CURVE SMOOTH",
"552 300 OFFCURVE",
"534 318 OFFCURVE",
"534 348 CURVE SMOOTH",
"534 360 OFFCURVE",
"544 381 OFFCURVE",
"521 381 CURVE SMOOTH",
"511 381 OFFCURVE",
"502 356 OFFCURVE",
"502 338 CURVE SMOOTH",
"502 285 OFFCURVE",
"557 276 OFFCURVE",
"599 276 CURVE SMOOTH"
);
},
{
closed = 1;
nodes = (
"209 -161 OFFCURVE",
"198 -145 OFFCURVE",
"178 -126 CURVE SMOOTH",
"157 -108 OFFCURVE",
"152 -91 OFFCURVE",
"152 -85 CURVE SMOOTH",
"152 -74 OFFCURVE",
"152 -67 OFFCURVE",
"160 -58 CURVE SMOOTH",
"169 -49 OFFCURVE",
"180 -44 OFFCURVE",
"197 -41 CURVE",
"195 -37 OFFCURVE",
"191 -36 OFFCURVE",
"184 -36 CURVE SMOOTH",
"162 -36 OFFCURVE",
"143 -43 OFFCURVE",
"129 -57 CURVE SMOOTH",
"115 -70 OFFCURVE",
"108 -85 OFFCURVE",
"108 -102 CURVE SMOOTH",
"108 -112 OFFCURVE",
"112 -127 OFFCURVE",
"130 -146 CURVE SMOOTH",
"149 -164 OFFCURVE",
"155 -176 OFFCURVE",
"157 -183 CURVE SMOOTH",
"160 -196 OFFCURVE",
"152 -223 OFFCURVE",
"127 -228 CURVE",
"50 -237 LINE SMOOTH",
"44 -238 OFFCURVE",
"40 -241 OFFCURVE",
"40 -243 CURVE SMOOTH",
"40 -248 OFFCURVE",
"44 -251 OFFCURVE",
"50 -251 CURVE SMOOTH",
"87 -251 OFFCURVE",
"121 -245 OFFCURVE",
"153 -234 CURVE SMOOTH",
"190 -219 OFFCURVE",
"209 -200 OFFCURVE",
"209 -176 CURVE SMOOTH"
);
}
);
width = 639;
}
);
unicode = 00C7;
},
{
color = 11;
glyphname = Ccircumflex;
lastChange = "2021-08-11 14:48:46 +0000";
layers = (
{
components = (
{
name = C;
},
{
name = circumflexcomb;
transform = "{1, 0, 0, 1, 532, -27}";
}
);
layerId = "57DEED6F-9A00-47D0-BD9B-6FE09716AB2D";
width = 568;
},
{
layerId = "A9A9B55F-A222-44B0-A0B6-968BE501F3F8";
paths = (
{
closed = 1;
nodes = (
"753 642 OFFCURVE",
"725 671 OFFCURVE",
"717 686 CURVE SMOOTH",
"706 705 OFFCURVE",
"684 686 OFFCURVE",
"630 654 CURVE SMOOTH",
"587 627 OFFCURVE",
"558 605 OFFCURVE",
"557 600 CURVE SMOOTH",
"555 595 OFFCURVE",
"557 593 OFFCURVE",
"562 593 CURVE SMOOTH",
"568 593 OFFCURVE",
"605 612 OFFCURVE",
"677 656 CURVE",
"683 646 OFFCURVE",
"697 632 OFFCURVE",
"720 615 CURVE SMOOTH",
"722 614 OFFCURVE",
"743 596 OFFCURVE",
"759 590 CURVE",
"773 581 OFFCURVE",
"796 596 OFFCURVE",
"786 609 CURVE"
);
},
{
closed = 1;
nodes = (
"632 276 OFFCURVE",
"797 340 OFFCURVE",
"802 462 CURVE SMOOTH",
"804 537 OFFCURVE",
"724 546 OFFCURVE",
"672 546 CURVE SMOOTH",
"569 546 OFFCURVE",
"464 514 OFFCURVE",
"371 462 CURVE SMOOTH",
"251 398 OFFCURVE",
"57 248 OFFCURVE",
"52 87 CURVE SMOOTH",
"48 -26 OFFCURVE",
"162 -53 OFFCURVE",
"243 -53 CURVE SMOOTH",
"365 -53 OFFCURVE",
"597 18 OFFCURVE",
"680 132 CURVE SMOOTH",
"685 139 OFFCURVE",
"681 148 OFFCURVE",
"664 141 CURVE",
"642 116 OFFCURVE",
"596 82 OFFCURVE",
"580 72 CURVE SMOOTH",
"478 9 OFFCURVE",
"372 -20 OFFCURVE",
"256 -20 CURVE SMOOTH",
"190 -20 OFFCURVE",
"120 18 OFFCURVE",
"123 106 CURVE SMOOTH",
"129 265 OFFCURVE",
"424 507 OFFCURVE",
"673 507 CURVE SMOOTH",
"747 507 OFFCURVE",
"794 466 OFFCURVE",
"741 392 CURVE SMOOTH",
"701 336 OFFCURVE",
"617 300 OFFCURVE",
"557 300 CURVE SMOOTH",
"507 300 OFFCURVE",
"492 318 OFFCURVE",
"493 348 CURVE SMOOTH",
"493 360 OFFCURVE",
"503 381 OFFCURVE",
"482 381 CURVE SMOOTH",
"473 381 OFFCURVE",
"464 356 OFFCURVE",
"463 338 CURVE SMOOTH",
"461 285 OFFCURVE",
"510 276 OFFCURVE",
"548 276 CURVE SMOOTH"
);
}
);
width = 707;
},
{
layerId = "AFE3E0A9-A514-4B93-8E4E-B7D18C88F31C";
paths = (
{
closed = 1;
nodes = (
"812 642 OFFCURVE",
"780 671 OFFCURVE",
"771 686 CURVE SMOOTH",
"758 705 OFFCURVE",
"734 686 OFFCURVE",
"676 654 CURVE SMOOTH",
"629 627 OFFCURVE",
"598 605 OFFCURVE",
"597 600 CURVE",
"594 595 OFFCURVE",
"597 593 OFFCURVE",
"602 593 CURVE SMOOTH",
"609 593 OFFCURVE",
"650 612 OFFCURVE",
"728 656 CURVE",
"735 646 OFFCURVE",
"751 632 OFFCURVE",
"777 615 CURVE SMOOTH",
"779 614 OFFCURVE",
"803 596 OFFCURVE",
"821 590 CURVE",
"838 581 OFFCURVE",
"862 596 OFFCURVE",
"851 609 CURVE"
);
},
{
closed = 1;
nodes = (
"692 276 OFFCURVE",
"873 340 OFFCURVE",
"873 462 CURVE SMOOTH",
"873 537 OFFCURVE",
"783 546 OFFCURVE",
"726 546 CURVE SMOOTH",
"611 546 OFFCURVE",
"497 514 OFFCURVE",
"394 462 CURVE SMOOTH",
"264 398 OFFCURVE",
"54 248 OFFCURVE",
"54 87 CURVE SMOOTH",
"54 -26 OFFCURVE",
"182 -53 OFFCURVE",
"272 -53 CURVE SMOOTH",
"408 -53 OFFCURVE",
"663 18 OFFCURVE",
"751 132 CURVE SMOOTH",
"757 139 OFFCURVE",
"751 148 OFFCURVE",
"733 141 CURVE",
"709 116 OFFCURVE",
"660 82 OFFCURVE",
"642 72 CURVE SMOOTH",
"531 9 OFFCURVE",
"414 -20 OFFCURVE",
"286 -20 CURVE SMOOTH",
"212 -20 OFFCURVE",
"133 18 OFFCURVE",
"133 106 CURVE SMOOTH",
"133 265 OFFCURVE",
"452 507 OFFCURVE",
"729 507 CURVE SMOOTH",
"811 507 OFFCURVE",
"865 466 OFFCURVE",
"809 392 CURVE SMOOTH",
"767 336 OFFCURVE",
"674 300 OFFCURVE",
"608 300 CURVE SMOOTH",
"552 300 OFFCURVE",
"534 318 OFFCURVE",
"534 348 CURVE SMOOTH",
"534 360 OFFCURVE",
"544 381 OFFCURVE",
"521 381 CURVE SMOOTH",
"511 381 OFFCURVE",
"502 356 OFFCURVE",
"502 338 CURVE SMOOTH",
"502 285 OFFCURVE",
"557 276 OFFCURVE",
"599 276 CURVE SMOOTH"
);
}
);
width = 458;
}
);
unicode = 0108;
},
{
color = 11;
glyphname = Cdotaccent;
lastChange = "2021-08-11 14:48:46 +0000";
layers = (
{
components = (
{
name = C;
},
{
name = dotaccentcomb;
transform = "{1, 0, 0, 1, 599, -43}";
}
);
layerId = "57DEED6F-9A00-47D0-BD9B-6FE09716AB2D";
width = 568;
},
{
layerId = "A9A9B55F-A222-44B0-A0B6-968BE501F3F8";
paths = (
{
closed = 1;
nodes = (
"632 276 OFFCURVE",
"797 340 OFFCURVE",
"802 462 CURVE SMOOTH",
"804 537 OFFCURVE",
"724 546 OFFCURVE",
"672 546 CURVE SMOOTH",
"569 546 OFFCURVE",
"464 514 OFFCURVE",
"371 462 CURVE SMOOTH",
"251 398 OFFCURVE",
"57 248 OFFCURVE",
"52 87 CURVE SMOOTH",
"48 -26 OFFCURVE",
"162 -53 OFFCURVE",
"243 -53 CURVE SMOOTH",
"365 -53 OFFCURVE",
"597 18 OFFCURVE",
"680 132 CURVE SMOOTH",
"685 139 OFFCURVE",
"681 148 OFFCURVE",
"664 141 CURVE",
"642 116 OFFCURVE",
"596 82 OFFCURVE",
"580 72 CURVE SMOOTH",
"478 9 OFFCURVE",
"372 -20 OFFCURVE",
"256 -20 CURVE SMOOTH",
"190 -20 OFFCURVE",
"120 18 OFFCURVE",
"123 106 CURVE SMOOTH",
"129 265 OFFCURVE",
"424 507 OFFCURVE",
"673 507 CURVE SMOOTH",
"747 507 OFFCURVE",
"794 466 OFFCURVE",
"741 392 CURVE SMOOTH",
"701 336 OFFCURVE",
"617 300 OFFCURVE",
"557 300 CURVE SMOOTH",
"507 300 OFFCURVE",
"492 318 OFFCURVE",
"493 348 CURVE SMOOTH",
"493 360 OFFCURVE",
"503 381 OFFCURVE",
"482 381 CURVE SMOOTH",
"473 381 OFFCURVE",
"464 356 OFFCURVE",
"463 338 CURVE SMOOTH",
"461 285 OFFCURVE",
"510 276 OFFCURVE",
"548 276 CURVE SMOOTH"
);
},
{
closed = 1;
nodes = (
"697 599 OFFCURVE",
"708 585 OFFCURVE",
"725 585 CURVE SMOOTH",
"742 585 OFFCURVE",
"758 599 OFFCURVE",
"761 617 CURVE SMOOTH",
"764 635 OFFCURVE",
"753 649 OFFCURVE",
"735 649 CURVE SMOOTH",
"717 649 OFFCURVE",
"702 635 OFFCURVE",
"699 617 CURVE SMOOTH"
);
}
);
width = 707;
},
{
layerId = "AFE3E0A9-A514-4B93-8E4E-B7D18C88F31C";
paths = (
{
closed = 1;
nodes = (
"692 276 OFFCURVE",
"873 340 OFFCURVE",
"873 462 CURVE SMOOTH",
"873 537 OFFCURVE",
"783 546 OFFCURVE",
"726 546 CURVE SMOOTH",
"611 546 OFFCURVE",
"497 514 OFFCURVE",
"394 462 CURVE SMOOTH",
"264 398 OFFCURVE",
"54 248 OFFCURVE",
"54 87 CURVE SMOOTH",
"54 -26 OFFCURVE",
"182 -53 OFFCURVE",
"272 -53 CURVE SMOOTH",
"408 -53 OFFCURVE",
"663 18 OFFCURVE",
"751 132 CURVE SMOOTH",
"757 139 OFFCURVE",
"751 148 OFFCURVE",
"733 141 CURVE",
"709 116 OFFCURVE",
"660 82 OFFCURVE",
"642 72 CURVE SMOOTH",
"531 9 OFFCURVE",
"414 -20 OFFCURVE",
"286 -20 CURVE SMOOTH",
"212 -20 OFFCURVE",
"133 18 OFFCURVE",
"133 106 CURVE SMOOTH",
"133 265 OFFCURVE",
"452 507 OFFCURVE",
"729 507 CURVE SMOOTH",
"811 507 OFFCURVE",
"865 466 OFFCURVE",
"809 392 CURVE SMOOTH",
"767 336 OFFCURVE",
"674 300 OFFCURVE",
"608 300 CURVE SMOOTH",
"552 300 OFFCURVE",
"534 318 OFFCURVE",
"534 348 CURVE SMOOTH",
"534 360 OFFCURVE",
"544 381 OFFCURVE",
"521 381 CURVE SMOOTH",
"511 381 OFFCURVE",
"502 356 OFFCURVE",
"502 338 CURVE SMOOTH",
"502 285 OFFCURVE",
"557 276 OFFCURVE",
"599 276 CURVE SMOOTH"
);
},
{
closed = 1;
nodes = (
"752 599 OFFCURVE",
"765 585 OFFCURVE",
"784 585 CURVE SMOOTH",
"803 585 OFFCURVE",
"820 599 OFFCURVE",
"822 617 CURVE SMOOTH",
"825 635 OFFCURVE",
"812 649 OFFCURVE",
"793 649 CURVE SMOOTH",
"773 649 OFFCURVE",
"756 635 OFFCURVE",
"754 617 CURVE SMOOTH"
);
}
);
width = 786;
}
);
unicode = 010A;
},
{
color = 9;
glyphname = D;
lastChange = "2021-08-11 14:47:19 +0000";
layers = (
{
anchors = (
{
name = bottom;
position = "{211, -24}";
},
{
name = center;
position = "{237, 262}";
},
{
name = top;
position = "{549, 574}";
}
);
layerId = "57DEED6F-9A00-47D0-BD9B-6FE09716AB2D";
paths = (
{
closed = 1;
nodes = (
"786 403 OFFCURVE",
"737 469 OFFCURVE",
"640 514 CURVE SMOOTH",
"565 548 OFFCURVE",
"479 566 OFFCURVE",
"380 566 CURVE SMOOTH",
"336 566 OFFCURVE",
"288 562 OFFCURVE",
"237 554 CURVE SMOOTH",
"176 544 OFFCURVE",
"130 531 OFFCURVE",
"100 515 CURVE SMOOTH",
"79 504 OFFCURVE",
"69 491 OFFCURVE",
"69 476 CURVE SMOOTH",
"69 466 OFFCURVE",
"73 461 OFFCURVE",
"82 461 CURVE SMOOTH",
"85 461 OFFCURVE",
"90 462 OFFCURVE",
"95 465 CURVE SMOOTH",
"182 514 OFFCURVE",
"282 539 OFFCURVE",
"395 539 CURVE SMOOTH",
"480 539 OFFCURVE",
"555 524 OFFCURVE",
"620 494 CURVE SMOOTH",
"705 454 OFFCURVE",
"747 396 OFFCURVE",
"747 321 CURVE SMOOTH",
"747 274 OFFCURVE",
"731 228 OFFCURVE",
"698 181 CURVE SMOOTH",
"670 141 OFFCURVE",
"634 106 OFFCURVE",
"590 75 CURVE",
"525 161 OFFCURVE",
"402 206 OFFCURVE",
"223 210 CURVE",
"276 317 OFFCURVE",
"334 413 OFFCURVE",
"397 498 CURVE",
"398 500 OFFCURVE",
"399 502 OFFCURVE",
"399 504 CURVE SMOOTH",
"399 509 OFFCURVE",
"394 512 OFFCURVE",
"385 512 CURVE SMOOTH",
"362 512 OFFCURVE",
"344 505 OFFCURVE",
"334 490 CURVE SMOOTH",
"312 459 OFFCURVE",
"298 431 OFFCURVE",
"287 411 CURVE SMOOTH",
"252 347 OFFCURVE",
"219 280 OFFCURVE",
"189 210 CURVE",
"142 207 OFFCURVE",
"99 194 OFFCURVE",
"63 170 CURVE SMOOTH",
"21 142 OFFCURVE",
"0 105 OFFCURVE",
"0 60 CURVE SMOOTH",
"0 23 OFFCURVE",
"26 -7 OFFCURVE",
"78 -29 CURVE SMOOTH",
"124 -49 OFFCURVE",
"166 -55 OFFCURVE",
"204 -57 CURVE SMOOTH",
"223 -58 OFFCURVE",
"228 -58 OFFCURVE",
"244 -58 CURVE SMOOTH",
"374 -58 OFFCURVE",
"489 -28 OFFCURVE",
"589 32 CURVE",
"596 21 OFFCURVE",
"600 16 OFFCURVE",
"603 16 CURVE SMOOTH",
"610 16 OFFCURVE",
"613 21 OFFCURVE",
"613 30 CURVE SMOOTH",
"613 33 OFFCURVE",
"612 38 OFFCURVE",
"609 44 CURVE",
"659 77 OFFCURVE",
"700 116 OFFCURVE",
"731 160 CURVE SMOOTH",
"768 211 OFFCURVE",
"786 263 OFFCURVE",
"786 316 CURVE SMOOTH"
);
},
{
closed = 1;
nodes = (
"469 -3 OFFCURVE",
"357 -35 OFFCURVE",
"230 -35 CURVE SMOOTH",
"205 -35 LINE SMOOTH",
"169 -35 OFFCURVE",
"136 -26 OFFCURVE",
"105 -13 CURVE SMOOTH",
"64 4 OFFCURVE",
"44 28 OFFCURVE",
"44 58 CURVE SMOOTH",
"44 125 OFFCURVE",
"88 166 OFFCURVE",
"177 181 CURVE",
"143 98 OFFCURVE",
"126 42 OFFCURVE",
"126 12 CURVE SMOOTH",
"126 -6 OFFCURVE",
"131 -15 OFFCURVE",
"142 -15 CURVE SMOOTH",
"149 -15 OFFCURVE",
"153 -11 OFFCURVE",
"153 -2 CURVE SMOOTH",
"153 0 OFFCURVE",
"153 3 OFFCURVE",
"152 6 CURVE SMOOTH",
"151 9 OFFCURVE",
"151 12 OFFCURVE",
"151 14 CURVE SMOOTH",
"151 43 OFFCURVE",
"171 100 OFFCURVE",
"211 185 CURVE",
"220 186 OFFCURVE",
"228 186 OFFCURVE",
"237 186 CURVE SMOOTH",
"293 186 OFFCURVE",
"353 175 OFFCURVE",
"416 153 CURVE SMOOTH",
"491 127 OFFCURVE",
"537 98 OFFCURVE",
"568 60 CURVE"
);
}
);
width = 786;
},
{
anchors = (
{
name = bottom;
position = "{252, -24}";
},
{
name = top;
position = "{639, 568}";
}
);
layerId = "A9A9B55F-A222-44B0-A0B6-968BE501F3F8";
paths = (
{
closed = 1;
nodes = (
"775 93 OFFCURVE",
"907 199 OFFCURVE",
"911 321 CURVE SMOOTH",
"919 534 OFFCURVE",
"603 577 OFFCURVE",
"461 577 CURVE SMOOTH",
"406 577 OFFCURVE",
"109 562 OFFCURVE",
"106 481 CURVE SMOOTH",
"105 467 OFFCURVE",
"113 460 OFFCURVE",
"125 460 CURVE SMOOTH",
"140 460 OFFCURVE",
"183 483 OFFCURVE",
"201 490 CURVE SMOOTH",
"290 524 OFFCURVE",
"378 545 OFFCURVE",
"471 545 CURVE SMOOTH",
"587 545 OFFCURVE",
"862 503 OFFCURVE",
"856 326 CURVE SMOOTH",
"852 222 OFFCURVE",
"739 125 OFFCURVE",
"671 81 CURVE",
"590 180 OFFCURVE",
"418 219 OFFCURVE",
"290 222 CURVE",
"342 311 OFFCURVE",
"407 394 OFFCURVE",
"473 472 CURVE SMOOTH",
"488 489 OFFCURVE",
"496 499 OFFCURVE",
"498 507 CURVE",
"497 519 OFFCURVE",
"473 523 OFFCURVE",
"464 523 CURVE SMOOTH",
"440 523 OFFCURVE",
"421 518 OFFCURVE",
"403 499 CURVE SMOOTH",
"361 456 OFFCURVE",
"264 282 OFFCURVE",
"232 221 CURVE",
"153 215 OFFCURVE",
"18 176 OFFCURVE",
"14 65 CURVE SMOOTH",
"11 -35 OFFCURVE",
"199 -59 OFFCURVE",
"265 -59 CURVE SMOOTH",
"407 -59 OFFCURVE",
"542 -40 OFFCURVE",
"673 29 CURVE",
"677 25 OFFCURVE",
"685 15 OFFCURVE",
"690 15 CURVE SMOOTH",
"709 15 OFFCURVE",
"701 34 OFFCURVE",
"696 43 CURVE"
);
},
{
closed = 1;
nodes = (
"190 -25 OFFCURVE",
"195 -17 OFFCURVE",
"195 -8 CURVE SMOOTH",
"197 60 OFFCURVE",
"241 133 OFFCURVE",
"273 191 CURVE",
"283 192 LINE SMOOTH",
"396 203 OFFCURVE",
"561 151 OFFCURVE",
"643 66 CURVE",
"527 3 OFFCURVE",
"400 -35 OFFCURVE",
"274 -35 CURVE SMOOTH",
"243 -35 OFFCURVE",
"212 -34 OFFCURVE",
"182 -27 CURVE"
);
},
{
closed = 1;
nodes = (
"130 -12 OFFCURVE",
"74 18 OFFCURVE",
"75 63 CURVE SMOOTH",
"78 142 OFFCURVE",
"158 179 OFFCURVE",
"217 189 CURVE",
"197 149 OFFCURVE",
"155 49 OFFCURVE",
"153 6 CURVE SMOOTH",
"153 -3 OFFCURVE",
"155 -14 OFFCURVE",
"160 -21 CURVE"
);
}
);
width = 900;
},
{
anchors = (
{
name = bottom;
position = "{330, -36}";
},
{
name = top;
position = "{702, 590}";
}
);
layerId = "AFE3E0A9-A514-4B93-8E4E-B7D18C88F31C";
paths = (
{
closed = 1;
nodes = (
"859 93 OFFCURVE",
"1001 199 OFFCURVE",
"1001 321 CURVE SMOOTH",
"1001 534 OFFCURVE",
"649 577 OFFCURVE",
"491 577 CURVE SMOOTH",
"430 577 OFFCURVE",
"100 562 OFFCURVE",
"100 481 CURVE SMOOTH",
"100 467 OFFCURVE",
"109 460 OFFCURVE",
"122 460 CURVE SMOOTH",
"139 460 OFFCURVE",
"186 483 OFFCURVE",
"206 490 CURVE SMOOTH",
"303 524 OFFCURVE",
"400 545 OFFCURVE",
"503 545 CURVE SMOOTH",
"632 545 OFFCURVE",
"939 503 OFFCURVE",
"939 326 CURVE SMOOTH",
"939 222 OFFCURVE",
"817 125 OFFCURVE",
"743 81 CURVE",
"650 180 OFFCURVE",
"457 219 OFFCURVE",
"314 222 CURVE",
"361 298 OFFCURVE",
"420 374 OFFCURVE",
"508 472 CURVE SMOOTH",
"516 481 OFFCURVE",
"532 495 OFFCURVE",
"535 507 CURVE",
"533 519 OFFCURVE",
"507 523 OFFCURVE",
"497 523 CURVE SMOOTH",
"470 523 OFFCURVE",
"449 518 OFFCURVE",
"429 499 CURVE SMOOTH",
"385 456 OFFCURVE",
"283 282 OFFCURVE",
"250 221 CURVE",
"162 215 OFFCURVE",
"14 176 OFFCURVE",
"14 65 CURVE SMOOTH",
"14 -35 OFFCURVE",
"225 -59 OFFCURVE",
"298 -59 CURVE SMOOTH",
"456 -59 OFFCURVE",
"604 -40 OFFCURVE",
"748 29 CURVE",
"752 25 OFFCURVE",
"761 15 OFFCURVE",
"767 15 CURVE SMOOTH",
"788 15 OFFCURVE",
"779 34 OFFCURVE",
"772 43 CURVE"
);
},
{
closed = 1;
nodes = (
"213 -25 OFFCURVE",
"218 -17 OFFCURVE",
"218 -8 CURVE SMOOTH",
"218 60 OFFCURVE",
"263 133 OFFCURVE",
"297 191 CURVE",
"308 192 LINE SMOOTH",
"433 203 OFFCURVE",
"619 151 OFFCURVE",
"713 66 CURVE",
"587 3 OFFCURVE",
"447 -35 OFFCURVE",
"307 -35 CURVE SMOOTH",
"272 -35 OFFCURVE",
"238 -34 OFFCURVE",
"204 -27 CURVE"
);
},
{
closed = 1;
nodes = (
"146 -12 OFFCURVE",
"82 18 OFFCURVE",
"82 63 CURVE SMOOTH",
"82 142 OFFCURVE",
"170 179 OFFCURVE",
"234 189 CURVE",
"215 149 OFFCURVE",
"171 49 OFFCURVE",
"171 6 CURVE SMOOTH",
"171 -4 OFFCURVE",
"173 -14 OFFCURVE",
"180 -21 CURVE"
);
}
);
width = 1000;
}
);
note = D;
unicode = 0044;
},
{
color = 9;
glyphname = Eth;
lastChange = "2021-08-11 14:48:13 +0000";
layers = (
{
layerId = "57DEED6F-9A00-47D0-BD9B-6FE09716AB2D";
paths = (
{
closed = 1;
nodes = (
"403 363 OFFCURVE",
"395 363 OFFCURVE",
"378 363 CURVE",
"300 353 LINE",
"332 406 OFFCURVE",
"361 449 OFFCURVE",
"397 498 CURVE SMOOTH",
"398 500 OFFCURVE",
"399 502 OFFCURVE",
"399 504 CURVE SMOOTH",
"399 509 OFFCURVE",
"394 512 OFFCURVE",
"385 512 CURVE SMOOTH",
"362 512 OFFCURVE",
"344 505 OFFCURVE",
"334 490 CURVE SMOOTH",
"312 459 OFFCURVE",
"298 431 OFFCURVE",
"287 411 CURVE SMOOTH",
"275 389 OFFCURVE",
"263 367 OFFCURVE",
"252 344 CURVE",
"249 344 OFFCURVE",
"246 343 OFFCURVE",
"243 343 CURVE",
"215 337 OFFCURVE",
"190 329 OFFCURVE",
"178 323 CURVE SMOOTH",
"153 311 OFFCURVE",
"140 299 OFFCURVE",
"139 292 CURVE SMOOTH",
"138 287 OFFCURVE",
"145 287 OFFCURVE",
"157 289 CURVE",
"163 291 LINE",
"188 296 OFFCURVE",
"211 301 OFFCURVE",
"233 307 CURVE",
"217 275 OFFCURVE",
"203 243 OFFCURVE",
"189 210 CURVE",
"142 207 OFFCURVE",
"99 194 OFFCURVE",
"63 170 CURVE SMOOTH",
"21 142 OFFCURVE",
"0 105 OFFCURVE",
"0 60 CURVE SMOOTH",
"0 23 OFFCURVE",
"26 -7 OFFCURVE",
"78 -29 CURVE SMOOTH",
"124 -49 OFFCURVE",
"166 -55 OFFCURVE",
"204 -57 CURVE SMOOTH",
"223 -58 OFFCURVE",
"228 -58 OFFCURVE",
"244 -58 CURVE SMOOTH",
"374 -58 OFFCURVE",
"489 -28 OFFCURVE",
"589 32 CURVE",
"596 21 OFFCURVE",
"600 16 OFFCURVE",
"603 16 CURVE SMOOTH",
"610 16 OFFCURVE",
"613 21 OFFCURVE",
"613 30 CURVE SMOOTH",
"613 33 OFFCURVE",
"612 38 OFFCURVE",
"609 44 CURVE",
"659 77 OFFCURVE",
"700 116 OFFCURVE",
"731 160 CURVE SMOOTH",
"768 211 OFFCURVE",
"786 263 OFFCURVE",
"786 316 CURVE SMOOTH",
"786 403 OFFCURVE",
"737 469 OFFCURVE",
"640 514 CURVE SMOOTH",
"565 548 OFFCURVE",
"479 566 OFFCURVE",
"380 566 CURVE SMOOTH",
"336 566 OFFCURVE",
"288 562 OFFCURVE",
"237 554 CURVE SMOOTH",
"176 544 OFFCURVE",
"130 531 OFFCURVE",
"100 515 CURVE SMOOTH",
"79 504 OFFCURVE",
"69 491 OFFCURVE",
"69 476 CURVE SMOOTH",
"69 466 OFFCURVE",
"73 461 OFFCURVE",
"82 461 CURVE SMOOTH",
"85 461 OFFCURVE",
"90 462 OFFCURVE",
"95 465 CURVE SMOOTH",
"182 514 OFFCURVE",
"282 539 OFFCURVE",
"395 539 CURVE SMOOTH",
"480 539 OFFCURVE",
"555 524 OFFCURVE",
"620 494 CURVE SMOOTH",
"705 454 OFFCURVE",
"747 396 OFFCURVE",
"747 321 CURVE SMOOTH",
"747 274 OFFCURVE",
"731 228 OFFCURVE",
"698 181 CURVE SMOOTH",
"670 141 OFFCURVE",
"634 106 OFFCURVE",
"590 75 CURVE",
"525 161 OFFCURVE",
"402 206 OFFCURVE",
"223 210 CURVE",
"241 248 OFFCURVE",
"261 284 OFFCURVE",
"281 319 CURVE",
"319 329 OFFCURVE",
"351 339 OFFCURVE",
"375 346 CURVE",
"393 349 OFFCURVE",
"403 354 OFFCURVE",
"403 359 CURVE SMOOTH"
);
},
{
closed = 1;
nodes = (
"469 -3 OFFCURVE",
"357 -35 OFFCURVE",
"230 -35 CURVE SMOOTH",
"205 -35 LINE SMOOTH",
"169 -35 OFFCURVE",
"136 -26 OFFCURVE",
"105 -13 CURVE SMOOTH",
"64 4 OFFCURVE",
"44 28 OFFCURVE",
"44 58 CURVE SMOOTH",
"44 125 OFFCURVE",
"88 166 OFFCURVE",
"177 181 CURVE",
"143 98 OFFCURVE",
"126 42 OFFCURVE",
"126 12 CURVE SMOOTH",
"126 -6 OFFCURVE",
"131 -15 OFFCURVE",
"142 -15 CURVE SMOOTH",
"149 -15 OFFCURVE",
"153 -11 OFFCURVE",
"153 -2 CURVE SMOOTH",
"153 0 OFFCURVE",
"153 3 OFFCURVE",
"152 6 CURVE SMOOTH",
"151 9 OFFCURVE",
"151 12 OFFCURVE",
"151 14 CURVE SMOOTH",
"151 43 OFFCURVE",
"171 100 OFFCURVE",
"211 185 CURVE",
"220 186 OFFCURVE",
"228 186 OFFCURVE",
"237 186 CURVE SMOOTH",
"293 186 OFFCURVE",
"353 175 OFFCURVE",
"416 153 CURVE SMOOTH",
"491 127 OFFCURVE",
"537 98 OFFCURVE",
"568 60 CURVE"
);
}
);
width = 786;
},
{
components = (
{
name = D;
},
{
name = hyphen;
transform = "{1, 0, 0, 1, 83, -32}";
}
);
layerId = "A9A9B55F-A222-44B0-A0B6-968BE501F3F8";
width = 900;
},
{
layerId = "AFE3E0A9-A514-4B93-8E4E-B7D18C88F31C";
paths = (
{
closed = 1;
nodes = (
"233 287 OFFCURVE",
"290 301 OFFCURVE",
"297 303 CURVE",
"277 270 OFFCURVE",
"260 240 OFFCURVE",
"250 221 CURVE",
"162 215 OFFCURVE",
"14 176 OFFCURVE",
"14 65 CURVE SMOOTH",
"14 -35 OFFCURVE",
"225 -59 OFFCURVE",
"298 -59 CURVE SMOOTH",
"456 -59 OFFCURVE",
"604 -40 OFFCURVE",
"748 29 CURVE",
"752 25 OFFCURVE",
"761 15 OFFCURVE",
"767 15 CURVE SMOOTH",
"788 15 OFFCURVE",
"779 34 OFFCURVE",
"772 43 CURVE",
"859 93 OFFCURVE",
"1001 199 OFFCURVE",
"1001 321 CURVE SMOOTH",
"1001 534 OFFCURVE",
"649 577 OFFCURVE",
"491 577 CURVE SMOOTH",
"430 577 OFFCURVE",
"100 562 OFFCURVE",
"100 481 CURVE SMOOTH",
"100 467 OFFCURVE",
"109 460 OFFCURVE",
"122 460 CURVE SMOOTH",
"139 460 OFFCURVE",
"186 483 OFFCURVE",
"206 490 CURVE SMOOTH",
"303 524 OFFCURVE",
"400 545 OFFCURVE",
"503 545 CURVE SMOOTH",
"632 545 OFFCURVE",
"939 503 OFFCURVE",
"939 326 CURVE SMOOTH",
"939 222 OFFCURVE",
"817 125 OFFCURVE",
"743 81 CURVE",
"650 180 OFFCURVE",
"457 219 OFFCURVE",
"314 222 CURVE",
"336 257 OFFCURVE",
"360 292 OFFCURVE",
"385 325 CURVE",
"413 331 LINE SMOOTH",
"423 333 OFFCURVE",
"502 350 OFFCURVE",
"505 362 CURVE SMOOTH",
"507 373 OFFCURVE",
"466 373 OFFCURVE",
"420 369 CURVE",
"447 403 OFFCURVE",
"488 449 OFFCURVE",
"508 472 CURVE SMOOTH",
"516 481 OFFCURVE",
"532 495 OFFCURVE",
"535 507 CURVE",
"533 519 OFFCURVE",
"507 523 OFFCURVE",
"497 523 CURVE SMOOTH",
"470 523 OFFCURVE",
"449 518 OFFCURVE",
"429 499 CURVE SMOOTH",
"409 480 OFFCURVE",
"367 418 OFFCURVE",
"330 359 CURVE",
"321 357 OFFCURVE",
"313 356 OFFCURVE",
"309 356 CURVE",
"280 351 OFFCURVE",
"168 325 OFFCURVE",
"160 291 CURVE SMOOTH",
"157 277 OFFCURVE",
"191 281 OFFCURVE",
"205 283 CURVE SMOOTH"
);
},
{
closed = 1;
nodes = (
"213 -25 OFFCURVE",
"218 -17 OFFCURVE",
"218 -8 CURVE SMOOTH",
"218 60 OFFCURVE",
"263 133 OFFCURVE",
"297 191 CURVE",
"308 192 LINE SMOOTH",
"432 199 OFFCURVE",
"620 150 OFFCURVE",
"713 66 CURVE",
"587 3 OFFCURVE",
"447 -35 OFFCURVE",
"307 -35 CURVE SMOOTH",
"272 -35 OFFCURVE",
"238 -34 OFFCURVE",
"204 -27 CURVE"
);
},
{
closed = 1;
nodes = (
"146 -12 OFFCURVE",
"82 18 OFFCURVE",
"82 63 CURVE SMOOTH",
"82 142 OFFCURVE",
"170 179 OFFCURVE",
"234 189 CURVE",
"215 149 OFFCURVE",
"171 49 OFFCURVE",
"171 6 CURVE SMOOTH",
"171 -4 OFFCURVE",
"173 -14 OFFCURVE",
"180 -21 CURVE"
);
}
);
width = 973;
}
);
note = Eth;
unicode = 00D0;
},
{
color = 11;
glyphname = Dcaron;
lastChange = "2021-08-11 14:26:58 +0000";
layers = (
{
components = (
{
name = D;
},
{
name = caroncomb;
transform = "{1, 0, 0, 1, 479, -8}";
}
);
layerId = "57DEED6F-9A00-47D0-BD9B-6FE09716AB2D";
width = 786;
},
{
layerId = "A9A9B55F-A222-44B0-A0B6-968BE501F3F8";
paths = (
{
closed = 1;
nodes = (
"775 83 OFFCURVE",
"907 189 OFFCURVE",
"911 311 CURVE SMOOTH",
"919 524 OFFCURVE",
"603 567 OFFCURVE",
"461 567 CURVE SMOOTH",
"406 567 OFFCURVE",
"109 552 OFFCURVE",
"106 471 CURVE SMOOTH",
"105 457 OFFCURVE",
"113 450 OFFCURVE",
"125 450 CURVE SMOOTH",
"140 450 OFFCURVE",
"184 473 OFFCURVE",
"201 480 CURVE SMOOTH",
"290 514 OFFCURVE",
"378 535 OFFCURVE",
"471 535 CURVE SMOOTH",
"587 535 OFFCURVE",
"862 493 OFFCURVE",
"856 316 CURVE SMOOTH",
"852 212 OFFCURVE",
"739 115 OFFCURVE",
"671 71 CURVE",
"590 170 OFFCURVE",
"418 209 OFFCURVE",
"290 212 CURVE",
"342 301 OFFCURVE",
"407 384 OFFCURVE",
"473 462 CURVE SMOOTH",
"480 471 OFFCURVE",
"495 485 OFFCURVE",
"498 497 CURVE",
"497 509 OFFCURVE",
"473 513 OFFCURVE",
"464 513 CURVE SMOOTH",
"440 513 OFFCURVE",
"421 508 OFFCURVE",
"403 489 CURVE SMOOTH",
"361 446 OFFCURVE",
"264 272 OFFCURVE",
"232 211 CURVE",
"153 205 OFFCURVE",
"18 166 OFFCURVE",
"14 55 CURVE SMOOTH",
"11 -45 OFFCURVE",
"199 -69 OFFCURVE",
"265 -69 CURVE SMOOTH",
"407 -69 OFFCURVE",
"542 -50 OFFCURVE",
"673 19 CURVE",
"677 15 OFFCURVE",
"685 5 OFFCURVE",
"690 5 CURVE SMOOTH",
"709 5 OFFCURVE",
"701 24 OFFCURVE",
"696 33 CURVE"
);
},
{
closed = 1;
nodes = (
"190 -35 OFFCURVE",
"195 -27 OFFCURVE",
"195 -18 CURVE SMOOTH",
"197 50 OFFCURVE",
"241 123 OFFCURVE",
"273 181 CURVE",
"283 182 LINE SMOOTH",
"395 188 OFFCURVE",
"561 141 OFFCURVE",
"643 56 CURVE",
"527 -7 OFFCURVE",
"400 -45 OFFCURVE",
"274 -45 CURVE SMOOTH",
"243 -45 OFFCURVE",
"212 -44 OFFCURVE",
"182 -37 CURVE"
);
},
{
closed = 1;
nodes = (
"130 -22 OFFCURVE",
"74 8 OFFCURVE",
"75 53 CURVE SMOOTH",
"78 132 OFFCURVE",
"158 169 OFFCURVE",
"217 179 CURVE",
"197 139 OFFCURVE",
"155 39 OFFCURVE",
"153 -4 CURVE SMOOTH",
"153 -14 OFFCURVE",
"155 -24 OFFCURVE",
"160 -31 CURVE"
);
},
{
closed = 1;
nodes = (
"740 680 LINE",
"742 688 LINE",
"742 692 OFFCURVE",
"735 696 OFFCURVE",
"732 696 CURVE SMOOTH",
"718 696 OFFCURVE",
"659 659 OFFCURVE",
"642 650 CURVE",
"630 664 OFFCURVE",
"591 698 OFFCURVE",
"572 698 CURVE SMOOTH",
"567 698 OFFCURVE",
"557 695 OFFCURVE",
"557 688 CURVE SMOOTH",
"557 681 OFFCURVE",
"620 615 OFFCURVE",
"626 615 CURVE SMOOTH",
"642 615 OFFCURVE",
"728 668 OFFCURVE",
"740 681 CURVE"
);
}
);
width = 900;
},
{
layerId = "AFE3E0A9-A514-4B93-8E4E-B7D18C88F31C";
paths = (
{
closed = 1;
nodes = (
"859 83 OFFCURVE",
"1001 189 OFFCURVE",
"1001 311 CURVE SMOOTH",
"1001 524 OFFCURVE",
"649 567 OFFCURVE",
"491 567 CURVE SMOOTH",
"430 567 OFFCURVE",
"100 552 OFFCURVE",
"100 471 CURVE SMOOTH",
"100 457 OFFCURVE",
"109 450 OFFCURVE",
"122 450 CURVE SMOOTH",
"139 450 OFFCURVE",
"187 473 OFFCURVE",
"206 480 CURVE SMOOTH",
"303 514 OFFCURVE",
"400 535 OFFCURVE",
"503 535 CURVE SMOOTH",
"632 535 OFFCURVE",
"939 493 OFFCURVE",
"939 316 CURVE SMOOTH",
"939 212 OFFCURVE",
"817 115 OFFCURVE",
"743 71 CURVE",
"650 170 OFFCURVE",
"457 209 OFFCURVE",
"314 212 CURVE",
"369 301 OFFCURVE",
"438 384 OFFCURVE",
"508 462 CURVE SMOOTH",
"516 471 OFFCURVE",
"532 485 OFFCURVE",
"535 497 CURVE",
"533 509 OFFCURVE",
"507 513 OFFCURVE",
"497 513 CURVE SMOOTH",
"470 513 OFFCURVE",
"449 508 OFFCURVE",
"429 489 CURVE SMOOTH",
"385 446 OFFCURVE",
"283 272 OFFCURVE",
"250 211 CURVE",
"162 205 OFFCURVE",
"14 166 OFFCURVE",
"14 55 CURVE SMOOTH",
"14 -45 OFFCURVE",
"225 -69 OFFCURVE",
"298 -69 CURVE SMOOTH",
"456 -69 OFFCURVE",
"604 -50 OFFCURVE",
"748 19 CURVE",
"752 15 OFFCURVE",
"761 5 OFFCURVE",
"767 5 CURVE SMOOTH",
"788 5 OFFCURVE",
"779 24 OFFCURVE",
"772 33 CURVE"
);
},
{
closed = 1;
nodes = (
"213 -35 OFFCURVE",
"218 -27 OFFCURVE",
"218 -18 CURVE SMOOTH",
"218 50 OFFCURVE",
"263 123 OFFCURVE",
"297 181 CURVE",
"308 182 LINE SMOOTH",
"432 188 OFFCURVE",
"619 141 OFFCURVE",
"713 56 CURVE",
"587 -7 OFFCURVE",
"447 -45 OFFCURVE",
"307 -45 CURVE SMOOTH",
"272 -45 OFFCURVE",
"238 -44 OFFCURVE",
"204 -37 CURVE"
);
},
{
closed = 1;
nodes = (
"146 -22 OFFCURVE",
"82 8 OFFCURVE",
"82 53 CURVE SMOOTH",
"82 132 OFFCURVE",
"170 169 OFFCURVE",
"234 179 CURVE",
"215 139 OFFCURVE",
"171 39 OFFCURVE",
"171 -4 CURVE SMOOTH",
"171 -14 OFFCURVE",
"173 -24 OFFCURVE",
"180 -31 CURVE"
);
},
{
closed = 1;
nodes = (
"796 680 LINE",
"799 688 LINE",
"799 692 OFFCURVE",
"791 696 OFFCURVE",
"787 696 CURVE SMOOTH",
"772 696 OFFCURVE",
"707 659 OFFCURVE",
"689 650 CURVE",
"675 664 OFFCURVE",
"631 698 OFFCURVE",
"610 698 CURVE SMOOTH",
"604 698 OFFCURVE",
"593 695 OFFCURVE",
"593 688 CURVE SMOOTH",
"593 681 OFFCURVE",
"666 615 OFFCURVE",
"673 615 CURVE SMOOTH",
"691 615 OFFCURVE",
"784 668 OFFCURVE",
"796 681 CURVE"
);
}
);
width = 1000;
}
);
unicode = 010E;
},
{
color = 11;
glyphname = Dcroat;
lastChange = "2021-08-11 14:26:58 +0000";
layers = (
{
components = (
{
name = Eth;
}
);
layerId = "57DEED6F-9A00-47D0-BD9B-6FE09716AB2D";
width = 786;
},
{
layerId = "A9A9B55F-A222-44B0-A0B6-968BE501F3F8";
paths = (
{
closed = 1;
nodes = (
"775 83 OFFCURVE",
"907 189 OFFCURVE",
"911 311 CURVE SMOOTH",
"919 524 OFFCURVE",
"603 567 OFFCURVE",
"461 567 CURVE SMOOTH",
"406 567 OFFCURVE",
"109 552 OFFCURVE",
"106 471 CURVE SMOOTH",
"105 457 OFFCURVE",
"113 450 OFFCURVE",
"125 450 CURVE SMOOTH",
"140 450 OFFCURVE",
"184 473 OFFCURVE",
"201 480 CURVE SMOOTH",
"290 514 OFFCURVE",
"378 535 OFFCURVE",
"471 535 CURVE SMOOTH",
"587 535 OFFCURVE",
"862 493 OFFCURVE",
"856 316 CURVE SMOOTH",
"852 212 OFFCURVE",
"739 115 OFFCURVE",
"671 71 CURVE",
"590 170 OFFCURVE",
"418 209 OFFCURVE",
"290 212 CURVE",
"342 301 OFFCURVE",
"407 384 OFFCURVE",
"473 462 CURVE SMOOTH",
"480 471 OFFCURVE",
"495 485 OFFCURVE",
"498 497 CURVE",
"497 509 OFFCURVE",
"473 513 OFFCURVE",
"464 513 CURVE SMOOTH",
"440 513 OFFCURVE",
"421 508 OFFCURVE",
"403 489 CURVE SMOOTH",
"361 446 OFFCURVE",
"264 272 OFFCURVE",
"232 211 CURVE",
"153 205 OFFCURVE",
"18 166 OFFCURVE",
"14 55 CURVE SMOOTH",
"11 -45 OFFCURVE",
"199 -69 OFFCURVE",
"265 -69 CURVE SMOOTH",
"407 -69 OFFCURVE",
"542 -50 OFFCURVE",
"673 19 CURVE",
"677 15 OFFCURVE",
"685 5 OFFCURVE",
"690 5 CURVE SMOOTH",
"709 5 OFFCURVE",
"701 24 OFFCURVE",
"696 33 CURVE"
);
},
{
closed = 1;
nodes = (
"190 -35 OFFCURVE",
"195 -27 OFFCURVE",
"195 -18 CURVE SMOOTH",
"197 50 OFFCURVE",
"241 123 OFFCURVE",
"273 181 CURVE",
"283 182 LINE SMOOTH",
"395 188 OFFCURVE",
"561 141 OFFCURVE",
"643 56 CURVE",
"527 -7 OFFCURVE",
"400 -45 OFFCURVE",
"274 -45 CURVE SMOOTH",
"243 -45 OFFCURVE",
"212 -44 OFFCURVE",
"182 -37 CURVE"
);
},
{
closed = 1;
nodes = (
"130 -22 OFFCURVE",
"74 8 OFFCURVE",
"75 53 CURVE SMOOTH",
"78 132 OFFCURVE",
"158 169 OFFCURVE",
"217 179 CURVE",
"197 139 OFFCURVE",
"155 39 OFFCURVE",
"153 -4 CURVE SMOOTH",
"153 -14 OFFCURVE",
"155 -24 OFFCURVE",
"160 -31 CURVE"
);
},
{
closed = 1;
nodes = (
"271 258 OFFCURVE",
"314 260 OFFCURVE",
"360 263 CURVE SMOOTH",
"368 264 OFFCURVE",
"420 268 OFFCURVE",
"421 278 CURVE SMOOTH",
"421 299 OFFCURVE",
"301 297 OFFCURVE",
"283 297 CURVE SMOOTH",
"263 297 OFFCURVE",
"191 294 OFFCURVE",
"190 271 CURVE SMOOTH",
"190 257 OFFCURVE",
"215 258 OFFCURVE",
"223 258 CURVE SMOOTH"
);
}
);
width = 900;
},
{
layerId = "AFE3E0A9-A514-4B93-8E4E-B7D18C88F31C";
paths = (
{
closed = 1;
nodes = (
"859 83 OFFCURVE",
"1001 189 OFFCURVE",
"1001 311 CURVE SMOOTH",
"1001 524 OFFCURVE",
"649 567 OFFCURVE",
"491 567 CURVE SMOOTH",
"430 567 OFFCURVE",
"100 552 OFFCURVE",
"100 471 CURVE SMOOTH",
"100 457 OFFCURVE",
"109 450 OFFCURVE",
"122 450 CURVE SMOOTH",
"139 450 OFFCURVE",
"187 473 OFFCURVE",
"206 480 CURVE SMOOTH",
"303 514 OFFCURVE",
"400 535 OFFCURVE",
"503 535 CURVE SMOOTH",
"632 535 OFFCURVE",
"939 493 OFFCURVE",
"939 316 CURVE SMOOTH",
"939 212 OFFCURVE",
"817 115 OFFCURVE",
"743 71 CURVE",
"650 170 OFFCURVE",
"457 209 OFFCURVE",
"314 212 CURVE",
"369 301 OFFCURVE",
"438 384 OFFCURVE",
"508 462 CURVE SMOOTH",
"516 471 OFFCURVE",
"532 485 OFFCURVE",
"535 497 CURVE",
"533 509 OFFCURVE",
"507 513 OFFCURVE",
"497 513 CURVE SMOOTH",
"470 513 OFFCURVE",
"449 508 OFFCURVE",
"429 489 CURVE SMOOTH",
"385 446 OFFCURVE",
"283 272 OFFCURVE",
"250 211 CURVE",
"162 205 OFFCURVE",
"14 166 OFFCURVE",
"14 55 CURVE SMOOTH",
"14 -45 OFFCURVE",
"225 -69 OFFCURVE",
"298 -69 CURVE SMOOTH",
"456 -69 OFFCURVE",
"604 -50 OFFCURVE",
"748 19 CURVE",
"752 15 OFFCURVE",
"761 5 OFFCURVE",
"767 5 CURVE SMOOTH",
"788 5 OFFCURVE",
"779 24 OFFCURVE",
"772 33 CURVE"
);
},
{
closed = 1;
nodes = (
"213 -35 OFFCURVE",
"218 -27 OFFCURVE",
"218 -18 CURVE SMOOTH",
"218 50 OFFCURVE",
"263 123 OFFCURVE",
"297 181 CURVE",
"308 182 LINE SMOOTH",
"432 188 OFFCURVE",
"619 141 OFFCURVE",
"713 56 CURVE",
"587 -7 OFFCURVE",
"447 -45 OFFCURVE",
"307 -45 CURVE SMOOTH",
"272 -45 OFFCURVE",
"238 -44 OFFCURVE",
"204 -37 CURVE"
);
},
{
closed = 1;
nodes = (
"146 -22 OFFCURVE",
"82 8 OFFCURVE",
"82 53 CURVE SMOOTH",
"82 132 OFFCURVE",
"170 169 OFFCURVE",
"234 179 CURVE",
"215 139 OFFCURVE",
"171 39 OFFCURVE",
"171 -4 CURVE SMOOTH",
"171 -14 OFFCURVE",
"173 -24 OFFCURVE",
"180 -31 CURVE"
);
},
{
closed = 1;
nodes = (
"292 258 OFFCURVE",
"340 260 OFFCURVE",
"391 263 CURVE SMOOTH",
"400 264 OFFCURVE",
"458 268 OFFCURVE",
"458 278 CURVE SMOOTH",
"458 299 OFFCURVE",
"324 297 OFFCURVE",
"304 297 CURVE SMOOTH",
"282 297 OFFCURVE",
"202 294 OFFCURVE",
"202 271 CURVE SMOOTH",
"202 257 OFFCURVE",
"230 258 OFFCURVE",
"239 258 CURVE SMOOTH"
);
}
);
width = 1000;
}
);
unicode = 0110;
},
{
color = 9;
glyphname = E;
lastChange = "2021-08-11 14:47:19 +0000";
layers = (
{
anchors = (
{
name = bottom;
position = "{203, -47}";
},
{
name = ogonek;
position = "{206, -37}";
},
{
name = top;
position = "{609, 565}";
},
{
name = topleft;
position = "{20, 558}";
}
);
layerId = "57DEED6F-9A00-47D0-BD9B-6FE09716AB2D";
paths = (
{
closed = 1;
nodes = (
"683 519 OFFCURVE",
"646 545 OFFCURVE",
"571 545 CURVE SMOOTH",
"486 545 OFFCURVE",
"400 519 OFFCURVE",
"311 466 CURVE SMOOTH",
"234 420 OFFCURVE",
"164 361 OFFCURVE",
"108 284 CURVE",
"68 278 OFFCURVE",
"55 276 OFFCURVE",
"51 274 CURVE SMOOTH",
"37 269 OFFCURVE",
"30 259 OFFCURVE",
"30 242 CURVE SMOOTH",
"30 237 OFFCURVE",
"32 235 OFFCURVE",
"36 235 CURVE SMOOTH",
"35 235 OFFCURVE",
"50 238 OFFCURVE",
"82 244 CURVE",
"49 189 OFFCURVE",
"33 138 OFFCURVE",
"33 92 CURVE SMOOTH",
"33 46 OFFCURVE",
"50 11 OFFCURVE",
"85 -12 CURVE SMOOTH",
"115 -32 OFFCURVE",
"154 -42 OFFCURVE",
"203 -42 CURVE SMOOTH",
"263 -42 OFFCURVE",
"329 -24 OFFCURVE",
"402 10 CURVE SMOOTH",
"467 41 OFFCURVE",
"527 79 OFFCURVE",
"576 124 CURVE SMOOTH",
"579 127 OFFCURVE",
"580 130 OFFCURVE",
"580 133 CURVE SMOOTH",
"580 142 OFFCURVE",
"579 142 OFFCURVE",
"570 142 CURVE SMOOTH",
"568 142 OFFCURVE",
"566 141 OFFCURVE",
"563 139 CURVE SMOOTH",
"441 37 OFFCURVE",
"328 -14 OFFCURVE",
"225 -14 CURVE SMOOTH",
"184 -14 OFFCURVE",
"148 -4 OFFCURVE",
"123 14 CURVE SMOOTH",
"91 36 OFFCURVE",
"79 72 OFFCURVE",
"79 112 CURVE SMOOTH",
"79 155 OFFCURVE",
"101 201 OFFCURVE",
"134 251 CURVE",
"217 263 OFFCURVE",
"289 269 OFFCURVE",
"351 269 CURVE SMOOTH",
"364 269 OFFCURVE",
"383 267 OFFCURVE",
"408 263 CURVE SMOOTH",
"432 260 OFFCURVE",
"448 258 OFFCURVE",
"457 258 CURVE SMOOTH",
"466 258 OFFCURVE",
"471 262 OFFCURVE",
"471 271 CURVE SMOOTH",
"471 290 OFFCURVE",
"421 299 OFFCURVE",
"320 299 CURVE SMOOTH",
"271 299 OFFCURVE",
"219 296 OFFCURVE",
"162 289 CURVE",
"211 348 OFFCURVE",
"268 400 OFFCURVE",
"343 444 CURVE SMOOTH",
"427 493 OFFCURVE",
"503 518 OFFCURVE",
"572 518 CURVE SMOOTH",
"627 518 OFFCURVE",
"655 502 OFFCURVE",
"655 469 CURVE SMOOTH",
"655 437 OFFCURVE",
"624 397 OFFCURVE",
"562 349 CURVE SMOOTH",
"556 345 OFFCURVE",
"554 340 OFFCURVE",
"554 335 CURVE SMOOTH",
"554 324 OFFCURVE",
"560 319 OFFCURVE",
"571 319 CURVE SMOOTH",
"575 319 OFFCURVE",
"579 320 OFFCURVE",
"584 323 CURVE SMOOTH",
"610 339 OFFCURVE",
"630 356 OFFCURVE",
"651 384 CURVE SMOOTH",
"673 413 OFFCURVE",
"683 441 OFFCURVE",
"683 467 CURVE SMOOTH"
);
}
);
width = 583;
},
{
anchors = (
{
name = bottom;
position = "{203, -47}";
},
{
name = ogonek;
position = "{206, -37}";
},
{
name = top;
position = "{685, 565}";
}
);
layerId = "A9A9B55F-A222-44B0-A0B6-968BE501F3F8";
paths = (
{
closed = 1;
nodes = (
"722 343 OFFCURVE",
"781 416 OFFCURVE",
"783 472 CURVE SMOOTH",
"785 547 OFFCURVE",
"706 556 OFFCURVE",
"655 556 CURVE SMOOTH",
"470 556 OFFCURVE",
"256 446 OFFCURVE",
"126 295 CURVE",
"97 291 OFFCURVE",
"36 293 OFFCURVE",
"35 247 CURVE SMOOTH",
"34 213 OFFCURVE",
"67 229 OFFCURVE",
"83 232 CURVE",
"56 189 OFFCURVE",
"35 149 OFFCURVE",
"34 97 CURVE SMOOTH",
"31 -19 OFFCURVE",
"144 -43 OFFCURVE",
"224 -43 CURVE SMOOTH",
"424 -43 OFFCURVE",
"627 91 OFFCURVE",
"656 138 CURVE SMOOTH",
"663 150 OFFCURVE",
"661 152 OFFCURVE",
"648 152 CURVE SMOOTH",
"639 152 OFFCURVE",
"502 -3 OFFCURVE",
"249 -3 CURVE SMOOTH",
"94 -3 OFFCURVE",
"46 97 OFFCURVE",
"176 262 CURVE",
"256 272 OFFCURVE",
"284 272 OFFCURVE",
"364 272 CURVE SMOOTH",
"403 272 OFFCURVE",
"489 273 OFFCURVE",
"529 270 CURVE SMOOTH",
"561 268 OFFCURVE",
"568 282 OFFCURVE",
"551 289 CURVE SMOOTH",
"535 295 OFFCURVE",
"446 304 OFFCURVE",
"361 304 CURVE SMOOTH",
"304 304 OFFCURVE",
"267 306 OFFCURVE",
"211 301 CURVE",
"324 416 OFFCURVE",
"502 517 OFFCURVE",
"654 517 CURVE SMOOTH",
"681 517 OFFCURVE",
"759 516 OFFCURVE",
"758 473 CURVE SMOOTH",
"756 412 OFFCURVE",
"655 363 OFFCURVE",
"627 339 CURVE SMOOTH",
"598 314 OFFCURVE",
"647 314 OFFCURVE",
"662 320 CURVE SMOOTH"
);
}
);
width = 672;
},
{
anchors = (
{
name = bottom;
position = "{203, -47}";
},
{
name = ogonek;
position = "{206, -37}";
},
{
name = top;
position = "{749, 579}";
}
);
layerId = "AFE3E0A9-A514-4B93-8E4E-B7D18C88F31C";
paths = (
{
closed = 1;
nodes = (
"790 343 OFFCURVE",
"852 416 OFFCURVE",
"852 472 CURVE SMOOTH",
"852 547 OFFCURVE",
"763 556 OFFCURVE",
"707 556 CURVE SMOOTH",
"501 556 OFFCURVE",
"268 446 OFFCURVE",
"130 295 CURVE",
"98 291 OFFCURVE",
"30 293 OFFCURVE",
"30 247 CURVE SMOOTH",
"30 213 OFFCURVE",
"67 229 OFFCURVE",
"85 232 CURVE",
"56 189 OFFCURVE",
"34 149 OFFCURVE",
"34 97 CURVE SMOOTH",
"34 -17 OFFCURVE",
"160 -43 OFFCURVE",
"251 -43 CURVE SMOOTH",
"473 -43 OFFCURVE",
"695 91 OFFCURVE",
"725 138 CURVE SMOOTH",
"733 150 OFFCURVE",
"730 152 OFFCURVE",
"716 152 CURVE SMOOTH",
"706 152 OFFCURVE",
"559 -3 OFFCURVE",
"278 -3 CURVE SMOOTH",
"106 -3 OFFCURVE",
"48 97 OFFCURVE",
"187 262 CURVE",
"274 272 OFFCURVE",
"306 272 OFFCURVE",
"394 272 CURVE SMOOTH",
"438 272 OFFCURVE",
"533 273 OFFCURVE",
"578 270 CURVE SMOOTH",
"613 268 OFFCURVE",
"621 282 OFFCURVE",
"602 289 CURVE SMOOTH",
"585 295 OFFCURVE",
"485 304 OFFCURVE",
"390 304 CURVE SMOOTH",
"327 304 OFFCURVE",
"286 306 OFFCURVE",
"223 301 CURVE",
"345 416 OFFCURVE",
"539 517 OFFCURVE",
"708 517 CURVE SMOOTH",
"738 517 OFFCURVE",
"824 516 OFFCURVE",
"824 473 CURVE SMOOTH",
"824 412 OFFCURVE",
"714 363 OFFCURVE",
"684 339 CURVE SMOOTH",
"653 314 OFFCURVE",
"707 314 OFFCURVE",
"724 320 CURVE SMOOTH"
);
}
);
width = 747;
}
);
note = E;
unicode = 0045;
},
{
color = 11;
glyphname = Eacute;
lastChange = "2021-08-11 14:48:46 +0000";
layers = (
{
components = (
{
name = E;
},
{
name = acutecomb;
transform = "{1, 0, 0, 1, 550, -25}";
}
);
layerId = "57DEED6F-9A00-47D0-BD9B-6FE09716AB2D";
width = 583;
},
{
layerId = "A9A9B55F-A222-44B0-A0B6-968BE501F3F8";
paths = (
{
closed = 1;
nodes = (
"686 589 OFFCURVE",
"778 639 OFFCURVE",
"793 648 CURVE SMOOTH",
"800 652 OFFCURVE",
"804 661 OFFCURVE",
"804 670 CURVE SMOOTH",
"805 679 OFFCURVE",
"800 686 OFFCURVE",
"791 686 CURVE SMOOTH",
"775 686 OFFCURVE",
"676 614 OFFCURVE",
"671 610 CURVE SMOOTH",
"668 608 OFFCURVE",
"665 604 OFFCURVE",
"665 600 CURVE SMOOTH",
"665 593 OFFCURVE",
"671 589 OFFCURVE",
"676 589 CURVE SMOOTH"
);
},
{
closed = 1;
nodes = (
"722 333 OFFCURVE",
"781 406 OFFCURVE",
"783 462 CURVE SMOOTH",
"785 537 OFFCURVE",
"706 546 OFFCURVE",
"655 546 CURVE SMOOTH",
"470 546 OFFCURVE",
"256 436 OFFCURVE",
"126 285 CURVE",
"97 281 OFFCURVE",
"36 283 OFFCURVE",
"35 237 CURVE SMOOTH",
"34 203 OFFCURVE",
"67 219 OFFCURVE",
"83 222 CURVE",
"56 179 OFFCURVE",
"35 139 OFFCURVE",
"34 87 CURVE SMOOTH",
"30 -27 OFFCURVE",
"142 -53 OFFCURVE",
"224 -53 CURVE SMOOTH",
"424 -53 OFFCURVE",
"627 81 OFFCURVE",
"656 128 CURVE SMOOTH",
"664 140 OFFCURVE",
"660 142 OFFCURVE",
"648 142 CURVE SMOOTH",
"639 142 OFFCURVE",
"502 -13 OFFCURVE",
"249 -13 CURVE SMOOTH",
"94 -13 OFFCURVE",
"46 87 OFFCURVE",
"176 252 CURVE",
"256 262 OFFCURVE",
"284 262 OFFCURVE",
"364 262 CURVE SMOOTH",
"403 262 OFFCURVE",
"489 263 OFFCURVE",
"529 260 CURVE SMOOTH",
"561 258 OFFCURVE",
"568 272 OFFCURVE",
"551 279 CURVE SMOOTH",
"535 285 OFFCURVE",
"446 294 OFFCURVE",
"361 294 CURVE SMOOTH",
"304 294 OFFCURVE",
"267 296 OFFCURVE",
"211 291 CURVE",
"324 406 OFFCURVE",
"502 507 OFFCURVE",
"654 507 CURVE SMOOTH",
"681 507 OFFCURVE",
"759 506 OFFCURVE",
"758 463 CURVE SMOOTH",
"756 402 OFFCURVE",
"655 353 OFFCURVE",
"627 329 CURVE SMOOTH",
"598 304 OFFCURVE",
"647 304 OFFCURVE",
"662 310 CURVE SMOOTH"
);
}
);
width = 649;
},
{
layerId = "AFE3E0A9-A514-4B93-8E4E-B7D18C88F31C";
paths = (
{
closed = 1;
nodes = (
"740 589 OFFCURVE",
"841 639 OFFCURVE",
"856 648 CURVE SMOOTH",
"864 652 OFFCURVE",
"869 661 OFFCURVE",
"869 670 CURVE SMOOTH",
"869 679 OFFCURVE",
"863 686 OFFCURVE",
"853 686 CURVE SMOOTH",
"835 686 OFFCURVE",
"729 614 OFFCURVE",
"723 610 CURVE SMOOTH",
"720 608 OFFCURVE",
"716 604 OFFCURVE",
"716 600 CURVE SMOOTH",
"716 593 OFFCURVE",
"723 589 OFFCURVE",
"729 589 CURVE SMOOTH"
);
},
{
closed = 1;
nodes = (
"790 333 OFFCURVE",
"852 406 OFFCURVE",
"852 462 CURVE SMOOTH",
"852 537 OFFCURVE",
"763 546 OFFCURVE",
"707 546 CURVE SMOOTH",
"501 546 OFFCURVE",
"268 436 OFFCURVE",
"130 285 CURVE",
"98 281 OFFCURVE",
"30 283 OFFCURVE",
"30 237 CURVE SMOOTH",
"30 203 OFFCURVE",
"67 219 OFFCURVE",
"85 222 CURVE",
"56 179 OFFCURVE",
"34 139 OFFCURVE",
"34 87 CURVE SMOOTH",
"34 -27 OFFCURVE",
"160 -53 OFFCURVE",
"251 -53 CURVE SMOOTH",
"473 -53 OFFCURVE",
"695 81 OFFCURVE",
"725 128 CURVE SMOOTH",
"733 140 OFFCURVE",
"729 142 OFFCURVE",
"716 142 CURVE SMOOTH",
"706 142 OFFCURVE",
"559 -13 OFFCURVE",
"278 -13 CURVE SMOOTH",
"106 -13 OFFCURVE",
"48 87 OFFCURVE",
"187 252 CURVE",
"274 262 OFFCURVE",
"306 262 OFFCURVE",
"394 262 CURVE SMOOTH",
"438 262 OFFCURVE",
"533 263 OFFCURVE",
"578 260 CURVE SMOOTH",
"613 258 OFFCURVE",
"621 272 OFFCURVE",
"602 279 CURVE SMOOTH",
"585 285 OFFCURVE",
"485 294 OFFCURVE",
"390 294 CURVE SMOOTH",
"327 294 OFFCURVE",
"286 296 OFFCURVE",
"223 291 CURVE",
"345 406 OFFCURVE",
"539 507 OFFCURVE",
"708 507 CURVE SMOOTH",
"738 507 OFFCURVE",
"824 506 OFFCURVE",
"824 463 CURVE SMOOTH",
"824 402 OFFCURVE",
"714 353 OFFCURVE",
"684 329 CURVE SMOOTH",
"653 304 OFFCURVE",
"708 304 OFFCURVE",
"724 310 CURVE SMOOTH"
);
}
);
width = 721;
}
);
unicode = 00C9;
},
{
color = 11;
glyphname = Ebreve;
lastChange = "2021-08-11 14:48:46 +0000";
layers = (
{
components = (
{
name = E;
},
{
name = brevecomb;
transform = "{1, 0, 0, 1, 544, -25}";
}
);
layerId = "57DEED6F-9A00-47D0-BD9B-6FE09716AB2D";
width = 583;
},
{
layerId = "A9A9B55F-A222-44B0-A0B6-968BE501F3F8";
paths = (
{
closed = 1;
nodes = (
"722 333 OFFCURVE",
"781 406 OFFCURVE",
"783 462 CURVE SMOOTH",
"785 537 OFFCURVE",
"706 546 OFFCURVE",
"655 546 CURVE SMOOTH",
"470 546 OFFCURVE",
"256 436 OFFCURVE",
"126 285 CURVE",
"97 281 OFFCURVE",
"36 283 OFFCURVE",
"35 237 CURVE SMOOTH",
"34 203 OFFCURVE",
"67 219 OFFCURVE",
"83 222 CURVE",
"56 179 OFFCURVE",
"35 139 OFFCURVE",
"34 87 CURVE SMOOTH",
"30 -27 OFFCURVE",
"142 -53 OFFCURVE",
"224 -53 CURVE SMOOTH",
"424 -53 OFFCURVE",
"627 81 OFFCURVE",
"656 128 CURVE SMOOTH",
"664 140 OFFCURVE",
"660 142 OFFCURVE",
"648 142 CURVE SMOOTH",
"639 142 OFFCURVE",
"502 -13 OFFCURVE",
"249 -13 CURVE SMOOTH",
"94 -13 OFFCURVE",
"46 87 OFFCURVE",
"176 252 CURVE",
"256 262 OFFCURVE",
"284 262 OFFCURVE",
"364 262 CURVE SMOOTH",
"403 262 OFFCURVE",
"489 263 OFFCURVE",
"529 260 CURVE SMOOTH",
"561 258 OFFCURVE",
"568 272 OFFCURVE",
"551 279 CURVE SMOOTH",
"535 285 OFFCURVE",
"446 294 OFFCURVE",
"361 294 CURVE SMOOTH",
"304 294 OFFCURVE",
"267 296 OFFCURVE",
"211 291 CURVE",
"324 406 OFFCURVE",
"502 507 OFFCURVE",
"654 507 CURVE SMOOTH",
"681 507 OFFCURVE",
"759 506 OFFCURVE",
"758 463 CURVE SMOOTH",
"756 402 OFFCURVE",
"655 353 OFFCURVE",
"627 329 CURVE SMOOTH",
"598 304 OFFCURVE",
"647 304 OFFCURVE",
"662 310 CURVE SMOOTH"
);
},
{
closed = 1;
nodes = (
"740 607 OFFCURVE",
"802 652 OFFCURVE",
"810 684 CURVE",
"811 697 OFFCURVE",
"801 695 OFFCURVE",
"795 688 CURVE SMOOTH",
"771 662 OFFCURVE",
"724 634 OFFCURVE",
"693 634 CURVE SMOOTH",
"678 634 OFFCURVE",
"660 635 OFFCURVE",
"649 646 CURVE SMOOTH",
"642 652 OFFCURVE",
"634 661 OFFCURVE",
"633 678 CURVE SMOOTH",
"632 686 OFFCURVE",
"623 692 OFFCURVE",
"620 692 CURVE SMOOTH",
"607 692 OFFCURVE",
"601 682 OFFCURVE",
"601 671 CURVE SMOOTH",
"599 624 OFFCURVE",
"649 607 OFFCURVE",
"685 607 CURVE SMOOTH"
);
}
);
width = 672;
},
{
layerId = "AFE3E0A9-A514-4B93-8E4E-B7D18C88F31C";
paths = (
{
closed = 1;
nodes = (
"790 333 OFFCURVE",
"852 406 OFFCURVE",
"852 462 CURVE SMOOTH",
"852 537 OFFCURVE",
"763 546 OFFCURVE",
"707 546 CURVE SMOOTH",
"501 546 OFFCURVE",
"268 436 OFFCURVE",
"130 285 CURVE",
"98 281 OFFCURVE",
"30 283 OFFCURVE",
"30 237 CURVE SMOOTH",
"30 203 OFFCURVE",
"67 219 OFFCURVE",
"85 222 CURVE",
"56 179 OFFCURVE",
"34 139 OFFCURVE",
"34 87 CURVE SMOOTH",
"34 -27 OFFCURVE",
"160 -53 OFFCURVE",
"251 -53 CURVE SMOOTH",
"473 -53 OFFCURVE",
"695 81 OFFCURVE",
"725 128 CURVE SMOOTH",
"733 140 OFFCURVE",
"729 142 OFFCURVE",
"716 142 CURVE SMOOTH",
"706 142 OFFCURVE",
"559 -13 OFFCURVE",
"278 -13 CURVE SMOOTH",
"106 -13 OFFCURVE",
"48 87 OFFCURVE",
"187 252 CURVE",
"274 262 OFFCURVE",
"306 262 OFFCURVE",
"394 262 CURVE SMOOTH",
"438 262 OFFCURVE",
"533 263 OFFCURVE",
"578 260 CURVE SMOOTH",
"613 258 OFFCURVE",
"621 272 OFFCURVE",
"602 279 CURVE SMOOTH",
"585 285 OFFCURVE",
"485 294 OFFCURVE",
"390 294 CURVE SMOOTH",
"327 294 OFFCURVE",
"286 296 OFFCURVE",
"223 291 CURVE",
"345 406 OFFCURVE",
"539 507 OFFCURVE",
"708 507 CURVE SMOOTH",
"738 507 OFFCURVE",
"824 506 OFFCURVE",
"824 463 CURVE SMOOTH",
"824 402 OFFCURVE",
"714 353 OFFCURVE",
"684 329 CURVE SMOOTH",
"653 304 OFFCURVE",
"708 304 OFFCURVE",
"724 310 CURVE SMOOTH"
);
},
{
closed = 1;
nodes = (
"801 607 OFFCURVE",
"867 652 OFFCURVE",
"875 684 CURVE",
"875 697 OFFCURVE",
"865 695 OFFCURVE",
"858 688 CURVE SMOOTH",
"833 662 OFFCURVE",
"782 634 OFFCURVE",
"747 634 CURVE SMOOTH",
"730 634 OFFCURVE",
"710 635 OFFCURVE",
"697 646 CURVE SMOOTH",
"689 652 OFFCURVE",
"681 661 OFFCURVE",
"678 678 CURVE SMOOTH",
"677 686 OFFCURVE",
"667 692 OFFCURVE",
"664 692 CURVE SMOOTH",
"649 692 OFFCURVE",
"643 682 OFFCURVE",
"643 671 CURVE SMOOTH",
"643 624 OFFCURVE",
"699 607 OFFCURVE",
"739 607 CURVE SMOOTH"
);
}
);
width = 747;
}
);
unicode = 0114;
},
{
color = 11;
glyphname = Ecaron;
lastChange = "2021-08-11 14:48:46 +0000";
layers = (
{
components = (
{
name = E;
},
{
name = caroncomb;
transform = "{1, 0, 0, 1, 539, -17}";
}
);
layerId = "57DEED6F-9A00-47D0-BD9B-6FE09716AB2D";
width = 583;
},
{
layerId = "A9A9B55F-A222-44B0-A0B6-968BE501F3F8";
paths = (
{
closed = 1;
nodes = (
"722 333 OFFCURVE",
"781 406 OFFCURVE",
"783 462 CURVE SMOOTH",
"785 537 OFFCURVE",
"706 546 OFFCURVE",
"655 546 CURVE SMOOTH",
"470 546 OFFCURVE",
"256 436 OFFCURVE",
"126 285 CURVE",
"97 281 OFFCURVE",
"36 283 OFFCURVE",
"35 237 CURVE SMOOTH",
"34 203 OFFCURVE",
"67 219 OFFCURVE",
"83 222 CURVE",
"56 179 OFFCURVE",
"35 139 OFFCURVE",
"34 87 CURVE SMOOTH",
"30 -27 OFFCURVE",
"142 -53 OFFCURVE",
"224 -53 CURVE SMOOTH",
"424 -53 OFFCURVE",
"627 81 OFFCURVE",
"656 128 CURVE SMOOTH",
"664 140 OFFCURVE",
"660 142 OFFCURVE",
"648 142 CURVE SMOOTH",
"639 142 OFFCURVE",
"502 -13 OFFCURVE",
"249 -13 CURVE SMOOTH",
"94 -13 OFFCURVE",
"46 87 OFFCURVE",
"176 252 CURVE",
"256 262 OFFCURVE",
"284 262 OFFCURVE",
"364 262 CURVE SMOOTH",
"403 262 OFFCURVE",
"489 263 OFFCURVE",
"529 260 CURVE SMOOTH",
"561 258 OFFCURVE",
"568 272 OFFCURVE",
"551 279 CURVE SMOOTH",
"535 285 OFFCURVE",
"446 294 OFFCURVE",
"361 294 CURVE SMOOTH",
"304 294 OFFCURVE",
"267 296 OFFCURVE",
"211 291 CURVE",
"324 406 OFFCURVE",
"502 507 OFFCURVE",
"654 507 CURVE SMOOTH",
"681 507 OFFCURVE",
"759 506 OFFCURVE",
"758 463 CURVE SMOOTH",
"756 402 OFFCURVE",
"655 353 OFFCURVE",
"627 329 CURVE SMOOTH",
"598 304 OFFCURVE",
"647 304 OFFCURVE",
"662 310 CURVE SMOOTH"
);
},
{
closed = 1;
nodes = (
"803 655 LINE",
"805 663 LINE",
"805 667 OFFCURVE",
"798 671 OFFCURVE",
"795 671 CURVE SMOOTH",
"781 671 OFFCURVE",
"722 634 OFFCURVE",
"705 625 CURVE",
"693 639 OFFCURVE",
"654 673 OFFCURVE",
"635 673 CURVE SMOOTH",
"630 673 OFFCURVE",
"620 670 OFFCURVE",
"620 663 CURVE SMOOTH",
"620 656 OFFCURVE",
"683 590 OFFCURVE",
"689 590 CURVE SMOOTH",
"705 590 OFFCURVE",
"791 643 OFFCURVE",
"803 656 CURVE"
);
}
);
width = 672;
},
{
layerId = "AFE3E0A9-A514-4B93-8E4E-B7D18C88F31C";
paths = (
{
closed = 1;
nodes = (
"790 333 OFFCURVE",
"852 406 OFFCURVE",
"852 462 CURVE SMOOTH",
"852 537 OFFCURVE",
"763 546 OFFCURVE",
"707 546 CURVE SMOOTH",
"501 546 OFFCURVE",
"268 436 OFFCURVE",
"130 285 CURVE",
"98 281 OFFCURVE",
"30 283 OFFCURVE",
"30 237 CURVE SMOOTH",
"30 203 OFFCURVE",
"67 219 OFFCURVE",
"85 222 CURVE",
"56 179 OFFCURVE",
"34 139 OFFCURVE",
"34 87 CURVE SMOOTH",
"34 -27 OFFCURVE",
"160 -53 OFFCURVE",
"251 -53 CURVE SMOOTH",
"473 -53 OFFCURVE",
"695 81 OFFCURVE",
"725 128 CURVE SMOOTH",
"733 140 OFFCURVE",
"729 142 OFFCURVE",
"716 142 CURVE SMOOTH",
"706 142 OFFCURVE",
"559 -13 OFFCURVE",
"278 -13 CURVE SMOOTH",
"106 -13 OFFCURVE",
"48 87 OFFCURVE",
"187 252 CURVE",
"274 262 OFFCURVE",
"306 262 OFFCURVE",
"394 262 CURVE SMOOTH",
"438 262 OFFCURVE",
"533 263 OFFCURVE",
"578 260 CURVE SMOOTH",
"613 258 OFFCURVE",
"621 272 OFFCURVE",
"602 279 CURVE SMOOTH",
"585 285 OFFCURVE",
"485 294 OFFCURVE",
"390 294 CURVE SMOOTH",
"327 294 OFFCURVE",
"286 296 OFFCURVE",
"223 291 CURVE",
"345 406 OFFCURVE",
"539 507 OFFCURVE",
"708 507 CURVE SMOOTH",
"738 507 OFFCURVE",
"824 506 OFFCURVE",
"824 463 CURVE SMOOTH",
"824 402 OFFCURVE",
"714 353 OFFCURVE",
"684 329 CURVE SMOOTH",
"653 304 OFFCURVE",
"708 304 OFFCURVE",
"724 310 CURVE SMOOTH"
);
},
{
closed = 1;
nodes = (
"867 655 LINE",
"870 663 LINE",
"870 667 OFFCURVE",
"862 671 OFFCURVE",
"858 671 CURVE SMOOTH",
"843 671 OFFCURVE",
"778 634 OFFCURVE",
"760 625 CURVE",
"746 639 OFFCURVE",
"702 673 OFFCURVE",
"681 673 CURVE SMOOTH",
"675 673 OFFCURVE",
"664 670 OFFCURVE",
"664 663 CURVE SMOOTH",
"664 656 OFFCURVE",
"737 590 OFFCURVE",
"744 590 CURVE SMOOTH",
"762 590 OFFCURVE",
"855 643 OFFCURVE",
"867 656 CURVE"
);
}
);
width = 747;
}
);
unicode = 011A;
},
{
color = 11;
glyphname = Ecircumflex;
lastChange = "2021-08-11 14:48:46 +0000";
layers = (
{
components = (
{
name = E;
},
{
name = circumflexcomb;
transform = "{1, 0, 0, 1, 516, -25}";
}
);
layerId = "57DEED6F-9A00-47D0-BD9B-6FE09716AB2D";
width = 583;
},
{
layerId = "A9A9B55F-A222-44B0-A0B6-968BE501F3F8";
paths = (
{
closed = 1;
nodes = (
"722 333 OFFCURVE",
"781 406 OFFCURVE",
"783 462 CURVE SMOOTH",
"785 537 OFFCURVE",
"706 546 OFFCURVE",
"655 546 CURVE SMOOTH",
"470 546 OFFCURVE",
"256 436 OFFCURVE",
"126 285 CURVE",
"97 281 OFFCURVE",
"36 283 OFFCURVE",
"35 237 CURVE SMOOTH",
"34 203 OFFCURVE",
"67 219 OFFCURVE",
"83 222 CURVE",
"56 179 OFFCURVE",
"35 139 OFFCURVE",
"34 87 CURVE SMOOTH",
"30 -27 OFFCURVE",
"142 -53 OFFCURVE",
"224 -53 CURVE SMOOTH",
"424 -53 OFFCURVE",
"627 81 OFFCURVE",
"656 128 CURVE SMOOTH",
"664 140 OFFCURVE",
"660 142 OFFCURVE",
"648 142 CURVE SMOOTH",
"639 142 OFFCURVE",
"502 -13 OFFCURVE",
"249 -13 CURVE SMOOTH",
"94 -13 OFFCURVE",
"46 87 OFFCURVE",
"176 252 CURVE",
"256 262 OFFCURVE",
"284 262 OFFCURVE",
"364 262 CURVE SMOOTH",
"403 262 OFFCURVE",
"489 263 OFFCURVE",
"529 260 CURVE SMOOTH",
"561 258 OFFCURVE",
"568 272 OFFCURVE",
"551 279 CURVE SMOOTH",
"535 285 OFFCURVE",
"446 294 OFFCURVE",
"361 294 CURVE SMOOTH",
"304 294 OFFCURVE",
"267 296 OFFCURVE",
"211 291 CURVE",
"324 406 OFFCURVE",
"502 507 OFFCURVE",
"654 507 CURVE SMOOTH",
"681 507 OFFCURVE",
"759 506 OFFCURVE",
"758 463 CURVE SMOOTH",
"756 402 OFFCURVE",
"655 353 OFFCURVE",
"627 329 CURVE SMOOTH",
"598 304 OFFCURVE",
"647 304 OFFCURVE",
"662 310 CURVE SMOOTH"
);
},
{
closed = 1;
nodes = (
"750 612 OFFCURVE",
"722 641 OFFCURVE",
"714 656 CURVE SMOOTH",
"703 675 OFFCURVE",
"681 656 OFFCURVE",
"627 624 CURVE SMOOTH",
"584 597 OFFCURVE",
"555 575 OFFCURVE",
"554 570 CURVE SMOOTH",
"552 565 OFFCURVE",
"554 563 OFFCURVE",
"559 563 CURVE SMOOTH",
"565 563 OFFCURVE",
"602 582 OFFCURVE",
"674 626 CURVE",
"680 616 OFFCURVE",
"694 602 OFFCURVE",
"717 585 CURVE SMOOTH",
"719 584 OFFCURVE",
"740 566 OFFCURVE",
"756 560 CURVE",
"770 551 OFFCURVE",
"793 566 OFFCURVE",
"783 579 CURVE"
);
}
);
width = 649;
},
{
layerId = "AFE3E0A9-A514-4B93-8E4E-B7D18C88F31C";
paths = (
{
closed = 1;
nodes = (
"790 333 OFFCURVE",
"852 406 OFFCURVE",
"852 462 CURVE SMOOTH",
"852 537 OFFCURVE",
"763 546 OFFCURVE",
"707 546 CURVE SMOOTH",
"501 546 OFFCURVE",
"268 436 OFFCURVE",
"130 285 CURVE",
"98 281 OFFCURVE",
"30 283 OFFCURVE",
"30 237 CURVE SMOOTH",
"30 203 OFFCURVE",
"67 219 OFFCURVE",
"85 222 CURVE",
"56 179 OFFCURVE",
"34 139 OFFCURVE",
"34 87 CURVE SMOOTH",
"34 -27 OFFCURVE",
"160 -53 OFFCURVE",
"251 -53 CURVE SMOOTH",
"473 -53 OFFCURVE",
"695 81 OFFCURVE",
"725 128 CURVE SMOOTH",
"733 140 OFFCURVE",
"729 142 OFFCURVE",
"716 142 CURVE SMOOTH",
"706 142 OFFCURVE",
"559 -13 OFFCURVE",
"278 -13 CURVE SMOOTH",
"106 -13 OFFCURVE",
"48 87 OFFCURVE",
"187 252 CURVE",
"274 262 OFFCURVE",
"306 262 OFFCURVE",
"394 262 CURVE SMOOTH",
"438 262 OFFCURVE",
"533 263 OFFCURVE",
"578 260 CURVE SMOOTH",
"613 258 OFFCURVE",
"621 272 OFFCURVE",
"602 279 CURVE SMOOTH",
"585 285 OFFCURVE",
"485 294 OFFCURVE",
"390 294 CURVE SMOOTH",
"327 294 OFFCURVE",
"286 296 OFFCURVE",
"223 291 CURVE",
"345 406 OFFCURVE",
"539 507 OFFCURVE",
"708 507 CURVE SMOOTH",
"738 507 OFFCURVE",
"824 506 OFFCURVE",
"824 463 CURVE SMOOTH",
"824 402 OFFCURVE",
"714 353 OFFCURVE",
"684 329 CURVE SMOOTH",
"653 304 OFFCURVE",
"708 304 OFFCURVE",
"724 310 CURVE SMOOTH"
);
},
{
closed = 1;
nodes = (
"810 612 OFFCURVE",
"778 641 OFFCURVE",
"769 656 CURVE SMOOTH",
"756 675 OFFCURVE",
"732 656 OFFCURVE",
"674 624 CURVE SMOOTH",
"627 597 OFFCURVE",
"596 575 OFFCURVE",
"595 570 CURVE",
"592 565 OFFCURVE",
"595 563 OFFCURVE",
"600 563 CURVE SMOOTH",
"607 563 OFFCURVE",
"648 582 OFFCURVE",
"726 626 CURVE",
"733 616 OFFCURVE",
"749 602 OFFCURVE",
"775 585 CURVE SMOOTH",
"777 584 OFFCURVE",
"801 566 OFFCURVE",
"819 560 CURVE",
"836 551 OFFCURVE",
"860 566 OFFCURVE",
"849 579 CURVE"
);
}
);
width = 721;
}
);
unicode = 00CA;
},
{
color = 11;
glyphname = Edieresis;
lastChange = "2021-08-11 14:48:46 +0000";
layers = (
{
components = (
{
name = E;
},
{
name = dieresiscomb;
transform = "{1, 0, 0, 1, 531, -25}";
}
);
layerId = "57DEED6F-9A00-47D0-BD9B-6FE09716AB2D";
width = 583;
},
{
layerId = "A9A9B55F-A222-44B0-A0B6-968BE501F3F8";
paths = (
{
closed = 1;
nodes = (
"722 333 OFFCURVE",
"781 406 OFFCURVE",
"783 462 CURVE SMOOTH",
"785 537 OFFCURVE",
"706 546 OFFCURVE",
"655 546 CURVE SMOOTH",
"470 546 OFFCURVE",
"256 436 OFFCURVE",
"126 285 CURVE",
"97 281 OFFCURVE",
"36 283 OFFCURVE",
"35 237 CURVE SMOOTH",
"34 203 OFFCURVE",
"67 219 OFFCURVE",
"83 222 CURVE",
"56 179 OFFCURVE",
"35 139 OFFCURVE",
"34 87 CURVE SMOOTH",
"30 -27 OFFCURVE",
"142 -53 OFFCURVE",
"224 -53 CURVE SMOOTH",
"424 -53 OFFCURVE",
"627 81 OFFCURVE",
"656 128 CURVE SMOOTH",
"664 140 OFFCURVE",
"660 142 OFFCURVE",
"648 142 CURVE SMOOTH",
"639 142 OFFCURVE",
"502 -13 OFFCURVE",
"249 -13 CURVE SMOOTH",
"94 -13 OFFCURVE",
"46 87 OFFCURVE",
"176 252 CURVE",
"256 262 OFFCURVE",
"284 262 OFFCURVE",
"364 262 CURVE SMOOTH",
"403 262 OFFCURVE",
"489 263 OFFCURVE",
"529 260 CURVE SMOOTH",
"561 258 OFFCURVE",
"568 272 OFFCURVE",
"551 279 CURVE SMOOTH",
"535 285 OFFCURVE",
"446 294 OFFCURVE",
"361 294 CURVE SMOOTH",
"304 294 OFFCURVE",
"267 296 OFFCURVE",
"211 291 CURVE",
"324 406 OFFCURVE",
"502 507 OFFCURVE",
"654 507 CURVE SMOOTH",
"681 507 OFFCURVE",
"759 506 OFFCURVE",
"758 463 CURVE SMOOTH",
"756 402 OFFCURVE",
"655 353 OFFCURVE",
"627 329 CURVE SMOOTH",
"598 304 OFFCURVE",
"647 304 OFFCURVE",
"662 310 CURVE SMOOTH"
);
},
{
closed = 1;
nodes = (
"572 598 OFFCURVE",
"583 584 OFFCURVE",
"600 584 CURVE SMOOTH",
"617 584 OFFCURVE",
"633 598 OFFCURVE",
"636 616 CURVE SMOOTH",
"639 634 OFFCURVE",
"628 648 OFFCURVE",
"611 648 CURVE SMOOTH",
"593 648 OFFCURVE",
"577 634 OFFCURVE",
"575 616 CURVE SMOOTH"
);
},
{
closed = 1;
nodes = (
"709 598 OFFCURVE",
"720 584 OFFCURVE",
"737 584 CURVE SMOOTH",
"754 584 OFFCURVE",
"770 598 OFFCURVE",
"773 616 CURVE SMOOTH",
"776 634 OFFCURVE",
"765 648 OFFCURVE",
"748 648 CURVE SMOOTH",
"730 648 OFFCURVE",
"714 634 OFFCURVE",
"712 616 CURVE SMOOTH"
);
}
);
width = 649;
},
{
layerId = "AFE3E0A9-A514-4B93-8E4E-B7D18C88F31C";
paths = (
{
closed = 1;
nodes = (
"790 333 OFFCURVE",
"852 406 OFFCURVE",
"852 462 CURVE SMOOTH",
"852 537 OFFCURVE",
"763 546 OFFCURVE",
"707 546 CURVE SMOOTH",
"501 546 OFFCURVE",
"268 436 OFFCURVE",
"130 285 CURVE",
"98 281 OFFCURVE",
"30 283 OFFCURVE",
"30 237 CURVE SMOOTH",
"30 203 OFFCURVE",
"67 219 OFFCURVE",
"85 222 CURVE",
"56 179 OFFCURVE",
"34 139 OFFCURVE",
"34 87 CURVE SMOOTH",
"34 -27 OFFCURVE",
"160 -53 OFFCURVE",
"251 -53 CURVE SMOOTH",
"473 -53 OFFCURVE",
"695 81 OFFCURVE",
"725 128 CURVE SMOOTH",
"733 140 OFFCURVE",
"729 142 OFFCURVE",
"716 142 CURVE SMOOTH",
"706 142 OFFCURVE",
"559 -13 OFFCURVE",
"278 -13 CURVE SMOOTH",
"106 -13 OFFCURVE",
"48 87 OFFCURVE",
"187 252 CURVE",
"274 262 OFFCURVE",
"306 262 OFFCURVE",
"394 262 CURVE SMOOTH",
"438 262 OFFCURVE",
"533 263 OFFCURVE",
"578 260 CURVE SMOOTH",
"613 258 OFFCURVE",
"621 272 OFFCURVE",
"602 279 CURVE SMOOTH",
"585 285 OFFCURVE",
"485 294 OFFCURVE",
"390 294 CURVE SMOOTH",
"327 294 OFFCURVE",
"286 296 OFFCURVE",
"223 291 CURVE",
"345 406 OFFCURVE",
"539 507 OFFCURVE",
"708 507 CURVE SMOOTH",
"738 507 OFFCURVE",
"824 506 OFFCURVE",
"824 463 CURVE SMOOTH",
"824 402 OFFCURVE",
"714 353 OFFCURVE",
"684 329 CURVE SMOOTH",
"653 304 OFFCURVE",
"708 304 OFFCURVE",
"724 310 CURVE SMOOTH"
);
},
{
closed = 1;
nodes = (
"614 598 OFFCURVE",
"627 584 OFFCURVE",
"646 584 CURVE SMOOTH",
"665 584 OFFCURVE",
"682 598 OFFCURVE",
"684 616 CURVE SMOOTH",
"687 634 OFFCURVE",
"674 648 OFFCURVE",
"655 648 CURVE SMOOTH",
"635 648 OFFCURVE",
"618 634 OFFCURVE",
"616 616 CURVE SMOOTH"
);
},
{
closed = 1;
nodes = (
"766 598 OFFCURVE",
"779 584 OFFCURVE",
"798 584 CURVE SMOOTH",
"817 584 OFFCURVE",
"834 598 OFFCURVE",
"836 616 CURVE SMOOTH",
"839 634 OFFCURVE",
"826 648 OFFCURVE",
"807 648 CURVE SMOOTH",
"787 648 OFFCURVE",
"770 634 OFFCURVE",
"768 616 CURVE SMOOTH"
);
}
);
width = 721;
}
);
unicode = 00CB;
},
{
color = 11;
glyphname = Edotaccent;
lastChange = "2021-08-11 14:48:46 +0000";
layers = (
{
components = (
{
name = E;
},
{
name = dotaccentcomb;
transform = "{1, 0, 0, 1, 583, -41}";
}
);
layerId = "57DEED6F-9A00-47D0-BD9B-6FE09716AB2D";
width = 583;
},
{
layerId = "A9A9B55F-A222-44B0-A0B6-968BE501F3F8";
paths = (
{
closed = 1;
nodes = (
"722 333 OFFCURVE",
"781 406 OFFCURVE",
"783 462 CURVE SMOOTH",
"785 537 OFFCURVE",
"706 546 OFFCURVE",
"655 546 CURVE SMOOTH",
"470 546 OFFCURVE",
"256 436 OFFCURVE",
"126 285 CURVE",
"97 281 OFFCURVE",
"36 283 OFFCURVE",
"35 237 CURVE SMOOTH",
"34 203 OFFCURVE",
"67 219 OFFCURVE",
"83 222 CURVE",
"56 179 OFFCURVE",
"35 139 OFFCURVE",
"34 87 CURVE SMOOTH",
"30 -27 OFFCURVE",
"142 -53 OFFCURVE",
"224 -53 CURVE SMOOTH",
"424 -53 OFFCURVE",
"627 81 OFFCURVE",
"656 128 CURVE SMOOTH",
"664 140 OFFCURVE",
"660 142 OFFCURVE",
"648 142 CURVE SMOOTH",
"639 142 OFFCURVE",
"502 -13 OFFCURVE",
"249 -13 CURVE SMOOTH",
"94 -13 OFFCURVE",
"46 87 OFFCURVE",
"176 252 CURVE",
"256 262 OFFCURVE",
"284 262 OFFCURVE",
"364 262 CURVE SMOOTH",
"403 262 OFFCURVE",
"489 263 OFFCURVE",
"529 260 CURVE SMOOTH",
"561 258 OFFCURVE",
"568 272 OFFCURVE",
"551 279 CURVE SMOOTH",
"535 285 OFFCURVE",
"446 294 OFFCURVE",
"361 294 CURVE SMOOTH",
"304 294 OFFCURVE",
"267 296 OFFCURVE",
"211 291 CURVE",
"324 406 OFFCURVE",
"502 507 OFFCURVE",
"654 507 CURVE SMOOTH",
"681 507 OFFCURVE",
"759 506 OFFCURVE",
"758 463 CURVE SMOOTH",
"756 402 OFFCURVE",
"655 353 OFFCURVE",
"627 329 CURVE SMOOTH",
"598 304 OFFCURVE",
"647 304 OFFCURVE",
"662 310 CURVE SMOOTH"
);
},
{
closed = 1;
nodes = (
"680 608 OFFCURVE",
"691 594 OFFCURVE",
"708 594 CURVE SMOOTH",
"725 594 OFFCURVE",
"741 608 OFFCURVE",
"744 626 CURVE SMOOTH",
"747 644 OFFCURVE",
"736 658 OFFCURVE",
"718 658 CURVE SMOOTH",
"700 658 OFFCURVE",
"685 644 OFFCURVE",
"682 626 CURVE SMOOTH"
);
}
);
width = 672;
},
{
layerId = "AFE3E0A9-A514-4B93-8E4E-B7D18C88F31C";
paths = (
{
closed = 1;
nodes = (
"790 333 OFFCURVE",
"852 406 OFFCURVE",
"852 462 CURVE SMOOTH",
"852 537 OFFCURVE",
"763 546 OFFCURVE",
"707 546 CURVE SMOOTH",
"501 546 OFFCURVE",
"268 436 OFFCURVE",
"130 285 CURVE",
"98 281 OFFCURVE",
"30 283 OFFCURVE",
"30 237 CURVE SMOOTH",
"30 203 OFFCURVE",
"67 219 OFFCURVE",
"85 222 CURVE",
"56 179 OFFCURVE",
"34 139 OFFCURVE",
"34 87 CURVE SMOOTH",
"34 -27 OFFCURVE",
"160 -53 OFFCURVE",
"251 -53 CURVE SMOOTH",
"473 -53 OFFCURVE",
"695 81 OFFCURVE",
"725 128 CURVE SMOOTH",
"733 140 OFFCURVE",
"729 142 OFFCURVE",
"716 142 CURVE SMOOTH",
"706 142 OFFCURVE",
"559 -13 OFFCURVE",
"278 -13 CURVE SMOOTH",
"106 -13 OFFCURVE",
"48 87 OFFCURVE",
"187 252 CURVE",
"274 262 OFFCURVE",
"306 262 OFFCURVE",
"394 262 CURVE SMOOTH",
"438 262 OFFCURVE",
"533 263 OFFCURVE",
"578 260 CURVE SMOOTH",
"613 258 OFFCURVE",
"621 272 OFFCURVE",
"602 279 CURVE SMOOTH",
"585 285 OFFCURVE",
"485 294 OFFCURVE",
"390 294 CURVE SMOOTH",
"327 294 OFFCURVE",
"286 296 OFFCURVE",
"223 291 CURVE",
"345 406 OFFCURVE",
"539 507 OFFCURVE",
"708 507 CURVE SMOOTH",
"738 507 OFFCURVE",
"824 506 OFFCURVE",
"824 463 CURVE SMOOTH",
"824 402 OFFCURVE",
"714 353 OFFCURVE",
"684 329 CURVE SMOOTH",
"653 304 OFFCURVE",
"708 304 OFFCURVE",
"724 310 CURVE SMOOTH"
);
},
{
closed = 1;
nodes = (
"733 608 OFFCURVE",
"746 594 OFFCURVE",
"765 594 CURVE SMOOTH",
"784 594 OFFCURVE",
"801 608 OFFCURVE",
"803 626 CURVE SMOOTH",
"806 644 OFFCURVE",
"793 658 OFFCURVE",
"774 658 CURVE SMOOTH",
"754 658 OFFCURVE",
"737 644 OFFCURVE",
"735 626 CURVE SMOOTH"
);
}
);
width = 747;
}
);
unicode = 0116;
},
{
color = 11;
glyphname = Egrave;
lastChange = "2021-08-11 14:48:46 +0000";
layers = (
{
components = (
{
name = E;
},
{
name = gravecomb;
transform = "{1, 0, 0, 1, 550, -25}";
}
);
layerId = "57DEED6F-9A00-47D0-BD9B-6FE09716AB2D";
width = 583;
},
{
layerId = "A9A9B55F-A222-44B0-A0B6-968BE501F3F8";
paths = (
{
closed = 1;
nodes = (
"722 333 OFFCURVE",
"781 406 OFFCURVE",
"783 462 CURVE SMOOTH",
"785 537 OFFCURVE",
"706 546 OFFCURVE",
"655 546 CURVE SMOOTH",
"470 546 OFFCURVE",
"256 436 OFFCURVE",
"126 285 CURVE",
"97 281 OFFCURVE",
"36 283 OFFCURVE",
"35 237 CURVE SMOOTH",
"34 203 OFFCURVE",
"67 219 OFFCURVE",
"83 222 CURVE",
"56 179 OFFCURVE",
"35 139 OFFCURVE",
"34 87 CURVE SMOOTH",
"30 -27 OFFCURVE",
"142 -53 OFFCURVE",
"224 -53 CURVE SMOOTH",
"424 -53 OFFCURVE",
"627 81 OFFCURVE",
"656 128 CURVE SMOOTH",
"664 140 OFFCURVE",
"660 142 OFFCURVE",
"648 142 CURVE SMOOTH",
"639 142 OFFCURVE",
"502 -13 OFFCURVE",
"249 -13 CURVE SMOOTH",
"94 -13 OFFCURVE",
"46 87 OFFCURVE",
"176 252 CURVE",
"256 262 OFFCURVE",
"284 262 OFFCURVE",
"364 262 CURVE SMOOTH",
"403 262 OFFCURVE",
"489 263 OFFCURVE",
"529 260 CURVE SMOOTH",
"561 258 OFFCURVE",
"568 272 OFFCURVE",
"551 279 CURVE SMOOTH",
"535 285 OFFCURVE",
"446 294 OFFCURVE",
"361 294 CURVE SMOOTH",
"304 294 OFFCURVE",
"267 296 OFFCURVE",
"211 291 CURVE",
"324 406 OFFCURVE",
"502 507 OFFCURVE",
"654 507 CURVE SMOOTH",
"681 507 OFFCURVE",
"759 506 OFFCURVE",
"758 463 CURVE SMOOTH",
"756 402 OFFCURVE",
"655 353 OFFCURVE",
"627 329 CURVE SMOOTH",
"598 304 OFFCURVE",
"647 304 OFFCURVE",
"662 310 CURVE SMOOTH"
);
},
{
closed = 1;
nodes = (
"694 572 OFFCURVE",
"702 575 OFFCURVE",
"702 583 CURVE SMOOTH",
"703 595 OFFCURVE",
"576 686 OFFCURVE",
"559 686 CURVE SMOOTH",
"548 686 OFFCURVE",
"542 679 OFFCURVE",
"541 667 CURVE SMOOTH",
"540 638 OFFCURVE",
"677 572 OFFCURVE",
"687 572 CURVE SMOOTH"
);
}
);
width = 649;
},
{
layerId = "AFE3E0A9-A514-4B93-8E4E-B7D18C88F31C";
paths = (
{
closed = 1;
nodes = (
"790 333 OFFCURVE",
"852 406 OFFCURVE",
"852 462 CURVE SMOOTH",
"852 537 OFFCURVE",
"763 546 OFFCURVE",
"707 546 CURVE SMOOTH",
"501 546 OFFCURVE",
"268 436 OFFCURVE",
"130 285 CURVE",
"98 281 OFFCURVE",
"30 283 OFFCURVE",
"30 237 CURVE SMOOTH",
"30 203 OFFCURVE",
"67 219 OFFCURVE",
"85 222 CURVE",
"56 179 OFFCURVE",
"34 139 OFFCURVE",
"34 87 CURVE SMOOTH",
"34 -27 OFFCURVE",
"160 -53 OFFCURVE",
"251 -53 CURVE SMOOTH",
"473 -53 OFFCURVE",
"695 81 OFFCURVE",
"725 128 CURVE SMOOTH",
"733 140 OFFCURVE",
"729 142 OFFCURVE",
"716 142 CURVE SMOOTH",
"706 142 OFFCURVE",
"559 -13 OFFCURVE",
"278 -13 CURVE SMOOTH",
"106 -13 OFFCURVE",
"48 87 OFFCURVE",
"187 252 CURVE",
"274 262 OFFCURVE",
"306 262 OFFCURVE",
"394 262 CURVE SMOOTH",
"438 262 OFFCURVE",
"533 263 OFFCURVE",
"578 260 CURVE SMOOTH",
"613 258 OFFCURVE",
"621 272 OFFCURVE",
"602 279 CURVE SMOOTH",
"585 285 OFFCURVE",
"485 294 OFFCURVE",
"390 294 CURVE SMOOTH",
"327 294 OFFCURVE",
"286 296 OFFCURVE",
"223 291 CURVE",
"345 406 OFFCURVE",
"539 507 OFFCURVE",
"708 507 CURVE SMOOTH",
"738 507 OFFCURVE",
"824 506 OFFCURVE",
"824 463 CURVE SMOOTH",
"824 402 OFFCURVE",
"714 353 OFFCURVE",
"684 329 CURVE SMOOTH",
"653 304 OFFCURVE",
"708 304 OFFCURVE",
"724 310 CURVE SMOOTH"
);
},
{
closed = 1;
nodes = (
"750 572 OFFCURVE",
"759 575 OFFCURVE",
"759 583 CURVE SMOOTH",
"759 595 OFFCURVE",
"615 686 OFFCURVE",
"596 686 CURVE SMOOTH",
"584 686 OFFCURVE",
"577 679 OFFCURVE",
"577 667 CURVE SMOOTH",
"577 638 OFFCURVE",
"731 572 OFFCURVE",
"743 572 CURVE SMOOTH"
);
}
);
width = 721;
}
);
unicode = 00C8;
},
{
color = 11;
glyphname = Emacron;
lastChange = "2021-08-11 14:48:46 +0000";
layers = (
{
components = (
{
name = E;
},
{
name = macroncomb;
transform = "{1, 0, 0, 1, 507, -25}";
}
);
layerId = "57DEED6F-9A00-47D0-BD9B-6FE09716AB2D";
width = 583;
},
{
layerId = "A9A9B55F-A222-44B0-A0B6-968BE501F3F8";
paths = (
{
closed = 1;
nodes = (
"722 333 OFFCURVE",
"781 406 OFFCURVE",
"783 462 CURVE SMOOTH",
"785 537 OFFCURVE",
"706 546 OFFCURVE",
"655 546 CURVE SMOOTH",
"470 546 OFFCURVE",
"256 436 OFFCURVE",
"126 285 CURVE",
"97 281 OFFCURVE",
"36 283 OFFCURVE",
"35 237 CURVE SMOOTH",
"34 203 OFFCURVE",
"67 219 OFFCURVE",
"83 222 CURVE",
"56 179 OFFCURVE",
"35 139 OFFCURVE",
"34 87 CURVE SMOOTH",
"30 -27 OFFCURVE",
"142 -53 OFFCURVE",
"224 -53 CURVE SMOOTH",
"424 -53 OFFCURVE",
"627 81 OFFCURVE",
"656 128 CURVE SMOOTH",
"664 140 OFFCURVE",
"660 142 OFFCURVE",
"648 142 CURVE SMOOTH",
"639 142 OFFCURVE",
"502 -13 OFFCURVE",
"249 -13 CURVE SMOOTH",
"94 -13 OFFCURVE",
"46 87 OFFCURVE",
"176 252 CURVE",
"256 262 OFFCURVE",
"284 262 OFFCURVE",
"364 262 CURVE SMOOTH",
"403 262 OFFCURVE",
"489 263 OFFCURVE",
"529 260 CURVE SMOOTH",
"561 258 OFFCURVE",
"568 272 OFFCURVE",
"551 279 CURVE SMOOTH",
"535 285 OFFCURVE",
"446 294 OFFCURVE",
"361 294 CURVE SMOOTH",
"304 294 OFFCURVE",
"267 296 OFFCURVE",
"211 291 CURVE",
"324 406 OFFCURVE",
"502 507 OFFCURVE",
"654 507 CURVE SMOOTH",
"681 507 OFFCURVE",
"759 506 OFFCURVE",
"758 463 CURVE SMOOTH",
"756 402 OFFCURVE",
"655 353 OFFCURVE",
"627 329 CURVE SMOOTH",
"598 304 OFFCURVE",
"647 304 OFFCURVE",
"662 310 CURVE SMOOTH"
);
},
{
closed = 1;
nodes = (
"648 597 OFFCURVE",
"698 608 OFFCURVE",
"750 608 CURVE SMOOTH",
"758 608 OFFCURVE",
"797 608 OFFCURVE",
"798 623 CURVE SMOOTH",
"798 644 OFFCURVE",
"678 647 OFFCURVE",
"660 647 CURVE SMOOTH",
"641 647 OFFCURVE",
"564 640 OFFCURVE",
"563 610 CURVE SMOOTH",
"563 596 OFFCURVE",
"588 597 OFFCURVE",
"597 597 CURVE SMOOTH"
);
}
);
width = 672;
},
{
layerId = "AFE3E0A9-A514-4B93-8E4E-B7D18C88F31C";
paths = (
{
closed = 1;
nodes = (
"790 333 OFFCURVE",
"852 406 OFFCURVE",
"852 462 CURVE SMOOTH",
"852 537 OFFCURVE",
"763 546 OFFCURVE",
"707 546 CURVE SMOOTH",
"501 546 OFFCURVE",
"268 436 OFFCURVE",
"130 285 CURVE",
"98 281 OFFCURVE",
"30 283 OFFCURVE",
"30 237 CURVE SMOOTH",
"30 203 OFFCURVE",
"67 219 OFFCURVE",
"85 222 CURVE",
"56 179 OFFCURVE",
"34 139 OFFCURVE",
"34 87 CURVE SMOOTH",
"34 -27 OFFCURVE",
"160 -53 OFFCURVE",
"251 -53 CURVE SMOOTH",
"473 -53 OFFCURVE",
"695 81 OFFCURVE",
"725 128 CURVE SMOOTH",
"733 140 OFFCURVE",
"729 142 OFFCURVE",
"716 142 CURVE SMOOTH",
"706 142 OFFCURVE",
"559 -13 OFFCURVE",
"278 -13 CURVE SMOOTH",
"106 -13 OFFCURVE",
"48 87 OFFCURVE",
"187 252 CURVE",
"274 262 OFFCURVE",
"306 262 OFFCURVE",
"394 262 CURVE SMOOTH",
"438 262 OFFCURVE",
"533 263 OFFCURVE",
"578 260 CURVE SMOOTH",
"613 258 OFFCURVE",
"621 272 OFFCURVE",
"602 279 CURVE SMOOTH",
"585 285 OFFCURVE",
"485 294 OFFCURVE",
"390 294 CURVE SMOOTH",
"327 294 OFFCURVE",
"286 296 OFFCURVE",
"223 291 CURVE",
"345 406 OFFCURVE",
"539 507 OFFCURVE",
"708 507 CURVE SMOOTH",
"738 507 OFFCURVE",
"824 506 OFFCURVE",
"824 463 CURVE SMOOTH",
"824 402 OFFCURVE",
"714 353 OFFCURVE",
"684 329 CURVE SMOOTH",
"653 304 OFFCURVE",
"708 304 OFFCURVE",
"724 310 CURVE SMOOTH"
);
},
{
closed = 1;
nodes = (
"698 597 OFFCURVE",
"754 608 OFFCURVE",
"811 608 CURVE SMOOTH",
"820 608 OFFCURVE",
"864 608 OFFCURVE",
"864 623 CURVE SMOOTH",
"864 644 OFFCURVE",
"730 647 OFFCURVE",
"710 647 CURVE SMOOTH",
"689 647 OFFCURVE",
"604 640 OFFCURVE",
"604 610 CURVE SMOOTH",
"604 596 OFFCURVE",
"632 597 OFFCURVE",
"641 597 CURVE SMOOTH"
);
}
);
width = 747;
}
);
unicode = 0112;
},
{
color = 11;
glyphname = Eogonek;
lastChange = "2021-08-11 14:48:46 +0000";
layers = (
{
anchors = (
{
name = bottom;
position = "{203, -47}";
},
{
name = ogonek;
position = "{206, -37}";
},
{
name = top;
position = "{575, 579}";
}
);
components = (
{
name = E;
},
{
name = ogonekcomb;
transform = "{1, 0, 0, 1, 112, -40}";
}
);
layerId = "57DEED6F-9A00-47D0-BD9B-6FE09716AB2D";
width = 583;
},
{
layerId = "A9A9B55F-A222-44B0-A0B6-968BE501F3F8";
paths = (
{
closed = 1;
nodes = (
"722 333 OFFCURVE",
"781 406 OFFCURVE",
"783 462 CURVE SMOOTH",
"785 537 OFFCURVE",
"706 546 OFFCURVE",
"655 546 CURVE SMOOTH",
"470 546 OFFCURVE",
"256 436 OFFCURVE",
"126 285 CURVE",
"97 281 OFFCURVE",
"36 283 OFFCURVE",
"35 237 CURVE SMOOTH",
"34 203 OFFCURVE",
"67 219 OFFCURVE",
"83 222 CURVE",
"56 179 OFFCURVE",
"35 139 OFFCURVE",
"34 87 CURVE SMOOTH",
"30 -27 OFFCURVE",
"142 -53 OFFCURVE",
"224 -53 CURVE SMOOTH",
"424 -53 OFFCURVE",
"627 81 OFFCURVE",
"656 128 CURVE SMOOTH",
"664 140 OFFCURVE",
"660 142 OFFCURVE",
"648 142 CURVE SMOOTH",
"639 142 OFFCURVE",
"502 -13 OFFCURVE",
"249 -13 CURVE SMOOTH",
"94 -13 OFFCURVE",
"46 87 OFFCURVE",
"176 252 CURVE",
"256 262 OFFCURVE",
"284 262 OFFCURVE",
"364 262 CURVE SMOOTH",
"403 262 OFFCURVE",
"489 263 OFFCURVE",
"529 260 CURVE SMOOTH",
"561 258 OFFCURVE",
"568 272 OFFCURVE",
"551 279 CURVE SMOOTH",
"535 285 OFFCURVE",
"446 294 OFFCURVE",
"361 294 CURVE SMOOTH",
"304 294 OFFCURVE",
"267 296 OFFCURVE",
"211 291 CURVE",
"324 406 OFFCURVE",
"502 507 OFFCURVE",
"654 507 CURVE SMOOTH",
"681 507 OFFCURVE",
"759 506 OFFCURVE",
"758 463 CURVE SMOOTH",
"756 402 OFFCURVE",
"655 353 OFFCURVE",
"627 329 CURVE SMOOTH",
"598 304 OFFCURVE",
"647 304 OFFCURVE",
"662 310 CURVE SMOOTH"
);
},
{
closed = 1;
nodes = (
"609 95 OFFCURVE",
"605 92 OFFCURVE",
"601 92 CURVE",
"552 71 OFFCURVE",
"440 -37 OFFCURVE",
"438 -99 CURVE SMOOTH",
"437 -129 OFFCURVE",
"458 -144 OFFCURVE",
"483 -144 CURVE SMOOTH",
"534 -144 OFFCURVE",
"574 -108 OFFCURVE",
"578 -88 CURVE SMOOTH",
"580 -79 OFFCURVE",
"571 -82 OFFCURVE",
"568 -84 CURVE",
"555 -97 OFFCURVE",
"535 -114 OFFCURVE",
"517 -114 CURVE SMOOTH",
"494 -114 OFFCURVE",
"488 -99 OFFCURVE",
"488 -81 CURVE SMOOTH",
"490 -35 OFFCURVE",
"554 40 OFFCURVE",
"607 82 CURVE"
);
}
);
width = 672;
},
{
layerId = "AFE3E0A9-A514-4B93-8E4E-B7D18C88F31C";
paths = (
{
closed = 1;
nodes = (
"790 333 OFFCURVE",
"852 406 OFFCURVE",
"852 462 CURVE SMOOTH",
"852 537 OFFCURVE",
"763 546 OFFCURVE",
"707 546 CURVE SMOOTH",
"501 546 OFFCURVE",
"268 436 OFFCURVE",
"130 285 CURVE",
"98 281 OFFCURVE",
"30 283 OFFCURVE",
"30 237 CURVE SMOOTH",
"30 203 OFFCURVE",
"67 219 OFFCURVE",
"85 222 CURVE",
"56 179 OFFCURVE",
"34 139 OFFCURVE",
"34 87 CURVE SMOOTH",
"34 -27 OFFCURVE",
"160 -53 OFFCURVE",
"251 -53 CURVE SMOOTH",
"473 -53 OFFCURVE",
"695 81 OFFCURVE",
"725 128 CURVE SMOOTH",
"733 140 OFFCURVE",
"729 142 OFFCURVE",
"716 142 CURVE SMOOTH",
"706 142 OFFCURVE",
"559 -13 OFFCURVE",
"278 -13 CURVE SMOOTH",
"106 -13 OFFCURVE",
"48 87 OFFCURVE",
"187 252 CURVE",
"274 262 OFFCURVE",
"306 262 OFFCURVE",
"394 262 CURVE SMOOTH",
"438 262 OFFCURVE",
"533 263 OFFCURVE",
"578 260 CURVE SMOOTH",
"613 258 OFFCURVE",
"621 272 OFFCURVE",
"602 279 CURVE SMOOTH",
"585 285 OFFCURVE",
"485 294 OFFCURVE",
"390 294 CURVE SMOOTH",
"327 294 OFFCURVE",
"286 296 OFFCURVE",
"223 291 CURVE",
"345 406 OFFCURVE",
"539 507 OFFCURVE",
"708 507 CURVE SMOOTH",
"738 507 OFFCURVE",
"824 506 OFFCURVE",
"824 463 CURVE SMOOTH",
"824 402 OFFCURVE",
"714 353 OFFCURVE",
"684 329 CURVE SMOOTH",
"653 304 OFFCURVE",
"708 304 OFFCURVE",
"724 310 CURVE SMOOTH"
);
},
{
closed = 1;
nodes = (
"674 95 OFFCURVE",
"670 92 OFFCURVE",
"665 92 CURVE",
"611 71 OFFCURVE",
"491 -37 OFFCURVE",
"491 -99 CURVE SMOOTH",
"491 -129 OFFCURVE",
"515 -144 OFFCURVE",
"543 -144 CURVE SMOOTH",
"600 -144 OFFCURVE",
"643 -108 OFFCURVE",
"647 -88 CURVE SMOOTH",
"649 -79 OFFCURVE",
"639 -82 OFFCURVE",
"635 -84 CURVE",
"621 -97 OFFCURVE",
"600 -114 OFFCURVE",
"580 -114 CURVE SMOOTH",
"554 -114 OFFCURVE",
"546 -99 OFFCURVE",
"546 -81 CURVE SMOOTH",
"546 -35 OFFCURVE",
"614 40 OFFCURVE",
"672 82 CURVE"
);
}
);
width = 747;
}
);
unicode = 0118;
},
{
color = 9;
glyphname = F;
lastChange = "2021-08-11 14:47:19 +0000";
layers = (
{
layerId = "57DEED6F-9A00-47D0-BD9B-6FE09716AB2D";
paths = (
{
closed = 1;
nodes = (
"845 477 OFFCURVE",
"842 480 OFFCURVE",
"836 480 CURVE SMOOTH",
"833 480 OFFCURVE",
"829 479 OFFCURVE",
"824 476 CURVE SMOOTH",
"809 469 OFFCURVE",
"780 465 OFFCURVE",
"738 465 CURVE SMOOTH",
"698 465 OFFCURVE",
"646 468 OFFCURVE",
"582 474 CURVE",
"611 515 OFFCURVE",
"625 535 OFFCURVE",
"625 535 CURVE",
"625 538 OFFCURVE",
"621 540 OFFCURVE",
"612 540 CURVE SMOOTH",
"589 540 OFFCURVE",
"572 535 OFFCURVE",
"564 525 CURVE SMOOTH",
"549 505 OFFCURVE",
"539 490 OFFCURVE",
"532 479 CURVE",
"445 488 OFFCURVE",
"380 493 OFFCURVE",
"338 493 CURVE SMOOTH",
"223 493 OFFCURVE",
"125 469 OFFCURVE",
"45 421 CURVE SMOOTH",
"8 399 OFFCURVE",
"-10 372 OFFCURVE",
"-10 341 CURVE SMOOTH",
"-10 326 OFFCURVE",
"-2 311 OFFCURVE",
"15 296 CURVE SMOOTH",
"75 241 OFFCURVE",
"188 213 OFFCURVE",
"355 213 CURVE SMOOTH",
"370 213 OFFCURVE",
"384 213 OFFCURVE",
"399 214 CURVE",
"362 123 OFFCURVE",
"344 56 OFFCURVE",
"344 13 CURVE SMOOTH",
"344 -28 OFFCURVE",
"359 -48 OFFCURVE",
"390 -48 CURVE SMOOTH",
"398 -48 OFFCURVE",
"409 -44 OFFCURVE",
"423 -36 CURVE SMOOTH",
"436 -29 OFFCURVE",
"443 -21 OFFCURVE",
"443 -14 CURVE SMOOTH",
"443 -8 OFFCURVE",
"440 -5 OFFCURVE",
"435 -5 CURVE SMOOTH",
"432 -5 OFFCURVE",
"428 -9 OFFCURVE",
"416 -17 CURVE SMOOTH",
"405 -24 OFFCURVE",
"397 -28 OFFCURVE",
"391 -28 CURVE SMOOTH",
"377 -28 OFFCURVE",
"370 -16 OFFCURVE",
"370 8 CURVE SMOOTH",
"370 52 OFFCURVE",
"391 121 OFFCURVE",
"433 215 CURVE",
"488 218 OFFCURVE",
"547 225 OFFCURVE",
"595 233 CURVE SMOOTH",
"657 244 LINE",
"668 247 OFFCURVE",
"674 253 OFFCURVE",
"674 261 CURVE SMOOTH",
"674 265 OFFCURVE",
"671 267 OFFCURVE",
"665 267 CURVE SMOOTH",
"640 267 OFFCURVE",
"604 263 OFFCURVE",
"556 256 CURVE SMOOTH",
"489 246 OFFCURVE",
"466 243 OFFCURVE",
"445 242 CURVE",
"476 310 OFFCURVE",
"515 378 OFFCURVE",
"561 445 CURVE",
"621 439 OFFCURVE",
"673 436 OFFCURVE",
"717 436 CURVE SMOOTH",
"802 436 OFFCURVE",
"845 447 OFFCURVE",
"845 470 CURVE SMOOTH"
);
},
{
closed = 1;
nodes = (
"479 390 OFFCURVE",
"444 320 OFFCURVE",
"410 241 CURVE",
"397 240 OFFCURVE",
"383 240 OFFCURVE",
"370 240 CURVE SMOOTH",
"303 240 OFFCURVE",
"240 245 OFFCURVE",
"182 255 CURVE SMOOTH",
"84 271 OFFCURVE",
"35 298 OFFCURVE",
"35 336 CURVE SMOOTH",
"35 417 OFFCURVE",
"141 457 OFFCURVE",
"353 457 CURVE SMOOTH",
"405 457 OFFCURVE",
"459 455 OFFCURVE",
"514 450 CURVE"
);
}
);
width = 632;
},
{
layerId = "A9A9B55F-A222-44B0-A0B6-968BE501F3F8";
paths = (
{
closed = 1;
nodes = (
"874 450 OFFCURVE",
"984 450 OFFCURVE",
"983 475 CURVE SMOOTH",
"982 496 OFFCURVE",
"963 491 OFFCURVE",
"952 487 CURVE SMOOTH",
"925 476 OFFCURVE",
"883 476 OFFCURVE",
"857 476 CURVE SMOOTH",
"803 476 OFFCURVE",
"759 478 OFFCURVE",
"705 482 CURVE",
"721 500 OFFCURVE",
"733 519 OFFCURVE",
"750 536 CURVE",
"749 548 OFFCURVE",
"737 549 OFFCURVE",
"728 549 CURVE SMOOTH",
"676 549 OFFCURVE",
"659 535 OFFCURVE",
"625 491 CURVE",
"555 497 OFFCURVE",
"484 504 OFFCURVE",
"413 504 CURVE SMOOTH",
"164 504 OFFCURVE",
"18 457 OFFCURVE",
"14 346 CURVE SMOOTH",
"13 327 OFFCURVE",
"30 305 OFFCURVE",
"41 296 CURVE SMOOTH",
"127 225 OFFCURVE",
"285 210 OFFCURVE",
"438 212 CURVE SMOOTH",
"461 212 LINE",
"435 159 OFFCURVE",
"399 78 OFFCURVE",
"397 18 CURVE SMOOTH",
"395 -24 OFFCURVE",
"412 -49 OFFCURVE",
"451 -49 CURVE SMOOTH",
"466 -49 OFFCURVE",
"506 -31 OFFCURVE",
"518 -9 CURVE SMOOTH",
"523 0 OFFCURVE",
"516 6 OFFCURVE",
"510 0 CURVE SMOOTH",
"484 -24 OFFCURVE",
"436 -41 OFFCURVE",
"438 13 CURVE SMOOTH",
"440 72 OFFCURVE",
"486 162 OFFCURVE",
"513 214 CURVE",
"572 217 OFFCURVE",
"632 223 OFFCURVE",
"690 232 CURVE SMOOTH",
"709 235 OFFCURVE",
"759 242 OFFCURVE",
"777 254 CURVE SMOOTH",
"785 259 OFFCURVE",
"768 267 OFFCURVE",
"761 266 CURVE SMOOTH",
"682 255 OFFCURVE",
"605 247 OFFCURVE",
"526 242 CURVE",
"563 309 OFFCURVE",
"655 429 OFFCURVE",
"685 456 CURVE",
"743 451 OFFCURVE",
"791 450 OFFCURVE",
"847 450 CURVE SMOOTH"
);
},
{
closed = 1;
nodes = (
"499 471 OFFCURVE",
"556 469 OFFCURVE",
"611 465 CURVE",
"568 402 OFFCURVE",
"508 308 OFFCURVE",
"473 240 CURVE",
"454 239 LINE SMOOTH",
"390 237 OFFCURVE",
"73 251 OFFCURVE",
"76 341 CURVE SMOOTH",
"80 457 OFFCURVE",
"371 471 OFFCURVE",
"443 471 CURVE SMOOTH"
);
}
);
width = 742;
},
{
layerId = "AFE3E0A9-A514-4B93-8E4E-B7D18C88F31C";
paths = (
{
closed = 1;
nodes = (
"955 450 OFFCURVE",
"1077 450 OFFCURVE",
"1075 475 CURVE SMOOTH",
"1073 496 OFFCURVE",
"1052 491 OFFCURVE",
"1040 487 CURVE SMOOTH",
"1010 476 OFFCURVE",
"964 476 OFFCURVE",
"935 476 CURVE SMOOTH",
"875 476 OFFCURVE",
"826 478 OFFCURVE",
"766 482 CURVE",
"782 500 OFFCURVE",
"796 519 OFFCURVE",
"813 536 CURVE",
"812 548 OFFCURVE",
"799 549 OFFCURVE",
"789 549 CURVE SMOOTH",
"731 549 OFFCURVE",
"712 535 OFFCURVE",
"677 491 CURVE",
"598 497 OFFCURVE",
"519 504 OFFCURVE",
"440 504 CURVE SMOOTH",
"217 504 OFFCURVE",
"3 474 OFFCURVE",
"3 346 CURVE SMOOTH",
"3 325 OFFCURVE",
"20 308 OFFCURVE",
"36 296 CURVE SMOOTH",
"146 217 OFFCURVE",
"347 210 OFFCURVE",
"479 212 CURVE SMOOTH",
"505 212 LINE",
"478 159 OFFCURVE",
"441 78 OFFCURVE",
"441 18 CURVE SMOOTH",
"441 -24 OFFCURVE",
"461 -49 OFFCURVE",
"505 -49 CURVE SMOOTH",
"521 -49 OFFCURVE",
"565 -31 OFFCURVE",
"577 -9 CURVE SMOOTH",
"582 0 OFFCURVE",
"575 6 OFFCURVE",
"568 0 CURVE SMOOTH",
"539 -24 OFFCURVE",
"487 -41 OFFCURVE",
"487 13 CURVE SMOOTH",
"487 72 OFFCURVE",
"534 162 OFFCURVE",
"562 214 CURVE",
"631 217 OFFCURVE",
"702 224 OFFCURVE",
"759 232 CURVE SMOOTH",
"779 235 OFFCURVE",
"834 242 OFFCURVE",
"855 254 CURVE SMOOTH",
"863 259 OFFCURVE",
"844 267 OFFCURVE",
"837 266 CURVE SMOOTH",
"749 255 OFFCURVE",
"663 247 OFFCURVE",
"576 242 CURVE",
"615 309 OFFCURVE",
"712 429 OFFCURVE",
"745 456 CURVE",
"809 451 OFFCURVE",
"862 450 OFFCURVE",
"925 450 CURVE SMOOTH"
);
},
{
closed = 1;
nodes = (
"537 471 OFFCURVE",
"600 469 OFFCURVE",
"662 465 CURVE",
"617 402 OFFCURVE",
"553 308 OFFCURVE",
"517 240 CURVE",
"497 239 LINE SMOOTH",
"430 237 OFFCURVE",
"72 250 OFFCURVE",
"72 341 CURVE SMOOTH",
"72 457 OFFCURVE",
"395 471 OFFCURVE",
"475 471 CURVE SMOOTH"
);
}
);
width = 824;
}
);
note = F;
unicode = 0046;
},
{
color = 9;
glyphname = G;
lastChange = "2021-08-11 14:47:19 +0000";
layers = (
{
anchors = (
{
name = bottom;
position = "{178, 45}";
},
{
name = top;
position = "{606, 574}";
}
);
layerId = "57DEED6F-9A00-47D0-BD9B-6FE09716AB2D";
paths = (
{
closed = 1;
nodes = (
"687 509 OFFCURVE",
"661 525 OFFCURVE",
"609 530 CURVE",
"602 545 OFFCURVE",
"592 552 OFFCURVE",
"580 552 CURVE SMOOTH",
"572 552 OFFCURVE",
"567 546 OFFCURVE",
"565 534 CURVE",
"476 507 OFFCURVE",
"393 465 OFFCURVE",
"317 408 CURVE SMOOTH",
"222 337 OFFCURVE",
"175 263 OFFCURVE",
"175 186 CURVE SMOOTH",
"175 176 OFFCURVE",
"179 164 OFFCURVE",
"187 151 CURVE",
"-25 64 OFFCURVE",
"-131 -34 OFFCURVE",
"-131 -144 CURVE SMOOTH",
"-131 -225 OFFCURVE",
"-82 -266 OFFCURVE",
"17 -266 CURVE SMOOTH",
"90 -266 OFFCURVE",
"157 -250 OFFCURVE",
"220 -218 CURVE SMOOTH",
"388 -133 OFFCURVE",
"500 18 OFFCURVE",
"556 237 CURVE",
"565 238 OFFCURVE",
"576 239 OFFCURVE",
"589 239 CURVE SMOOTH",
"593 239 OFFCURVE",
"599 239 OFFCURVE",
"606 238 CURVE SMOOTH",
"613 237 OFFCURVE",
"618 237 OFFCURVE",
"621 237 CURVE SMOOTH",
"632 237 OFFCURVE",
"637 240 OFFCURVE",
"637 247 CURVE SMOOTH",
"637 258 OFFCURVE",
"620 264 OFFCURVE",
"586 264 CURVE SMOOTH",
"579 264 OFFCURVE",
"571 264 OFFCURVE",
"563 263 CURVE",
"576 320 OFFCURVE",
"586 369 OFFCURVE",
"594 410 CURVE SMOOTH",
"605 467 OFFCURVE",
"609 488 OFFCURVE",
"610 505 CURVE",
"613 506 OFFCURVE",
"616 506 OFFCURVE",
"619 506 CURVE SMOOTH",
"642 506 OFFCURVE",
"654 497 OFFCURVE",
"654 478 CURVE SMOOTH",
"654 471 OFFCURVE",
"652 462 OFFCURVE",
"647 452 CURVE SMOOTH",
"642 442 OFFCURVE",
"640 437 OFFCURVE",
"640 436 CURVE SMOOTH",
"640 431 OFFCURVE",
"642 429 OFFCURVE",
"647 429 CURVE SMOOTH",
"656 429 OFFCURVE",
"665 435 OFFCURVE",
"674 448 CURVE SMOOTH",
"683 461 OFFCURVE",
"687 471 OFFCURVE",
"687 480 CURVE SMOOTH"
);
},
{
closed = 1;
nodes = (
"517 254 LINE",
"494 249 OFFCURVE",
"472 243 OFFCURVE",
"451 238 CURVE",
"483 274 OFFCURVE",
"512 313 OFFCURVE",
"537 356 CURVE"
);
},
{
closed = 1;
nodes = (
"559 461 OFFCURVE",
"540 409 OFFCURVE",
"507 354 CURVE SMOOTH",
"476 302 OFFCURVE",
"442 261 OFFCURVE",
"404 225 CURVE",
"337 206 OFFCURVE",
"276 185 OFFCURVE",
"220 164 CURVE",
"217 170 OFFCURVE",
"216 177 OFFCURVE",
"216 184 CURVE SMOOTH",
"216 209 OFFCURVE",
"226 239 OFFCURVE",
"246 274 CURVE SMOOTH",
"262 303 OFFCURVE",
"280 329 OFFCURVE",
"301 352 CURVE SMOOTH",
"367 425 OFFCURVE",
"456 477 OFFCURVE",
"565 508 CURVE"
);
},
{
closed = 1;
nodes = (
"318 159 OFFCURVE",
"284 146 OFFCURVE",
"253 146 CURVE SMOOTH",
"249 146 OFFCURVE",
"245 146 OFFCURVE",
"242 147 CURVE",
"277 160 OFFCURVE",
"315 173 OFFCURVE",
"356 185 CURVE"
);
},
{
closed = 1;
nodes = (
"457 6 OFFCURVE",
"358 -137 OFFCURVE",
"213 -199 CURVE SMOOTH",
"160 -222 OFFCURVE",
"103 -233 OFFCURVE",
"44 -233 CURVE SMOOTH",
"-46 -233 OFFCURVE",
"-91 -199 OFFCURVE",
"-91 -131 CURVE SMOOTH",
"-91 -34 OFFCURVE",
"7 53 OFFCURVE",
"202 131 CURVE",
"214 119 OFFCURVE",
"230 113 OFFCURVE",
"249 113 CURVE SMOOTH",
"300 113 OFFCURVE",
"357 143 OFFCURVE",
"418 203 CURVE",
"443 210 OFFCURVE",
"474 219 OFFCURVE",
"510 228 CURVE"
);
}
);
width = 548;
},
{
layerId = "A9A9B55F-A222-44B0-A0B6-968BE501F3F8";
paths = (
{
closed = 1;
nodes = (
"783 428 OFFCURVE",
"813 461 OFFCURVE",
"814 485 CURVE SMOOTH",
"816 527 OFFCURVE",
"755 538 OFFCURVE",
"727 541 CURVE",
"720 555 OFFCURVE",
"707 563 OFFCURVE",
"692 563 CURVE SMOOTH",
"681 563 OFFCURVE",
"672 555 OFFCURVE",
"669 544 CURVE",
"534 507 OFFCURVE",
"228 377 OFFCURVE",
"222 191 CURVE SMOOTH",
"222 179 OFFCURVE",
"223 171 OFFCURVE",
"231 159 CURVE",
"117 118 OFFCURVE",
"-124 20 OFFCURVE",
"-130 -139 CURVE SMOOTH",
"-133 -225 OFFCURVE",
"-74 -267 OFFCURVE",
"36 -267 CURVE SMOOTH",
"319 -267 OFFCURVE",
"566 -52 OFFCURVE",
"663 246 CURVE",
"674 247 OFFCURVE",
"685 248 OFFCURVE",
"696 248 CURVE SMOOTH",
"726 248 OFFCURVE",
"747 238 OFFCURVE",
"750 252 CURVE SMOOTH",
"755 275 OFFCURVE",
"704 275 OFFCURVE",
"681 275 CURVE SMOOTH",
"671 275 LINE",
"692 348 OFFCURVE",
"718 444 OFFCURVE",
"728 520 CURVE",
"732 520 LINE SMOOTH",
"746 520 OFFCURVE",
"772 504 OFFCURVE",
"775 484 CURVE SMOOTH",
"779 456 OFFCURVE",
"765 449 OFFCURVE",
"758 442 CURVE SMOOTH",
"753 437 OFFCURVE",
"755 428 OFFCURVE",
"762 428 CURVE SMOOTH"
);
},
{
closed = 1;
nodes = (
"556 254 LINE",
"580 278 OFFCURVE",
"602 304 OFFCURVE",
"623 332 CURVE",
"606 264 LINE"
);
},
{
closed = 1;
nodes = (
"396 401 OFFCURVE",
"539 484 OFFCURVE",
"670 519 CURVE",
"637 359 OFFCURVE",
"557 299 OFFCURVE",
"481 236 CURVE",
"414 219 OFFCURVE",
"368 202 OFFCURVE",
"301 180 CURVE",
"260 184 OFFCURVE",
"298 249 OFFCURVE",
"315 276 CURVE SMOOTH"
);
},
{
closed = 1;
nodes = (
"600 237 LINE",
"515 -38 OFFCURVE",
"327 -238 OFFCURVE",
"59 -238 CURVE SMOOTH",
"1 -238 OFFCURVE",
"-75 -211 OFFCURVE",
"-72 -126 CURVE SMOOTH",
"-68 8 OFFCURVE",
"145 100 OFFCURVE",
"241 134 CURVE",
"255 122 OFFCURVE",
"274 117 OFFCURVE",
"293 117 CURVE SMOOTH",
"364 117 OFFCURVE",
"454 167 OFFCURVE",
"510 214 CURVE"
);
}
);
width = 695;
},
{
layerId = "AFE3E0A9-A514-4B93-8E4E-B7D18C88F31C";
paths = (
{
closed = 1;
nodes = (
"855 428 OFFCURVE",
"887 461 OFFCURVE",
"887 485 CURVE SMOOTH",
"887 527 OFFCURVE",
"819 538 OFFCURVE",
"788 541 CURVE",
"779 555 OFFCURVE",
"764 563 OFFCURVE",
"748 563 CURVE SMOOTH",
"736 563 OFFCURVE",
"726 555 OFFCURVE",
"723 544 CURVE",
"575 507 OFFCURVE",
"240 377 OFFCURVE",
"240 191 CURVE SMOOTH",
"240 180 OFFCURVE",
"244 168 OFFCURVE",
"251 159 CURVE",
"127 118 OFFCURVE",
"-139 20 OFFCURVE",
"-139 -139 CURVE SMOOTH",
"-139 -247 OFFCURVE",
"-36 -267 OFFCURVE",
"51 -267 CURVE SMOOTH",
"366 -267 OFFCURVE",
"632 -52 OFFCURVE",
"728 246 CURVE",
"740 247 OFFCURVE",
"752 248 OFFCURVE",
"764 248 CURVE SMOOTH",
"798 248 OFFCURVE",
"822 238 OFFCURVE",
"825 252 CURVE SMOOTH",
"829 273 OFFCURVE",
"774 275 OFFCURVE",
"747 275 CURVE SMOOTH",
"736 275 LINE",
"757 348 OFFCURVE",
"781 444 OFFCURVE",
"790 520 CURVE",
"795 520 LINE SMOOTH",
"810 520 OFFCURVE",
"839 504 OFFCURVE",
"843 484 CURVE SMOOTH",
"849 456 OFFCURVE",
"833 449 OFFCURVE",
"826 442 CURVE SMOOTH",
"821 437 OFFCURVE",
"823 428 OFFCURVE",
"831 428 CURVE SMOOTH"
);
},
{
closed = 1;
nodes = (
"609 254 LINE",
"634 278 OFFCURVE",
"658 304 OFFCURVE",
"680 332 CURVE",
"664 264 LINE"
);
},
{
closed = 1;
nodes = (
"426 401 OFFCURVE",
"581 484 OFFCURVE",
"726 519 CURVE",
"695 359 OFFCURVE",
"608 299 OFFCURVE",
"527 236 CURVE",
"452 219 OFFCURVE",
"402 202 OFFCURVE",
"329 180 CURVE",
"282 186 OFFCURVE",
"321 249 OFFCURVE",
"340 276 CURVE SMOOTH"
);
},
{
closed = 1;
nodes = (
"659 237 LINE",
"575 -38 OFFCURVE",
"373 -238 OFFCURVE",
"76 -238 CURVE SMOOTH",
"11 -238 OFFCURVE",
"-76 -211 OFFCURVE",
"-76 -126 CURVE SMOOTH",
"-76 8 OFFCURVE",
"158 100 OFFCURVE",
"263 134 CURVE",
"280 122 OFFCURVE",
"301 117 OFFCURVE",
"322 117 CURVE SMOOTH",
"401 117 OFFCURVE",
"499 167 OFFCURVE",
"559 214 CURVE"
);
}
);
width = 772;
}
);
note = G;
unicode = 0047;
},
{
color = 11;
glyphname = Gbreve;
lastChange = "2021-08-11 14:48:46 +0000";
layers = (
{
components = (
{
name = G;
},
{
name = brevecomb;
transform = "{1, 0, 0, 1, 541, -16}";
}
);
layerId = "57DEED6F-9A00-47D0-BD9B-6FE09716AB2D";
width = 548;
},
{
layerId = "A9A9B55F-A222-44B0-A0B6-968BE501F3F8";
paths = (
{
closed = 1;
nodes = (
"783 418 OFFCURVE",
"813 451 OFFCURVE",
"814 475 CURVE SMOOTH",
"816 517 OFFCURVE",
"755 528 OFFCURVE",
"727 531 CURVE",
"720 545 OFFCURVE",
"707 553 OFFCURVE",
"692 553 CURVE SMOOTH",
"681 553 OFFCURVE",
"672 545 OFFCURVE",
"669 534 CURVE",
"534 497 OFFCURVE",
"228 367 OFFCURVE",
"222 181 CURVE SMOOTH",
"221 170 OFFCURVE",
"225 158 OFFCURVE",
"231 149 CURVE",
"117 108 OFFCURVE",
"-124 10 OFFCURVE",
"-130 -149 CURVE SMOOTH",
"-133 -257 OFFCURVE",
"-41 -277 OFFCURVE",
"36 -277 CURVE SMOOTH",
"319 -277 OFFCURVE",
"566 -62 OFFCURVE",
"663 236 CURVE",
"674 237 OFFCURVE",
"685 238 OFFCURVE",
"696 238 CURVE SMOOTH",
"726 239 OFFCURVE",
"747 228 OFFCURVE",
"750 242 CURVE SMOOTH",
"755 263 OFFCURVE",
"706 265 OFFCURVE",
"681 265 CURVE SMOOTH",
"671 265 LINE",
"692 338 OFFCURVE",
"718 434 OFFCURVE",
"728 510 CURVE",
"732 510 LINE SMOOTH",
"746 510 OFFCURVE",
"772 494 OFFCURVE",
"775 474 CURVE SMOOTH",
"779 446 OFFCURVE",
"765 439 OFFCURVE",
"758 432 CURVE SMOOTH",
"753 427 OFFCURVE",
"755 418 OFFCURVE",
"762 418 CURVE SMOOTH"
);
},
{
closed = 1;
nodes = (
"556 244 LINE",
"580 268 OFFCURVE",
"602 294 OFFCURVE",
"623 322 CURVE",
"606 254 LINE"
);
},
{
closed = 1;
nodes = (
"397 392 OFFCURVE",
"539 474 OFFCURVE",
"670 509 CURVE",
"637 349 OFFCURVE",
"557 289 OFFCURVE",
"481 226 CURVE",
"414 209 OFFCURVE",
"368 192 OFFCURVE",
"301 170 CURVE",
"255 175 OFFCURVE",
"300 242 OFFCURVE",
"315 266 CURVE SMOOTH"
);
},
{
closed = 1;
nodes = (
"600 227 LINE",
"515 -48 OFFCURVE",
"327 -248 OFFCURVE",
"59 -248 CURVE SMOOTH",
"1 -248 OFFCURVE",
"-75 -221 OFFCURVE",
"-72 -136 CURVE SMOOTH",
"-68 -2 OFFCURVE",
"145 90 OFFCURVE",
"241 124 CURVE",
"255 112 OFFCURVE",
"274 107 OFFCURVE",
"293 107 CURVE SMOOTH",
"364 107 OFFCURVE",
"454 157 OFFCURVE",
"510 204 CURVE"
);
},
{
closed = 1;
nodes = (
"754 622 OFFCURVE",
"816 667 OFFCURVE",
"824 699 CURVE",
"825 712 OFFCURVE",
"815 710 OFFCURVE",
"809 703 CURVE SMOOTH",
"785 677 OFFCURVE",
"738 649 OFFCURVE",
"707 649 CURVE SMOOTH",
"692 649 OFFCURVE",
"674 650 OFFCURVE",
"663 661 CURVE SMOOTH",
"656 667 OFFCURVE",
"648 676 OFFCURVE",
"647 693 CURVE SMOOTH",
"646 701 OFFCURVE",
"637 707 OFFCURVE",
"634 707 CURVE SMOOTH",
"621 707 OFFCURVE",
"615 697 OFFCURVE",
"615 686 CURVE SMOOTH",
"613 639 OFFCURVE",
"663 622 OFFCURVE",
"699 622 CURVE SMOOTH"
);
}
);
width = 695;
},
{
layerId = "AFE3E0A9-A514-4B93-8E4E-B7D18C88F31C";
paths = (
{
closed = 1;
nodes = (
"855 418 OFFCURVE",
"887 451 OFFCURVE",
"887 475 CURVE SMOOTH",
"887 517 OFFCURVE",
"819 528 OFFCURVE",
"788 531 CURVE",
"779 545 OFFCURVE",
"764 553 OFFCURVE",
"748 553 CURVE SMOOTH",
"736 553 OFFCURVE",
"726 545 OFFCURVE",
"723 534 CURVE",
"575 497 OFFCURVE",
"240 367 OFFCURVE",
"240 181 CURVE SMOOTH",
"240 170 OFFCURVE",
"244 158 OFFCURVE",
"251 149 CURVE",
"127 108 OFFCURVE",
"-139 10 OFFCURVE",
"-139 -149 CURVE SMOOTH",
"-139 -257 OFFCURVE",
"-36 -277 OFFCURVE",
"51 -277 CURVE SMOOTH",
"366 -277 OFFCURVE",
"632 -62 OFFCURVE",
"728 236 CURVE",
"740 237 OFFCURVE",
"752 238 OFFCURVE",
"764 238 CURVE SMOOTH",
"798 239 OFFCURVE",
"822 228 OFFCURVE",
"825 242 CURVE SMOOTH",
"829 263 OFFCURVE",
"774 265 OFFCURVE",
"747 265 CURVE SMOOTH",
"736 265 LINE",
"757 338 OFFCURVE",
"781 434 OFFCURVE",
"790 510 CURVE",
"795 510 LINE SMOOTH",
"810 510 OFFCURVE",
"839 494 OFFCURVE",
"843 474 CURVE SMOOTH",
"849 446 OFFCURVE",
"833 439 OFFCURVE",
"826 432 CURVE SMOOTH",
"821 427 OFFCURVE",
"823 418 OFFCURVE",
"831 418 CURVE SMOOTH"
);
},
{
closed = 1;
nodes = (
"609 244 LINE",
"634 268 OFFCURVE",
"658 294 OFFCURVE",
"680 322 CURVE",
"664 254 LINE"
);
},
{
closed = 1;
nodes = (
"427 392 OFFCURVE",
"581 474 OFFCURVE",
"726 509 CURVE",
"695 349 OFFCURVE",
"608 289 OFFCURVE",
"527 226 CURVE",
"452 209 OFFCURVE",
"402 192 OFFCURVE",
"329 170 CURVE",
"277 175 OFFCURVE",
"324 242 OFFCURVE",
"340 266 CURVE SMOOTH"
);
},
{
closed = 1;
nodes = (
"659 227 LINE",
"575 -48 OFFCURVE",
"373 -248 OFFCURVE",
"76 -248 CURVE SMOOTH",
"11 -248 OFFCURVE",
"-76 -221 OFFCURVE",
"-76 -136 CURVE SMOOTH",
"-76 -2 OFFCURVE",
"158 90 OFFCURVE",
"263 124 CURVE",
"280 112 OFFCURVE",
"301 107 OFFCURVE",
"322 107 CURVE SMOOTH",
"401 107 OFFCURVE",
"499 157 OFFCURVE",
"559 204 CURVE"
);
},
{
closed = 1;
nodes = (
"816 622 OFFCURVE",
"882 667 OFFCURVE",
"890 699 CURVE",
"890 712 OFFCURVE",
"880 710 OFFCURVE",
"873 703 CURVE SMOOTH",
"848 677 OFFCURVE",
"797 649 OFFCURVE",
"762 649 CURVE SMOOTH",
"745 649 OFFCURVE",
"725 650 OFFCURVE",
"712 661 CURVE SMOOTH",
"704 667 OFFCURVE",
"696 676 OFFCURVE",
"693 693 CURVE SMOOTH",
"692 701 OFFCURVE",
"682 707 OFFCURVE",
"679 707 CURVE SMOOTH",
"664 707 OFFCURVE",
"658 697 OFFCURVE",
"658 686 CURVE SMOOTH",
"658 639 OFFCURVE",
"714 622 OFFCURVE",
"754 622 CURVE SMOOTH"
);
}
);
width = 772;
}
);
unicode = 011E;
},
{
color = 11;
glyphname = Gcircumflex;
lastChange = "2021-08-11 14:48:46 +0000";
layers = (
{
components = (
{
name = G;
},
{
name = circumflexcomb;
transform = "{1, 0, 0, 1, 513, -16}";
}
);
layerId = "57DEED6F-9A00-47D0-BD9B-6FE09716AB2D";
width = 548;
},
{
layerId = "A9A9B55F-A222-44B0-A0B6-968BE501F3F8";
paths = (
{
closed = 1;
nodes = (
"783 418 OFFCURVE",
"813 451 OFFCURVE",
"814 475 CURVE SMOOTH",
"816 517 OFFCURVE",
"755 528 OFFCURVE",
"727 531 CURVE",
"720 545 OFFCURVE",
"707 553 OFFCURVE",
"692 553 CURVE SMOOTH",
"681 553 OFFCURVE",
"672 545 OFFCURVE",
"669 534 CURVE",
"534 497 OFFCURVE",
"228 367 OFFCURVE",
"222 181 CURVE SMOOTH",
"221 170 OFFCURVE",
"225 158 OFFCURVE",
"231 149 CURVE",
"117 108 OFFCURVE",
"-124 10 OFFCURVE",
"-130 -149 CURVE SMOOTH",
"-133 -257 OFFCURVE",
"-41 -277 OFFCURVE",
"36 -277 CURVE SMOOTH",
"319 -277 OFFCURVE",
"566 -62 OFFCURVE",
"663 236 CURVE",
"674 237 OFFCURVE",
"685 238 OFFCURVE",
"696 238 CURVE SMOOTH",
"726 239 OFFCURVE",
"747 228 OFFCURVE",
"750 242 CURVE SMOOTH",
"755 263 OFFCURVE",
"706 265 OFFCURVE",
"681 265 CURVE SMOOTH",
"671 265 LINE",
"692 338 OFFCURVE",
"718 434 OFFCURVE",
"728 510 CURVE",
"732 510 LINE SMOOTH",
"746 510 OFFCURVE",
"772 494 OFFCURVE",
"775 474 CURVE SMOOTH",
"779 446 OFFCURVE",
"765 439 OFFCURVE",
"758 432 CURVE SMOOTH",
"753 427 OFFCURVE",
"755 418 OFFCURVE",
"762 418 CURVE SMOOTH"
);
},
{
closed = 1;
nodes = (
"556 244 LINE",
"580 268 OFFCURVE",
"602 294 OFFCURVE",
"623 322 CURVE",
"606 254 LINE"
);
},
{
closed = 1;
nodes = (
"397 392 OFFCURVE",
"539 474 OFFCURVE",
"670 509 CURVE",
"637 349 OFFCURVE",
"557 289 OFFCURVE",
"481 226 CURVE",
"414 209 OFFCURVE",
"368 192 OFFCURVE",
"301 170 CURVE",
"255 175 OFFCURVE",
"300 242 OFFCURVE",
"315 266 CURVE SMOOTH"
);
},
{
closed = 1;
nodes = (
"600 227 LINE",
"515 -48 OFFCURVE",
"327 -248 OFFCURVE",
"59 -248 CURVE SMOOTH",
"1 -248 OFFCURVE",
"-75 -221 OFFCURVE",
"-72 -136 CURVE SMOOTH",
"-68 -2 OFFCURVE",
"145 90 OFFCURVE",
"241 124 CURVE",
"255 112 OFFCURVE",
"274 107 OFFCURVE",
"293 107 CURVE SMOOTH",
"364 107 OFFCURVE",
"454 157 OFFCURVE",
"510 204 CURVE"
);
},
{
closed = 1;
nodes = (
"789 634 OFFCURVE",
"761 663 OFFCURVE",
"753 678 CURVE SMOOTH",
"742 697 OFFCURVE",
"720 678 OFFCURVE",
"666 646 CURVE SMOOTH",
"623 619 OFFCURVE",
"594 597 OFFCURVE",
"593 592 CURVE SMOOTH",
"591 587 OFFCURVE",
"593 585 OFFCURVE",
"598 585 CURVE SMOOTH",
"604 585 OFFCURVE",
"641 604 OFFCURVE",
"713 648 CURVE",
"719 638 OFFCURVE",
"733 624 OFFCURVE",
"756 607 CURVE SMOOTH",
"758 606 OFFCURVE",
"779 588 OFFCURVE",
"795 582 CURVE",
"809 573 OFFCURVE",
"832 588 OFFCURVE",
"822 601 CURVE"
);
}
);
width = 695;
},
{
layerId = "AFE3E0A9-A514-4B93-8E4E-B7D18C88F31C";
paths = (
{
closed = 1;
nodes = (
"855 418 OFFCURVE",
"887 451 OFFCURVE",
"887 475 CURVE SMOOTH",
"887 517 OFFCURVE",
"819 528 OFFCURVE",
"788 531 CURVE",
"779 545 OFFCURVE",
"764 553 OFFCURVE",
"748 553 CURVE SMOOTH",
"736 553 OFFCURVE",
"726 545 OFFCURVE",
"723 534 CURVE",
"575 497 OFFCURVE",
"240 367 OFFCURVE",
"240 181 CURVE SMOOTH",
"240 170 OFFCURVE",
"244 158 OFFCURVE",
"251 149 CURVE",
"127 108 OFFCURVE",
"-139 10 OFFCURVE",
"-139 -149 CURVE SMOOTH",
"-139 -257 OFFCURVE",
"-36 -277 OFFCURVE",
"51 -277 CURVE SMOOTH",
"366 -277 OFFCURVE",
"632 -62 OFFCURVE",
"728 236 CURVE",
"740 237 OFFCURVE",
"752 238 OFFCURVE",
"764 238 CURVE SMOOTH",
"798 239 OFFCURVE",
"822 228 OFFCURVE",
"825 242 CURVE SMOOTH",
"829 263 OFFCURVE",
"774 265 OFFCURVE",
"747 265 CURVE SMOOTH",
"736 265 LINE",
"757 338 OFFCURVE",
"781 434 OFFCURVE",
"790 510 CURVE",
"795 510 LINE SMOOTH",
"810 510 OFFCURVE",
"839 494 OFFCURVE",
"843 474 CURVE SMOOTH",
"849 446 OFFCURVE",
"833 439 OFFCURVE",
"826 432 CURVE SMOOTH",
"821 427 OFFCURVE",
"823 418 OFFCURVE",
"831 418 CURVE SMOOTH"
);
},
{
closed = 1;
nodes = (
"609 244 LINE",
"634 268 OFFCURVE",
"658 294 OFFCURVE",
"680 322 CURVE",
"664 254 LINE"
);
},
{
closed = 1;
nodes = (
"427 392 OFFCURVE",
"581 474 OFFCURVE",
"726 509 CURVE",
"695 349 OFFCURVE",
"608 289 OFFCURVE",
"527 226 CURVE",
"452 209 OFFCURVE",
"402 192 OFFCURVE",
"329 170 CURVE",
"277 175 OFFCURVE",
"324 242 OFFCURVE",
"340 266 CURVE SMOOTH"
);
},
{
closed = 1;
nodes = (
"659 227 LINE",
"575 -48 OFFCURVE",
"373 -248 OFFCURVE",
"76 -248 CURVE SMOOTH",
"11 -248 OFFCURVE",
"-76 -221 OFFCURVE",
"-76 -136 CURVE SMOOTH",
"-76 -2 OFFCURVE",
"158 90 OFFCURVE",
"263 124 CURVE",
"280 112 OFFCURVE",
"301 107 OFFCURVE",
"322 107 CURVE SMOOTH",
"401 107 OFFCURVE",
"499 157 OFFCURVE",
"559 204 CURVE"
);
},
{
closed = 1;
nodes = (
"852 634 OFFCURVE",
"820 663 OFFCURVE",
"811 678 CURVE SMOOTH",
"798 697 OFFCURVE",
"774 678 OFFCURVE",
"716 646 CURVE SMOOTH",
"669 619 OFFCURVE",
"638 597 OFFCURVE",
"637 592 CURVE",
"634 587 OFFCURVE",
"637 585 OFFCURVE",
"642 585 CURVE SMOOTH",
"649 585 OFFCURVE",
"690 604 OFFCURVE",
"768 648 CURVE",
"775 638 OFFCURVE",
"791 624 OFFCURVE",
"817 607 CURVE SMOOTH",
"819 606 OFFCURVE",
"843 588 OFFCURVE",
"861 582 CURVE",
"878 573 OFFCURVE",
"902 588 OFFCURVE",
"891 601 CURVE"
);
}
);
width = 772;
}
);
unicode = 011C;
},
{
color = 11;
glyphname = Gcommaaccent;
lastChange = "2021-08-11 14:48:46 +0000";
layers = (
{
components = (
{
name = G;
},
{
name = commaaccentcomb;
transform = "{1, 0, 0, 1, 111, 25}";
}
);
layerId = "57DEED6F-9A00-47D0-BD9B-6FE09716AB2D";
width = 548;
},
{
layerId = "A9A9B55F-A222-44B0-A0B6-968BE501F3F8";
paths = (
{
closed = 1;
nodes = (
"783 418 OFFCURVE",
"813 451 OFFCURVE",
"814 475 CURVE SMOOTH",
"816 517 OFFCURVE",
"755 528 OFFCURVE",
"727 531 CURVE",
"720 545 OFFCURVE",
"707 553 OFFCURVE",
"692 553 CURVE SMOOTH",
"681 553 OFFCURVE",
"672 545 OFFCURVE",
"669 534 CURVE",
"534 497 OFFCURVE",
"228 367 OFFCURVE",
"222 181 CURVE SMOOTH",
"221 170 OFFCURVE",
"225 158 OFFCURVE",
"231 149 CURVE",
"117 108 OFFCURVE",
"-124 10 OFFCURVE",
"-130 -149 CURVE SMOOTH",
"-133 -257 OFFCURVE",
"-41 -277 OFFCURVE",
"36 -277 CURVE SMOOTH",
"319 -277 OFFCURVE",
"566 -62 OFFCURVE",
"663 236 CURVE",
"674 237 OFFCURVE",
"685 238 OFFCURVE",
"696 238 CURVE SMOOTH",
"726 239 OFFCURVE",
"747 228 OFFCURVE",
"750 242 CURVE SMOOTH",
"755 263 OFFCURVE",
"706 265 OFFCURVE",
"681 265 CURVE SMOOTH",
"671 265 LINE",
"692 338 OFFCURVE",
"718 434 OFFCURVE",
"728 510 CURVE",
"732 510 LINE SMOOTH",
"746 510 OFFCURVE",
"772 494 OFFCURVE",
"775 474 CURVE SMOOTH",
"779 446 OFFCURVE",
"765 439 OFFCURVE",
"758 432 CURVE SMOOTH",
"753 427 OFFCURVE",
"755 418 OFFCURVE",
"762 418 CURVE SMOOTH"
);
},
{
closed = 1;
nodes = (
"556 244 LINE",
"580 268 OFFCURVE",
"602 294 OFFCURVE",
"623 322 CURVE",
"606 254 LINE"
);
},
{
closed = 1;
nodes = (
"397 392 OFFCURVE",
"539 474 OFFCURVE",
"670 509 CURVE",
"637 349 OFFCURVE",
"557 289 OFFCURVE",
"481 226 CURVE",
"414 209 OFFCURVE",
"368 192 OFFCURVE",
"301 170 CURVE",
"255 175 OFFCURVE",
"300 242 OFFCURVE",
"315 266 CURVE SMOOTH"
);
},
{
closed = 1;
nodes = (
"600 227 LINE",
"515 -48 OFFCURVE",
"327 -248 OFFCURVE",
"59 -248 CURVE SMOOTH",
"1 -248 OFFCURVE",
"-75 -221 OFFCURVE",
"-72 -136 CURVE SMOOTH",
"-68 -2 OFFCURVE",
"145 90 OFFCURVE",
"241 124 CURVE",
"255 112 OFFCURVE",
"274 107 OFFCURVE",
"293 107 CURVE SMOOTH",
"364 107 OFFCURVE",
"454 157 OFFCURVE",
"510 204 CURVE"
);
},
{
closed = 1;
nodes = (
"223 9 OFFCURVE",
"237 25 OFFCURVE",
"255 25 CURVE SMOOTH",
"270 25 OFFCURVE",
"278 15 OFFCURVE",
"277 2 CURVE SMOOTH",
"276 -13 OFFCURVE",
"269 -30 OFFCURVE",
"243 -56 CURVE SMOOTH",
"226 -73 OFFCURVE",
"210 -87 OFFCURVE",
"201 -93 CURVE",
"190 -96 OFFCURVE",
"179 -91 OFFCURVE",
"196 -82 CURVE",
"197 -81 OFFCURVE",
"230 -52 OFFCURVE",
"238 -25 CURVE",
"228 -21 OFFCURVE",
"223 -14 OFFCURVE",
"223 -6 CURVE SMOOTH"
);
}
);
width = 695;
},
{
layerId = "AFE3E0A9-A514-4B93-8E4E-B7D18C88F31C";
paths = (
{
closed = 1;
nodes = (
"855 418 OFFCURVE",
"887 451 OFFCURVE",
"887 475 CURVE SMOOTH",
"887 517 OFFCURVE",
"819 528 OFFCURVE",
"788 531 CURVE",
"779 545 OFFCURVE",
"764 553 OFFCURVE",
"748 553 CURVE SMOOTH",
"736 553 OFFCURVE",
"726 545 OFFCURVE",
"723 534 CURVE",
"575 497 OFFCURVE",
"240 367 OFFCURVE",
"240 181 CURVE SMOOTH",
"240 170 OFFCURVE",
"244 158 OFFCURVE",
"251 149 CURVE",
"127 108 OFFCURVE",
"-139 10 OFFCURVE",
"-139 -149 CURVE SMOOTH",
"-139 -257 OFFCURVE",
"-36 -277 OFFCURVE",
"51 -277 CURVE SMOOTH",
"366 -277 OFFCURVE",
"632 -62 OFFCURVE",
"728 236 CURVE",
"740 237 OFFCURVE",
"752 238 OFFCURVE",
"764 238 CURVE SMOOTH",
"798 239 OFFCURVE",
"822 228 OFFCURVE",
"825 242 CURVE SMOOTH",
"829 263 OFFCURVE",
"774 265 OFFCURVE",
"747 265 CURVE SMOOTH",
"736 265 LINE",
"757 338 OFFCURVE",
"781 434 OFFCURVE",
"790 510 CURVE",
"795 510 LINE SMOOTH",
"810 510 OFFCURVE",
"839 494 OFFCURVE",
"843 474 CURVE SMOOTH",
"849 446 OFFCURVE",
"833 439 OFFCURVE",
"826 432 CURVE SMOOTH",
"821 427 OFFCURVE",
"823 418 OFFCURVE",
"831 418 CURVE SMOOTH"
);
},
{
closed = 1;
nodes = (
"609 244 LINE",
"634 268 OFFCURVE",
"658 294 OFFCURVE",
"680 322 CURVE",
"664 254 LINE"
);
},
{
closed = 1;
nodes = (
"427 392 OFFCURVE",
"581 474 OFFCURVE",
"726 509 CURVE",
"695 349 OFFCURVE",
"608 289 OFFCURVE",
"527 226 CURVE",
"452 209 OFFCURVE",
"402 192 OFFCURVE",
"329 170 CURVE",
"277 175 OFFCURVE",
"324 242 OFFCURVE",
"340 266 CURVE SMOOTH"
);
},
{
closed = 1;
nodes = (
"659 227 LINE",
"575 -48 OFFCURVE",
"373 -248 OFFCURVE",
"76 -248 CURVE SMOOTH",
"11 -248 OFFCURVE",
"-76 -221 OFFCURVE",
"-76 -136 CURVE SMOOTH",
"-76 -2 OFFCURVE",
"158 90 OFFCURVE",
"263 124 CURVE",
"280 112 OFFCURVE",
"301 107 OFFCURVE",
"322 107 CURVE SMOOTH",
"401 107 OFFCURVE",
"499 157 OFFCURVE",
"559 204 CURVE"
);
},
{
closed = 1;
nodes = (
"168 -317 OFFCURVE",
"182 -301 OFFCURVE",
"202 -301 CURVE SMOOTH",
"219 -301 OFFCURVE",
"228 -311 OFFCURVE",
"228 -324 CURVE SMOOTH",
"228 -339 OFFCURVE",
"219 -356 OFFCURVE",
"193 -382 CURVE SMOOTH",
"175 -400 OFFCURVE",
"157 -413 OFFCURVE",
"147 -419 CURVE",
"135 -422 OFFCURVE",
"123 -417 OFFCURVE",
"140 -408 CURVE",
"141 -407 OFFCURVE",
"177 -378 OFFCURVE",
"185 -351 CURVE",
"174 -347 OFFCURVE",
"168 -340 OFFCURVE",
"168 -332 CURVE SMOOTH"
);
}
);
width = 772;
}
);
unicode = 0122;
},
{
color = 11;
glyphname = Gdotaccent;
lastChange = "2021-08-11 14:48:46 +0000";
layers = (
{
components = (
{
name = G;
},
{
name = dotaccentcomb;
transform = "{1, 0, 0, 1, 580, -32}";
}
);
layerId = "57DEED6F-9A00-47D0-BD9B-6FE09716AB2D";
width = 548;
},
{
layerId = "A9A9B55F-A222-44B0-A0B6-968BE501F3F8";
paths = (
{
closed = 1;
nodes = (
"783 418 OFFCURVE",
"813 451 OFFCURVE",
"814 475 CURVE SMOOTH",
"816 517 OFFCURVE",
"755 528 OFFCURVE",
"727 531 CURVE",
"720 545 OFFCURVE",
"707 553 OFFCURVE",
"692 553 CURVE SMOOTH",
"681 553 OFFCURVE",
"672 545 OFFCURVE",
"669 534 CURVE",
"534 497 OFFCURVE",
"228 367 OFFCURVE",
"222 181 CURVE SMOOTH",
"221 170 OFFCURVE",
"225 158 OFFCURVE",
"231 149 CURVE",
"117 108 OFFCURVE",
"-124 10 OFFCURVE",
"-130 -149 CURVE SMOOTH",
"-133 -257 OFFCURVE",
"-41 -277 OFFCURVE",
"36 -277 CURVE SMOOTH",
"319 -277 OFFCURVE",
"566 -62 OFFCURVE",
"663 236 CURVE",
"674 237 OFFCURVE",
"685 238 OFFCURVE",
"696 238 CURVE SMOOTH",
"726 239 OFFCURVE",
"747 228 OFFCURVE",
"750 242 CURVE SMOOTH",
"755 263 OFFCURVE",
"706 265 OFFCURVE",
"681 265 CURVE SMOOTH",
"671 265 LINE",
"692 338 OFFCURVE",
"718 434 OFFCURVE",
"728 510 CURVE",
"732 510 LINE SMOOTH",
"746 510 OFFCURVE",
"772 494 OFFCURVE",
"775 474 CURVE SMOOTH",
"779 446 OFFCURVE",
"765 439 OFFCURVE",
"758 432 CURVE SMOOTH",
"753 427 OFFCURVE",
"755 418 OFFCURVE",
"762 418 CURVE SMOOTH"
);
},
{
closed = 1;
nodes = (
"556 244 LINE",
"580 268 OFFCURVE",
"602 294 OFFCURVE",
"623 322 CURVE",
"606 254 LINE"
);
},
{
closed = 1;
nodes = (
"397 392 OFFCURVE",
"539 474 OFFCURVE",
"670 509 CURVE",
"637 349 OFFCURVE",
"557 289 OFFCURVE",
"481 226 CURVE",
"414 209 OFFCURVE",
"368 192 OFFCURVE",
"301 170 CURVE",
"255 175 OFFCURVE",
"300 242 OFFCURVE",
"315 266 CURVE SMOOTH"
);
},
{
closed = 1;
nodes = (
"600 227 LINE",
"515 -48 OFFCURVE",
"327 -248 OFFCURVE",
"59 -248 CURVE SMOOTH",
"1 -248 OFFCURVE",
"-75 -221 OFFCURVE",
"-72 -136 CURVE SMOOTH",
"-68 -2 OFFCURVE",
"145 90 OFFCURVE",
"241 124 CURVE",
"255 112 OFFCURVE",
"274 107 OFFCURVE",
"293 107 CURVE SMOOTH",
"364 107 OFFCURVE",
"454 157 OFFCURVE",
"510 204 CURVE"
);
},
{
closed = 1;
nodes = (
"667 609 OFFCURVE",
"678 595 OFFCURVE",
"695 595 CURVE SMOOTH",
"712 595 OFFCURVE",
"728 609 OFFCURVE",
"731 627 CURVE SMOOTH",
"734 645 OFFCURVE",
"723 659 OFFCURVE",
"705 659 CURVE SMOOTH",
"687 659 OFFCURVE",
"672 645 OFFCURVE",
"669 627 CURVE SMOOTH"
);
}
);
width = 695;
},
{
layerId = "AFE3E0A9-A514-4B93-8E4E-B7D18C88F31C";
paths = (
{
closed = 1;
nodes = (
"855 418 OFFCURVE",
"887 451 OFFCURVE",
"887 475 CURVE SMOOTH",
"887 517 OFFCURVE",
"819 528 OFFCURVE",
"788 531 CURVE",
"779 545 OFFCURVE",
"764 553 OFFCURVE",
"748 553 CURVE SMOOTH",
"736 553 OFFCURVE",
"726 545 OFFCURVE",
"723 534 CURVE",
"575 497 OFFCURVE",
"240 367 OFFCURVE",
"240 181 CURVE SMOOTH",
"240 170 OFFCURVE",
"244 158 OFFCURVE",
"251 149 CURVE",
"127 108 OFFCURVE",
"-139 10 OFFCURVE",
"-139 -149 CURVE SMOOTH",
"-139 -257 OFFCURVE",
"-36 -277 OFFCURVE",
"51 -277 CURVE SMOOTH",
"366 -277 OFFCURVE",
"632 -62 OFFCURVE",
"728 236 CURVE",
"740 237 OFFCURVE",
"752 238 OFFCURVE",
"764 238 CURVE SMOOTH",
"798 239 OFFCURVE",
"822 228 OFFCURVE",
"825 242 CURVE SMOOTH",
"829 263 OFFCURVE",
"774 265 OFFCURVE",
"747 265 CURVE SMOOTH",
"736 265 LINE",
"757 338 OFFCURVE",
"781 434 OFFCURVE",
"790 510 CURVE",
"795 510 LINE SMOOTH",
"810 510 OFFCURVE",
"839 494 OFFCURVE",
"843 474 CURVE SMOOTH",
"849 446 OFFCURVE",
"833 439 OFFCURVE",
"826 432 CURVE SMOOTH",
"821 427 OFFCURVE",
"823 418 OFFCURVE",
"831 418 CURVE SMOOTH"
);
},
{
closed = 1;
nodes = (
"609 244 LINE",
"634 268 OFFCURVE",
"658 294 OFFCURVE",
"680 322 CURVE",
"664 254 LINE"
);
},
{
closed = 1;
nodes = (
"427 392 OFFCURVE",
"581 474 OFFCURVE",
"726 509 CURVE",
"695 349 OFFCURVE",
"608 289 OFFCURVE",
"527 226 CURVE",
"452 209 OFFCURVE",
"402 192 OFFCURVE",
"329 170 CURVE",
"277 175 OFFCURVE",
"324 242 OFFCURVE",
"340 266 CURVE SMOOTH"
);
},
{
closed = 1;
nodes = (
"659 227 LINE",
"575 -48 OFFCURVE",
"373 -248 OFFCURVE",
"76 -248 CURVE SMOOTH",
"11 -248 OFFCURVE",
"-76 -221 OFFCURVE",
"-76 -136 CURVE SMOOTH",
"-76 -2 OFFCURVE",
"158 90 OFFCURVE",
"263 124 CURVE",
"280 112 OFFCURVE",
"301 107 OFFCURVE",
"322 107 CURVE SMOOTH",
"401 107 OFFCURVE",
"499 157 OFFCURVE",
"559 204 CURVE"
);
},
{
closed = 1;
nodes = (
"719 609 OFFCURVE",
"732 595 OFFCURVE",
"751 595 CURVE SMOOTH",
"770 595 OFFCURVE",
"787 609 OFFCURVE",
"789 627 CURVE SMOOTH",
"792 645 OFFCURVE",
"779 659 OFFCURVE",
"760 659 CURVE SMOOTH",
"740 659 OFFCURVE",
"723 645 OFFCURVE",
"721 627 CURVE SMOOTH"
);
}
);
width = 772;
}
);
unicode = 0120;
},
